<?xml version="1.0" encoding="utf-8" standalone="no"?>
<!DOCTYPE svg PUBLIC "-//W3C//DTD SVG 1.1//EN"
  "http://www.w3.org/Graphics/SVG/1.1/DTD/svg11.dtd">
<svg xmlns:xlink="http://www.w3.org/1999/xlink" width="504pt" height="504pt" viewBox="0 0 504 504" xmlns="http://www.w3.org/2000/svg" version="1.1">
 <metadata>
  <rdf:RDF xmlns:dc="http://purl.org/dc/elements/1.1/" xmlns:cc="http://creativecommons.org/ns#" xmlns:rdf="http://www.w3.org/1999/02/22-rdf-syntax-ns#">
   <cc:Work>
    <dc:type rdf:resource="http://purl.org/dc/dcmitype/StillImage"/>
    <dc:date>2024-05-17T02:30:15.337691</dc:date>
    <dc:format>image/svg+xml</dc:format>
    <dc:creator>
     <cc:Agent>
      <dc:title>Matplotlib v3.7.0, https://matplotlib.org/</dc:title>
     </cc:Agent>
    </dc:creator>
   </cc:Work>
  </rdf:RDF>
 </metadata>
 <defs>
  <style type="text/css">*{stroke-linejoin: round; stroke-linecap: butt}</style>
 </defs>
 <g id="figure_1">
  <g id="patch_1">
   <path d="M 0 504 
L 504 504 
L 504 0 
L 0 0 
z
" style="fill: #ffffff"/>
  </g>
  <g id="axes_1">
   <g id="patch_2">
    <path d="M 64.82 444.76 
L 473.175 444.76 
L 473.175 32.64 
L 64.82 32.64 
z
" style="fill: #ffffff"/>
   </g>
   <g id="patch_3">
    <path d="M -3.239167 444.76 
L 7.872534 444.76 
L 7.872534 444.76 
L -3.239167 444.76 
z
" clip-path="url(#p01a198edb3)" style="fill: #f28e2b; opacity: 0.65; stroke: #000000; stroke-linejoin: miter"/>
   </g>
   <g id="patch_4">
    <path d="M 7.872534 444.76 
L 18.984235 444.76 
L 18.984235 444.76 
L 7.872534 444.76 
z
" clip-path="url(#p01a198edb3)" style="fill: #f28e2b; opacity: 0.65; stroke: #000000; stroke-linejoin: miter"/>
   </g>
   <g id="patch_5">
    <path d="M 18.984235 444.76 
L 30.095935 444.76 
L 30.095935 444.759649 
L 18.984235 444.759649 
z
" clip-path="url(#p01a198edb3)" style="fill: #f28e2b; opacity: 0.65; stroke: #000000; stroke-linejoin: miter"/>
   </g>
   <g id="patch_6">
    <path d="M 30.095935 444.76 
L 41.207636 444.76 
L 41.207636 444.759298 
L 30.095935 444.759298 
z
" clip-path="url(#p01a198edb3)" style="fill: #f28e2b; opacity: 0.65; stroke: #000000; stroke-linejoin: miter"/>
   </g>
   <g id="patch_7">
    <path d="M 41.207636 444.76 
L 52.319337 444.76 
L 52.319337 444.757893 
L 41.207636 444.757893 
z
" clip-path="url(#p01a198edb3)" style="fill: #f28e2b; opacity: 0.65; stroke: #000000; stroke-linejoin: miter"/>
   </g>
   <g id="patch_8">
    <path d="M 52.319337 444.76 
L 63.431037 444.76 
L 63.431037 444.754383 
L 52.319337 444.754383 
z
" clip-path="url(#p01a198edb3)" style="fill: #f28e2b; opacity: 0.65; stroke: #000000; stroke-linejoin: miter"/>
   </g>
   <g id="patch_9">
    <path d="M 63.431037 444.76 
L 74.542738 444.76 
L 74.542738 444.747712 
L 63.431037 444.747712 
z
" clip-path="url(#p01a198edb3)" style="fill: #f28e2b; opacity: 0.65; stroke: #000000; stroke-linejoin: miter"/>
   </g>
   <g id="patch_10">
    <path d="M 74.542738 444.76 
L 85.654439 444.76 
L 85.654439 444.742095 
L 74.542738 444.742095 
z
" clip-path="url(#p01a198edb3)" style="fill: #f28e2b; opacity: 0.65; stroke: #000000; stroke-linejoin: miter"/>
   </g>
   <g id="patch_11">
    <path d="M 85.654439 444.76 
L 96.766139 444.76 
L 96.766139 444.715412 
L 85.654439 444.715412 
z
" clip-path="url(#p01a198edb3)" style="fill: #f28e2b; opacity: 0.65; stroke: #000000; stroke-linejoin: miter"/>
   </g>
   <g id="patch_12">
    <path d="M 96.766139 444.76 
L 107.87784 444.76 
L 107.87784 444.666612 
L 96.766139 444.666612 
z
" clip-path="url(#p01a198edb3)" style="fill: #f28e2b; opacity: 0.65; stroke: #000000; stroke-linejoin: miter"/>
   </g>
   <g id="patch_13">
    <path d="M 107.87784 444.76 
L 118.989541 444.76 
L 118.989541 444.593586 
L 107.87784 444.593586 
z
" clip-path="url(#p01a198edb3)" style="fill: #f28e2b; opacity: 0.65; stroke: #000000; stroke-linejoin: miter"/>
   </g>
   <g id="patch_14">
    <path d="M 118.989541 444.76 
L 130.101241 444.76 
L 130.101241 444.478431 
L 118.989541 444.478431 
z
" clip-path="url(#p01a198edb3)" style="fill: #f28e2b; opacity: 0.65; stroke: #000000; stroke-linejoin: miter"/>
   </g>
   <g id="patch_15">
    <path d="M 130.101241 444.76 
L 141.212942 444.76 
L 141.212942 444.270941 
L 130.101241 444.270941 
z
" clip-path="url(#p01a198edb3)" style="fill: #f28e2b; opacity: 0.65; stroke: #000000; stroke-linejoin: miter"/>
   </g>
   <g id="patch_16">
    <path d="M 141.212942 444.76 
L 152.324643 444.76 
L 152.324643 444.020969 
L 141.212942 444.020969 
z
" clip-path="url(#p01a198edb3)" style="fill: #f28e2b; opacity: 0.65; stroke: #000000; stroke-linejoin: miter"/>
   </g>
   <g id="patch_17">
    <path d="M 152.324643 444.76 
L 163.436344 444.76 
L 163.436344 443.660407 
L 152.324643 443.660407 
z
" clip-path="url(#p01a198edb3)" style="fill: #f28e2b; opacity: 0.65; stroke: #000000; stroke-linejoin: miter"/>
   </g>
   <g id="patch_18">
    <path d="M 163.436344 444.76 
L 174.548044 444.76 
L 174.548044 443.040394 
L 163.436344 443.040394 
z
" clip-path="url(#p01a198edb3)" style="fill: #f28e2b; opacity: 0.65; stroke: #000000; stroke-linejoin: miter"/>
   </g>
   <g id="patch_19">
    <path d="M 174.548044 444.76 
L 185.659745 444.76 
L 185.659745 442.159525 
L 174.548044 442.159525 
z
" clip-path="url(#p01a198edb3)" style="fill: #f28e2b; opacity: 0.65; stroke: #000000; stroke-linejoin: miter"/>
   </g>
   <g id="patch_20">
    <path d="M 185.659745 444.76 
L 196.771446 444.76 
L 196.771446 440.748872 
L 185.659745 440.748872 
z
" clip-path="url(#p01a198edb3)" style="fill: #f28e2b; opacity: 0.65; stroke: #000000; stroke-linejoin: miter"/>
   </g>
   <g id="patch_21">
    <path d="M 196.771446 444.76 
L 207.883146 444.76 
L 207.883146 438.251616 
L 196.771446 438.251616 
z
" clip-path="url(#p01a198edb3)" style="fill: #f28e2b; opacity: 0.65; stroke: #000000; stroke-linejoin: miter"/>
   </g>
   <g id="patch_22">
    <path d="M 207.883146 444.76 
L 218.994847 444.76 
L 218.994847 433.853243 
L 207.883146 433.853243 
z
" clip-path="url(#p01a198edb3)" style="fill: #f28e2b; opacity: 0.65; stroke: #000000; stroke-linejoin: miter"/>
   </g>
   <g id="patch_23">
    <path d="M 218.994847 444.76 
L 230.106548 444.76 
L 230.106548 427.308347 
L 218.994847 427.308347 
z
" clip-path="url(#p01a198edb3)" style="fill: #f28e2b; opacity: 0.65; stroke: #000000; stroke-linejoin: miter"/>
   </g>
   <g id="patch_24">
    <path d="M 230.106548 444.76 
L 241.218248 444.76 
L 241.218248 417.157824 
L 230.106548 417.157824 
z
" clip-path="url(#p01a198edb3)" style="fill: #f28e2b; opacity: 0.65; stroke: #000000; stroke-linejoin: miter"/>
   </g>
   <g id="patch_25">
    <path d="M 241.218248 444.76 
L 252.329949 444.76 
L 252.329949 404.394187 
L 241.218248 404.394187 
z
" clip-path="url(#p01a198edb3)" style="fill: #f28e2b; opacity: 0.65; stroke: #000000; stroke-linejoin: miter"/>
   </g>
   <g id="patch_26">
    <path d="M 252.329949 444.76 
L 263.44165 444.76 
L 263.44165 392.774731 
L 252.329949 392.774731 
z
" clip-path="url(#p01a198edb3)" style="fill: #f28e2b; opacity: 0.65; stroke: #000000; stroke-linejoin: miter"/>
   </g>
   <g id="patch_27">
    <path d="M 263.44165 444.76 
L 274.55335 444.76 
L 274.55335 386.244931 
L 263.44165 386.244931 
z
" clip-path="url(#p01a198edb3)" style="fill: #f28e2b; opacity: 0.65; stroke: #000000; stroke-linejoin: miter"/>
   </g>
   <g id="patch_28">
    <path d="M 274.55335 444.76 
L 285.665051 444.76 
L 285.665051 393.560807 
L 274.55335 393.560807 
z
" clip-path="url(#p01a198edb3)" style="fill: #f28e2b; opacity: 0.65; stroke: #000000; stroke-linejoin: miter"/>
   </g>
   <g id="patch_29">
    <path d="M 285.665051 444.76 
L 296.776752 444.76 
L 296.776752 404.158961 
L 285.665051 404.158961 
z
" clip-path="url(#p01a198edb3)" style="fill: #f28e2b; opacity: 0.65; stroke: #000000; stroke-linejoin: miter"/>
   </g>
   <g id="patch_30">
    <path d="M 296.776752 444.76 
L 307.888452 444.76 
L 307.888452 415.503168 
L 296.776752 415.503168 
z
" clip-path="url(#p01a198edb3)" style="fill: #f28e2b; opacity: 0.65; stroke: #000000; stroke-linejoin: miter"/>
   </g>
   <g id="patch_31">
    <path d="M 307.888452 444.76 
L 319.000153 444.76 
L 319.000153 425.653691 
L 307.888452 425.653691 
z
" clip-path="url(#p01a198edb3)" style="fill: #f28e2b; opacity: 0.65; stroke: #000000; stroke-linejoin: miter"/>
   </g>
   <g id="patch_32">
    <path d="M 319.000153 444.76 
L 330.111854 444.76 
L 330.111854 432.658155 
L 319.000153 432.658155 
z
" clip-path="url(#p01a198edb3)" style="fill: #f28e2b; opacity: 0.65; stroke: #000000; stroke-linejoin: miter"/>
   </g>
   <g id="patch_33">
    <path d="M 330.111854 444.76 
L 341.223554 444.76 
L 341.223554 437.269636 
L 330.111854 437.269636 
z
" clip-path="url(#p01a198edb3)" style="fill: #f28e2b; opacity: 0.65; stroke: #000000; stroke-linejoin: miter"/>
   </g>
   <g id="patch_34">
    <path d="M 341.223554 444.76 
L 352.335255 444.76 
L 352.335255 439.867653 
L 341.223554 439.867653 
z
" clip-path="url(#p01a198edb3)" style="fill: #f28e2b; opacity: 0.65; stroke: #000000; stroke-linejoin: miter"/>
   </g>
   <g id="patch_35">
    <path d="M 352.335255 444.76 
L 363.446956 444.76 
L 363.446956 441.455603 
L 352.335255 441.455603 
z
" clip-path="url(#p01a198edb3)" style="fill: #f28e2b; opacity: 0.65; stroke: #000000; stroke-linejoin: miter"/>
   </g>
   <g id="patch_36">
    <path d="M 363.446956 444.76 
L 374.558656 444.76 
L 374.558656 442.418625 
L 363.446956 442.418625 
z
" clip-path="url(#p01a198edb3)" style="fill: #f28e2b; opacity: 0.65; stroke: #000000; stroke-linejoin: miter"/>
   </g>
   <g id="patch_37">
    <path d="M 374.558656 444.76 
L 385.670357 444.76 
L 385.670357 443.057246 
L 374.558656 443.057246 
z
" clip-path="url(#p01a198edb3)" style="fill: #f28e2b; opacity: 0.65; stroke: #000000; stroke-linejoin: miter"/>
   </g>
   <g id="patch_38">
    <path d="M 385.670357 444.76 
L 396.782058 444.76 
L 396.782058 443.475386 
L 385.670357 443.475386 
z
" clip-path="url(#p01a198edb3)" style="fill: #f28e2b; opacity: 0.65; stroke: #000000; stroke-linejoin: miter"/>
   </g>
   <g id="patch_39">
    <path d="M 396.782058 444.76 
L 407.893759 444.76 
L 407.893759 443.85596 
L 396.782058 443.85596 
z
" clip-path="url(#p01a198edb3)" style="fill: #f28e2b; opacity: 0.65; stroke: #000000; stroke-linejoin: miter"/>
   </g>
   <g id="patch_40">
    <path d="M 407.893759 444.76 
L 419.005459 444.76 
L 419.005459 444.060642 
L 407.893759 444.060642 
z
" clip-path="url(#p01a198edb3)" style="fill: #f28e2b; opacity: 0.65; stroke: #000000; stroke-linejoin: miter"/>
   </g>
   <g id="patch_41">
    <path d="M 419.005459 444.76 
L 430.11716 444.76 
L 430.11716 444.240748 
L 419.005459 444.240748 
z
" clip-path="url(#p01a198edb3)" style="fill: #f28e2b; opacity: 0.65; stroke: #000000; stroke-linejoin: miter"/>
   </g>
   <g id="patch_42">
    <path d="M 430.11716 444.76 
L 441.228861 444.76 
L 441.228861 444.409619 
L 430.11716 444.409619 
z
" clip-path="url(#p01a198edb3)" style="fill: #f28e2b; opacity: 0.65; stroke: #000000; stroke-linejoin: miter"/>
   </g>
   <g id="patch_43">
    <path d="M 441.228861 444.76 
L 452.340561 444.76 
L 452.340561 444.500549 
L 441.228861 444.500549 
z
" clip-path="url(#p01a198edb3)" style="fill: #f28e2b; opacity: 0.65; stroke: #000000; stroke-linejoin: miter"/>
   </g>
   <g id="patch_44">
    <path d="M 452.340561 444.76 
L 463.452262 444.76 
L 463.452262 444.60131 
L 452.340561 444.60131 
z
" clip-path="url(#p01a198edb3)" style="fill: #f28e2b; opacity: 0.65; stroke: #000000; stroke-linejoin: miter"/>
   </g>
   <g id="patch_45">
    <path d="M 463.452262 444.76 
L 474.563963 444.76 
L 474.563963 444.6466 
L 463.452262 444.6466 
z
" clip-path="url(#p01a198edb3)" style="fill: #f28e2b; opacity: 0.65; stroke: #000000; stroke-linejoin: miter"/>
   </g>
   <g id="patch_46">
    <path d="M 474.563963 444.76 
L 485.675663 444.76 
L 485.675663 444.703124 
L 474.563963 444.703124 
z
" clip-path="url(#p01a198edb3)" style="fill: #f28e2b; opacity: 0.65; stroke: #000000; stroke-linejoin: miter"/>
   </g>
   <g id="patch_47">
    <path d="M 485.675663 444.76 
L 496.787364 444.76 
L 496.787364 444.722785 
L 485.675663 444.722785 
z
" clip-path="url(#p01a198edb3)" style="fill: #f28e2b; opacity: 0.65; stroke: #000000; stroke-linejoin: miter"/>
   </g>
   <g id="patch_48">
    <path d="M 496.787364 444.76 
L 507.899065 444.76 
L 507.899065 444.739637 
L 496.787364 444.739637 
z
" clip-path="url(#p01a198edb3)" style="fill: #f28e2b; opacity: 0.65; stroke: #000000; stroke-linejoin: miter"/>
   </g>
   <g id="patch_49">
    <path d="M 507.899065 444.76 
L 519.010765 444.76 
L 519.010765 444.750872 
L 507.899065 444.750872 
z
" clip-path="url(#p01a198edb3)" style="fill: #f28e2b; opacity: 0.65; stroke: #000000; stroke-linejoin: miter"/>
   </g>
   <g id="patch_50">
    <path d="M 519.010765 444.76 
L 530.122466 444.76 
L 530.122466 444.758596 
L 519.010765 444.758596 
z
" clip-path="url(#p01a198edb3)" style="fill: #f28e2b; opacity: 0.65; stroke: #000000; stroke-linejoin: miter"/>
   </g>
   <g id="patch_51">
    <path d="M 530.122466 444.76 
L 541.234167 444.76 
L 541.234167 444.76 
L 530.122466 444.76 
z
" clip-path="url(#p01a198edb3)" style="fill: #f28e2b; opacity: 0.65; stroke: #000000; stroke-linejoin: miter"/>
   </g>
   <g id="patch_52">
    <path d="M -3.239167 444.76 
L 7.872534 444.76 
L 7.872534 444.76 
L -3.239167 444.76 
z
" clip-path="url(#p01a198edb3)" style="fill: #4e79a7; opacity: 0.65; stroke: #000000; stroke-linejoin: miter"/>
   </g>
   <g id="patch_53">
    <path d="M 7.872534 444.76 
L 18.984235 444.76 
L 18.984235 444.76 
L 7.872534 444.76 
z
" clip-path="url(#p01a198edb3)" style="fill: #4e79a7; opacity: 0.65; stroke: #000000; stroke-linejoin: miter"/>
   </g>
   <g id="patch_54">
    <path d="M 18.984235 444.76 
L 30.095935 444.76 
L 30.095935 444.76 
L 18.984235 444.76 
z
" clip-path="url(#p01a198edb3)" style="fill: #4e79a7; opacity: 0.65; stroke: #000000; stroke-linejoin: miter"/>
   </g>
   <g id="patch_55">
    <path d="M 30.095935 444.76 
L 41.207636 444.76 
L 41.207636 444.76 
L 30.095935 444.76 
z
" clip-path="url(#p01a198edb3)" style="fill: #4e79a7; opacity: 0.65; stroke: #000000; stroke-linejoin: miter"/>
   </g>
   <g id="patch_56">
    <path d="M 41.207636 444.76 
L 52.319337 444.76 
L 52.319337 444.76 
L 41.207636 444.76 
z
" clip-path="url(#p01a198edb3)" style="fill: #4e79a7; opacity: 0.65; stroke: #000000; stroke-linejoin: miter"/>
   </g>
   <g id="patch_57">
    <path d="M 52.319337 444.76 
L 63.431037 444.76 
L 63.431037 444.76 
L 52.319337 444.76 
z
" clip-path="url(#p01a198edb3)" style="fill: #4e79a7; opacity: 0.65; stroke: #000000; stroke-linejoin: miter"/>
   </g>
   <g id="patch_58">
    <path d="M 63.431037 444.76 
L 74.542738 444.76 
L 74.542738 444.76 
L 63.431037 444.76 
z
" clip-path="url(#p01a198edb3)" style="fill: #4e79a7; opacity: 0.65; stroke: #000000; stroke-linejoin: miter"/>
   </g>
   <g id="patch_59">
    <path d="M 74.542738 444.76 
L 85.654439 444.76 
L 85.654439 444.76 
L 74.542738 444.76 
z
" clip-path="url(#p01a198edb3)" style="fill: #4e79a7; opacity: 0.65; stroke: #000000; stroke-linejoin: miter"/>
   </g>
   <g id="patch_60">
    <path d="M 85.654439 444.76 
L 96.766139 444.76 
L 96.766139 444.76 
L 85.654439 444.76 
z
" clip-path="url(#p01a198edb3)" style="fill: #4e79a7; opacity: 0.65; stroke: #000000; stroke-linejoin: miter"/>
   </g>
   <g id="patch_61">
    <path d="M 96.766139 444.76 
L 107.87784 444.76 
L 107.87784 444.76 
L 96.766139 444.76 
z
" clip-path="url(#p01a198edb3)" style="fill: #4e79a7; opacity: 0.65; stroke: #000000; stroke-linejoin: miter"/>
   </g>
   <g id="patch_62">
    <path d="M 107.87784 444.76 
L 118.989541 444.76 
L 118.989541 444.76 
L 107.87784 444.76 
z
" clip-path="url(#p01a198edb3)" style="fill: #4e79a7; opacity: 0.65; stroke: #000000; stroke-linejoin: miter"/>
   </g>
   <g id="patch_63">
    <path d="M 118.989541 444.76 
L 130.101241 444.76 
L 130.101241 444.76 
L 118.989541 444.76 
z
" clip-path="url(#p01a198edb3)" style="fill: #4e79a7; opacity: 0.65; stroke: #000000; stroke-linejoin: miter"/>
   </g>
   <g id="patch_64">
    <path d="M 130.101241 444.76 
L 141.212942 444.76 
L 141.212942 444.76 
L 130.101241 444.76 
z
" clip-path="url(#p01a198edb3)" style="fill: #4e79a7; opacity: 0.65; stroke: #000000; stroke-linejoin: miter"/>
   </g>
   <g id="patch_65">
    <path d="M 141.212942 444.76 
L 152.324643 444.76 
L 152.324643 444.76 
L 141.212942 444.76 
z
" clip-path="url(#p01a198edb3)" style="fill: #4e79a7; opacity: 0.65; stroke: #000000; stroke-linejoin: miter"/>
   </g>
   <g id="patch_66">
    <path d="M 152.324643 444.76 
L 163.436344 444.76 
L 163.436344 444.76 
L 152.324643 444.76 
z
" clip-path="url(#p01a198edb3)" style="fill: #4e79a7; opacity: 0.65; stroke: #000000; stroke-linejoin: miter"/>
   </g>
   <g id="patch_67">
    <path d="M 163.436344 444.76 
L 174.548044 444.76 
L 174.548044 444.76 
L 163.436344 444.76 
z
" clip-path="url(#p01a198edb3)" style="fill: #4e79a7; opacity: 0.65; stroke: #000000; stroke-linejoin: miter"/>
   </g>
   <g id="patch_68">
    <path d="M 174.548044 444.76 
L 185.659745 444.76 
L 185.659745 444.76 
L 174.548044 444.76 
z
" clip-path="url(#p01a198edb3)" style="fill: #4e79a7; opacity: 0.65; stroke: #000000; stroke-linejoin: miter"/>
   </g>
   <g id="patch_69">
    <path d="M 185.659745 444.76 
L 196.771446 444.76 
L 196.771446 444.76 
L 185.659745 444.76 
z
" clip-path="url(#p01a198edb3)" style="fill: #4e79a7; opacity: 0.65; stroke: #000000; stroke-linejoin: miter"/>
   </g>
   <g id="patch_70">
    <path d="M 196.771446 444.76 
L 207.883146 444.76 
L 207.883146 444.76 
L 196.771446 444.76 
z
" clip-path="url(#p01a198edb3)" style="fill: #4e79a7; opacity: 0.65; stroke: #000000; stroke-linejoin: miter"/>
   </g>
   <g id="patch_71">
    <path d="M 207.883146 444.76 
L 218.994847 444.76 
L 218.994847 444.76 
L 207.883146 444.76 
z
" clip-path="url(#p01a198edb3)" style="fill: #4e79a7; opacity: 0.65; stroke: #000000; stroke-linejoin: miter"/>
   </g>
   <g id="patch_72">
    <path d="M 218.994847 444.76 
L 230.106548 444.76 
L 230.106548 444.76 
L 218.994847 444.76 
z
" clip-path="url(#p01a198edb3)" style="fill: #4e79a7; opacity: 0.65; stroke: #000000; stroke-linejoin: miter"/>
   </g>
   <g id="patch_73">
    <path d="M 230.106548 444.76 
L 241.218248 444.76 
L 241.218248 444.76 
L 230.106548 444.76 
z
" clip-path="url(#p01a198edb3)" style="fill: #4e79a7; opacity: 0.65; stroke: #000000; stroke-linejoin: miter"/>
   </g>
   <g id="patch_74">
    <path d="M 241.218248 444.76 
L 252.329949 444.76 
L 252.329949 444.76 
L 241.218248 444.76 
z
" clip-path="url(#p01a198edb3)" style="fill: #4e79a7; opacity: 0.65; stroke: #000000; stroke-linejoin: miter"/>
   </g>
   <g id="patch_75">
    <path d="M 252.329949 444.76 
L 263.44165 444.76 
L 263.44165 444.76 
L 252.329949 444.76 
z
" clip-path="url(#p01a198edb3)" style="fill: #4e79a7; opacity: 0.65; stroke: #000000; stroke-linejoin: miter"/>
   </g>
   <g id="patch_76">
    <path d="M 263.44165 444.76 
L 274.55335 444.76 
L 274.55335 52.264762 
L 263.44165 52.264762 
z
" clip-path="url(#p01a198edb3)" style="fill: #4e79a7; opacity: 0.65; stroke: #000000; stroke-linejoin: miter"/>
   </g>
   <g id="patch_77">
    <path d="M 274.55335 444.76 
L 285.665051 444.76 
L 285.665051 436.332874 
L 274.55335 436.332874 
z
" clip-path="url(#p01a198edb3)" style="fill: #4e79a7; opacity: 0.65; stroke: #000000; stroke-linejoin: miter"/>
   </g>
   <g id="patch_78">
    <path d="M 285.665051 444.76 
L 296.776752 444.76 
L 296.776752 444.655632 
L 285.665051 444.655632 
z
" clip-path="url(#p01a198edb3)" style="fill: #4e79a7; opacity: 0.65; stroke: #000000; stroke-linejoin: miter"/>
   </g>
   <g id="patch_79">
    <path d="M 296.776752 444.76 
L 307.888452 444.76 
L 307.888452 444.758015 
L 296.776752 444.758015 
z
" clip-path="url(#p01a198edb3)" style="fill: #4e79a7; opacity: 0.65; stroke: #000000; stroke-linejoin: miter"/>
   </g>
   <g id="patch_80">
    <path d="M 307.888452 444.76 
L 319.000153 444.76 
L 319.000153 444.759716 
L 307.888452 444.759716 
z
" clip-path="url(#p01a198edb3)" style="fill: #4e79a7; opacity: 0.65; stroke: #000000; stroke-linejoin: miter"/>
   </g>
   <g id="patch_81">
    <path d="M 319.000153 444.76 
L 330.111854 444.76 
L 330.111854 444.759716 
L 319.000153 444.759716 
z
" clip-path="url(#p01a198edb3)" style="fill: #4e79a7; opacity: 0.65; stroke: #000000; stroke-linejoin: miter"/>
   </g>
   <g id="patch_82">
    <path d="M 330.111854 444.76 
L 341.223554 444.76 
L 341.223554 444.76 
L 330.111854 444.76 
z
" clip-path="url(#p01a198edb3)" style="fill: #4e79a7; opacity: 0.65; stroke: #000000; stroke-linejoin: miter"/>
   </g>
   <g id="patch_83">
    <path d="M 341.223554 444.76 
L 352.335255 444.76 
L 352.335255 444.76 
L 341.223554 444.76 
z
" clip-path="url(#p01a198edb3)" style="fill: #4e79a7; opacity: 0.65; stroke: #000000; stroke-linejoin: miter"/>
   </g>
   <g id="patch_84">
    <path d="M 352.335255 444.76 
L 363.446956 444.76 
L 363.446956 444.759716 
L 352.335255 444.759716 
z
" clip-path="url(#p01a198edb3)" style="fill: #4e79a7; opacity: 0.65; stroke: #000000; stroke-linejoin: miter"/>
   </g>
   <g id="patch_85">
    <path d="M 363.446956 444.76 
L 374.558656 444.76 
L 374.558656 444.76 
L 363.446956 444.76 
z
" clip-path="url(#p01a198edb3)" style="fill: #4e79a7; opacity: 0.65; stroke: #000000; stroke-linejoin: miter"/>
   </g>
   <g id="patch_86">
    <path d="M 374.558656 444.76 
L 385.670357 444.76 
L 385.670357 444.76 
L 374.558656 444.76 
z
" clip-path="url(#p01a198edb3)" style="fill: #4e79a7; opacity: 0.65; stroke: #000000; stroke-linejoin: miter"/>
   </g>
   <g id="patch_87">
    <path d="M 385.670357 444.76 
L 396.782058 444.76 
L 396.782058 444.76 
L 385.670357 444.76 
z
" clip-path="url(#p01a198edb3)" style="fill: #4e79a7; opacity: 0.65; stroke: #000000; stroke-linejoin: miter"/>
   </g>
   <g id="patch_88">
    <path d="M 396.782058 444.76 
L 407.893759 444.76 
L 407.893759 444.76 
L 396.782058 444.76 
z
" clip-path="url(#p01a198edb3)" style="fill: #4e79a7; opacity: 0.65; stroke: #000000; stroke-linejoin: miter"/>
   </g>
   <g id="patch_89">
    <path d="M 407.893759 444.76 
L 419.005459 444.76 
L 419.005459 444.76 
L 407.893759 444.76 
z
" clip-path="url(#p01a198edb3)" style="fill: #4e79a7; opacity: 0.65; stroke: #000000; stroke-linejoin: miter"/>
   </g>
   <g id="patch_90">
    <path d="M 419.005459 444.76 
L 430.11716 444.76 
L 430.11716 444.76 
L 419.005459 444.76 
z
" clip-path="url(#p01a198edb3)" style="fill: #4e79a7; opacity: 0.65; stroke: #000000; stroke-linejoin: miter"/>
   </g>
   <g id="patch_91">
    <path d="M 430.11716 444.76 
L 441.228861 444.76 
L 441.228861 444.76 
L 430.11716 444.76 
z
" clip-path="url(#p01a198edb3)" style="fill: #4e79a7; opacity: 0.65; stroke: #000000; stroke-linejoin: miter"/>
   </g>
   <g id="patch_92">
    <path d="M 441.228861 444.76 
L 452.340561 444.76 
L 452.340561 444.76 
L 441.228861 444.76 
z
" clip-path="url(#p01a198edb3)" style="fill: #4e79a7; opacity: 0.65; stroke: #000000; stroke-linejoin: miter"/>
   </g>
   <g id="patch_93">
    <path d="M 452.340561 444.76 
L 463.452262 444.76 
L 463.452262 444.76 
L 452.340561 444.76 
z
" clip-path="url(#p01a198edb3)" style="fill: #4e79a7; opacity: 0.65; stroke: #000000; stroke-linejoin: miter"/>
   </g>
   <g id="patch_94">
    <path d="M 463.452262 444.76 
L 474.563963 444.76 
L 474.563963 444.76 
L 463.452262 444.76 
z
" clip-path="url(#p01a198edb3)" style="fill: #4e79a7; opacity: 0.65; stroke: #000000; stroke-linejoin: miter"/>
   </g>
   <g id="patch_95">
    <path d="M 474.563963 444.76 
L 485.675663 444.76 
L 485.675663 444.76 
L 474.563963 444.76 
z
" clip-path="url(#p01a198edb3)" style="fill: #4e79a7; opacity: 0.65; stroke: #000000; stroke-linejoin: miter"/>
   </g>
   <g id="patch_96">
    <path d="M 485.675663 444.76 
L 496.787364 444.76 
L 496.787364 444.76 
L 485.675663 444.76 
z
" clip-path="url(#p01a198edb3)" style="fill: #4e79a7; opacity: 0.65; stroke: #000000; stroke-linejoin: miter"/>
   </g>
   <g id="patch_97">
    <path d="M 496.787364 444.76 
L 507.899065 444.76 
L 507.899065 444.76 
L 496.787364 444.76 
z
" clip-path="url(#p01a198edb3)" style="fill: #4e79a7; opacity: 0.65; stroke: #000000; stroke-linejoin: miter"/>
   </g>
   <g id="patch_98">
    <path d="M 507.899065 444.76 
L 519.010765 444.76 
L 519.010765 444.76 
L 507.899065 444.76 
z
" clip-path="url(#p01a198edb3)" style="fill: #4e79a7; opacity: 0.65; stroke: #000000; stroke-linejoin: miter"/>
   </g>
   <g id="patch_99">
    <path d="M 519.010765 444.76 
L 530.122466 444.76 
L 530.122466 444.76 
L 519.010765 444.76 
z
" clip-path="url(#p01a198edb3)" style="fill: #4e79a7; opacity: 0.65; stroke: #000000; stroke-linejoin: miter"/>
   </g>
   <g id="patch_100">
    <path d="M 530.122466 444.76 
L 541.234167 444.76 
L 541.234167 444.76 
L 530.122466 444.76 
z
" clip-path="url(#p01a198edb3)" style="fill: #4e79a7; opacity: 0.65; stroke: #000000; stroke-linejoin: miter"/>
   </g>
   <g id="matplotlib.axis_1">
    <g id="xtick_1">
     <g id="line2d_1">
      <path d="M 64.82 444.76 
L 64.82 32.64 
" clip-path="url(#p01a198edb3)" style="fill: none; stroke-dasharray: 2.59,1.12; stroke-dashoffset: 0; stroke: #b0b0b0; stroke-opacity: 0.7; stroke-width: 0.7"/>
     </g>
     <g id="line2d_2">
      <defs>
       <path id="md40c6c4bca" d="M 0 0 
L 0 3.5 
" style="stroke: #000000; stroke-width: 0.8"/>
      </defs>
      <g>
       <use xlink:href="#md40c6c4bca" x="64.82" y="444.76" style="stroke: #000000; stroke-width: 0.8"/>
      </g>
     </g>
     <g id="text_1">
      <!-- −0.75 -->
      <g transform="translate(37.239219 465.437187) scale(0.18 -0.18)">
       <defs>
        <path id="DejaVuSans-2212" d="M 678 2272 
L 4684 2272 
L 4684 1741 
L 678 1741 
L 678 2272 
z
" transform="scale(0.015625)"/>
        <path id="DejaVuSans-30" d="M 2034 4250 
Q 1547 4250 1301 3770 
Q 1056 3291 1056 2328 
Q 1056 1369 1301 889 
Q 1547 409 2034 409 
Q 2525 409 2770 889 
Q 3016 1369 3016 2328 
Q 3016 3291 2770 3770 
Q 2525 4250 2034 4250 
z
M 2034 4750 
Q 2819 4750 3233 4129 
Q 3647 3509 3647 2328 
Q 3647 1150 3233 529 
Q 2819 -91 2034 -91 
Q 1250 -91 836 529 
Q 422 1150 422 2328 
Q 422 3509 836 4129 
Q 1250 4750 2034 4750 
z
" transform="scale(0.015625)"/>
        <path id="DejaVuSans-2e" d="M 684 794 
L 1344 794 
L 1344 0 
L 684 0 
L 684 794 
z
" transform="scale(0.015625)"/>
        <path id="DejaVuSans-37" d="M 525 4666 
L 3525 4666 
L 3525 4397 
L 1831 0 
L 1172 0 
L 2766 4134 
L 525 4134 
L 525 4666 
z
" transform="scale(0.015625)"/>
        <path id="DejaVuSans-35" d="M 691 4666 
L 3169 4666 
L 3169 4134 
L 1269 4134 
L 1269 2991 
Q 1406 3038 1543 3061 
Q 1681 3084 1819 3084 
Q 2600 3084 3056 2656 
Q 3513 2228 3513 1497 
Q 3513 744 3044 326 
Q 2575 -91 1722 -91 
Q 1428 -91 1123 -41 
Q 819 9 494 109 
L 494 744 
Q 775 591 1075 516 
Q 1375 441 1709 441 
Q 2250 441 2565 725 
Q 2881 1009 2881 1497 
Q 2881 1984 2565 2268 
Q 2250 2553 1709 2553 
Q 1456 2553 1204 2497 
Q 953 2441 691 2322 
L 691 4666 
z
" transform="scale(0.015625)"/>
       </defs>
       <use xlink:href="#DejaVuSans-2212"/>
       <use xlink:href="#DejaVuSans-30" x="83.789062"/>
       <use xlink:href="#DejaVuSans-2e" x="147.412109"/>
       <use xlink:href="#DejaVuSans-37" x="179.199219"/>
       <use xlink:href="#DejaVuSans-35" x="242.822266"/>
      </g>
     </g>
    </g>
    <g id="xtick_2">
     <g id="line2d_3">
      <path d="M 132.879167 444.76 
L 132.879167 32.64 
" clip-path="url(#p01a198edb3)" style="fill: none; stroke-dasharray: 2.59,1.12; stroke-dashoffset: 0; stroke: #b0b0b0; stroke-opacity: 0.7; stroke-width: 0.7"/>
     </g>
     <g id="line2d_4">
      <g>
       <use xlink:href="#md40c6c4bca" x="132.879167" y="444.76" style="stroke: #000000; stroke-width: 0.8"/>
      </g>
     </g>
     <g id="text_2">
      <!-- −0.50 -->
      <g transform="translate(105.298385 465.437187) scale(0.18 -0.18)">
       <use xlink:href="#DejaVuSans-2212"/>
       <use xlink:href="#DejaVuSans-30" x="83.789062"/>
       <use xlink:href="#DejaVuSans-2e" x="147.412109"/>
       <use xlink:href="#DejaVuSans-35" x="179.199219"/>
       <use xlink:href="#DejaVuSans-30" x="242.822266"/>
      </g>
     </g>
    </g>
    <g id="xtick_3">
     <g id="line2d_5">
      <path d="M 200.938333 444.76 
L 200.938333 32.64 
" clip-path="url(#p01a198edb3)" style="fill: none; stroke-dasharray: 2.59,1.12; stroke-dashoffset: 0; stroke: #b0b0b0; stroke-opacity: 0.7; stroke-width: 0.7"/>
     </g>
     <g id="line2d_6">
      <g>
       <use xlink:href="#md40c6c4bca" x="200.938333" y="444.76" style="stroke: #000000; stroke-width: 0.8"/>
      </g>
     </g>
     <g id="text_3">
      <!-- −0.25 -->
      <g transform="translate(173.357552 465.437187) scale(0.18 -0.18)">
       <defs>
        <path id="DejaVuSans-32" d="M 1228 531 
L 3431 531 
L 3431 0 
L 469 0 
L 469 531 
Q 828 903 1448 1529 
Q 2069 2156 2228 2338 
Q 2531 2678 2651 2914 
Q 2772 3150 2772 3378 
Q 2772 3750 2511 3984 
Q 2250 4219 1831 4219 
Q 1534 4219 1204 4116 
Q 875 4013 500 3803 
L 500 4441 
Q 881 4594 1212 4672 
Q 1544 4750 1819 4750 
Q 2544 4750 2975 4387 
Q 3406 4025 3406 3419 
Q 3406 3131 3298 2873 
Q 3191 2616 2906 2266 
Q 2828 2175 2409 1742 
Q 1991 1309 1228 531 
z
" transform="scale(0.015625)"/>
       </defs>
       <use xlink:href="#DejaVuSans-2212"/>
       <use xlink:href="#DejaVuSans-30" x="83.789062"/>
       <use xlink:href="#DejaVuSans-2e" x="147.412109"/>
       <use xlink:href="#DejaVuSans-32" x="179.199219"/>
       <use xlink:href="#DejaVuSans-35" x="242.822266"/>
      </g>
     </g>
    </g>
    <g id="xtick_4">
     <g id="line2d_7">
      <path d="M 268.9975 444.76 
L 268.9975 32.64 
" clip-path="url(#p01a198edb3)" style="fill: none; stroke-dasharray: 2.59,1.12; stroke-dashoffset: 0; stroke: #b0b0b0; stroke-opacity: 0.7; stroke-width: 0.7"/>
     </g>
     <g id="line2d_8">
      <g>
       <use xlink:href="#md40c6c4bca" x="268.9975" y="444.76" style="stroke: #000000; stroke-width: 0.8"/>
      </g>
     </g>
     <g id="text_4">
      <!-- 0.00 -->
      <g transform="translate(248.958438 465.437187) scale(0.18 -0.18)">
       <use xlink:href="#DejaVuSans-30"/>
       <use xlink:href="#DejaVuSans-2e" x="63.623047"/>
       <use xlink:href="#DejaVuSans-30" x="95.410156"/>
       <use xlink:href="#DejaVuSans-30" x="159.033203"/>
      </g>
     </g>
    </g>
    <g id="xtick_5">
     <g id="line2d_9">
      <path d="M 337.056667 444.76 
L 337.056667 32.64 
" clip-path="url(#p01a198edb3)" style="fill: none; stroke-dasharray: 2.59,1.12; stroke-dashoffset: 0; stroke: #b0b0b0; stroke-opacity: 0.7; stroke-width: 0.7"/>
     </g>
     <g id="line2d_10">
      <g>
       <use xlink:href="#md40c6c4bca" x="337.056667" y="444.76" style="stroke: #000000; stroke-width: 0.8"/>
      </g>
     </g>
     <g id="text_5">
      <!-- 0.25 -->
      <g transform="translate(317.017604 465.437187) scale(0.18 -0.18)">
       <use xlink:href="#DejaVuSans-30"/>
       <use xlink:href="#DejaVuSans-2e" x="63.623047"/>
       <use xlink:href="#DejaVuSans-32" x="95.410156"/>
       <use xlink:href="#DejaVuSans-35" x="159.033203"/>
      </g>
     </g>
    </g>
    <g id="xtick_6">
     <g id="line2d_11">
      <path d="M 405.115833 444.76 
L 405.115833 32.64 
" clip-path="url(#p01a198edb3)" style="fill: none; stroke-dasharray: 2.59,1.12; stroke-dashoffset: 0; stroke: #b0b0b0; stroke-opacity: 0.7; stroke-width: 0.7"/>
     </g>
     <g id="line2d_12">
      <g>
       <use xlink:href="#md40c6c4bca" x="405.115833" y="444.76" style="stroke: #000000; stroke-width: 0.8"/>
      </g>
     </g>
     <g id="text_6">
      <!-- 0.50 -->
      <g transform="translate(385.076771 465.437187) scale(0.18 -0.18)">
       <use xlink:href="#DejaVuSans-30"/>
       <use xlink:href="#DejaVuSans-2e" x="63.623047"/>
       <use xlink:href="#DejaVuSans-35" x="95.410156"/>
       <use xlink:href="#DejaVuSans-30" x="159.033203"/>
      </g>
     </g>
    </g>
    <g id="xtick_7">
     <g id="line2d_13">
      <path d="M 473.175 444.76 
L 473.175 32.64 
" clip-path="url(#p01a198edb3)" style="fill: none; stroke-dasharray: 2.59,1.12; stroke-dashoffset: 0; stroke: #b0b0b0; stroke-opacity: 0.7; stroke-width: 0.7"/>
     </g>
     <g id="line2d_14">
      <g>
       <use xlink:href="#md40c6c4bca" x="473.175" y="444.76" style="stroke: #000000; stroke-width: 0.8"/>
      </g>
     </g>
     <g id="text_7">
      <!-- 0.75 -->
      <g transform="translate(453.135937 465.437187) scale(0.18 -0.18)">
       <use xlink:href="#DejaVuSans-30"/>
       <use xlink:href="#DejaVuSans-2e" x="63.623047"/>
       <use xlink:href="#DejaVuSans-37" x="95.410156"/>
       <use xlink:href="#DejaVuSans-35" x="159.033203"/>
      </g>
     </g>
    </g>
    <g id="text_8">
     <!-- pairwise correlation -->
     <g transform="translate(156.031875 488.3775) scale(0.2 -0.2)">
      <defs>
       <path id="DejaVuSans-Bold-70" d="M 1656 506 
L 1656 -1331 
L 538 -1331 
L 538 3500 
L 1656 3500 
L 1656 2988 
Q 1888 3294 2169 3439 
Q 2450 3584 2816 3584 
Q 3463 3584 3878 3070 
Q 4294 2556 4294 1747 
Q 4294 938 3878 423 
Q 3463 -91 2816 -91 
Q 2450 -91 2169 54 
Q 1888 200 1656 506 
z
M 2400 2772 
Q 2041 2772 1848 2508 
Q 1656 2244 1656 1747 
Q 1656 1250 1848 986 
Q 2041 722 2400 722 
Q 2759 722 2948 984 
Q 3138 1247 3138 1747 
Q 3138 2247 2948 2509 
Q 2759 2772 2400 2772 
z
" transform="scale(0.015625)"/>
       <path id="DejaVuSans-Bold-61" d="M 2106 1575 
Q 1756 1575 1579 1456 
Q 1403 1338 1403 1106 
Q 1403 894 1545 773 
Q 1688 653 1941 653 
Q 2256 653 2472 879 
Q 2688 1106 2688 1447 
L 2688 1575 
L 2106 1575 
z
M 3816 1997 
L 3816 0 
L 2688 0 
L 2688 519 
Q 2463 200 2181 54 
Q 1900 -91 1497 -91 
Q 953 -91 614 226 
Q 275 544 275 1050 
Q 275 1666 698 1953 
Q 1122 2241 2028 2241 
L 2688 2241 
L 2688 2328 
Q 2688 2594 2478 2717 
Q 2269 2841 1825 2841 
Q 1466 2841 1156 2769 
Q 847 2697 581 2553 
L 581 3406 
Q 941 3494 1303 3539 
Q 1666 3584 2028 3584 
Q 2975 3584 3395 3211 
Q 3816 2838 3816 1997 
z
" transform="scale(0.015625)"/>
       <path id="DejaVuSans-Bold-69" d="M 538 3500 
L 1656 3500 
L 1656 0 
L 538 0 
L 538 3500 
z
M 538 4863 
L 1656 4863 
L 1656 3950 
L 538 3950 
L 538 4863 
z
" transform="scale(0.015625)"/>
       <path id="DejaVuSans-Bold-72" d="M 3138 2547 
Q 2991 2616 2845 2648 
Q 2700 2681 2553 2681 
Q 2122 2681 1889 2404 
Q 1656 2128 1656 1613 
L 1656 0 
L 538 0 
L 538 3500 
L 1656 3500 
L 1656 2925 
Q 1872 3269 2151 3426 
Q 2431 3584 2822 3584 
Q 2878 3584 2943 3579 
Q 3009 3575 3134 3559 
L 3138 2547 
z
" transform="scale(0.015625)"/>
       <path id="DejaVuSans-Bold-77" d="M 225 3500 
L 1313 3500 
L 1900 1088 
L 2491 3500 
L 3425 3500 
L 4013 1113 
L 4603 3500 
L 5691 3500 
L 4769 0 
L 3547 0 
L 2956 2406 
L 2369 0 
L 1147 0 
L 225 3500 
z
" transform="scale(0.015625)"/>
       <path id="DejaVuSans-Bold-73" d="M 3272 3391 
L 3272 2541 
Q 2913 2691 2578 2766 
Q 2244 2841 1947 2841 
Q 1628 2841 1473 2761 
Q 1319 2681 1319 2516 
Q 1319 2381 1436 2309 
Q 1553 2238 1856 2203 
L 2053 2175 
Q 2913 2066 3209 1816 
Q 3506 1566 3506 1031 
Q 3506 472 3093 190 
Q 2681 -91 1863 -91 
Q 1516 -91 1145 -36 
Q 775 19 384 128 
L 384 978 
Q 719 816 1070 734 
Q 1422 653 1784 653 
Q 2113 653 2278 743 
Q 2444 834 2444 1013 
Q 2444 1163 2330 1236 
Q 2216 1309 1875 1350 
L 1678 1375 
Q 931 1469 631 1722 
Q 331 1975 331 2491 
Q 331 3047 712 3315 
Q 1094 3584 1881 3584 
Q 2191 3584 2531 3537 
Q 2872 3491 3272 3391 
z
" transform="scale(0.015625)"/>
       <path id="DejaVuSans-Bold-65" d="M 4031 1759 
L 4031 1441 
L 1416 1441 
Q 1456 1047 1700 850 
Q 1944 653 2381 653 
Q 2734 653 3104 758 
Q 3475 863 3866 1075 
L 3866 213 
Q 3469 63 3072 -14 
Q 2675 -91 2278 -91 
Q 1328 -91 801 392 
Q 275 875 275 1747 
Q 275 2603 792 3093 
Q 1309 3584 2216 3584 
Q 3041 3584 3536 3087 
Q 4031 2591 4031 1759 
z
M 2881 2131 
Q 2881 2450 2695 2645 
Q 2509 2841 2209 2841 
Q 1884 2841 1681 2658 
Q 1478 2475 1428 2131 
L 2881 2131 
z
" transform="scale(0.015625)"/>
       <path id="DejaVuSans-Bold-20" transform="scale(0.015625)"/>
       <path id="DejaVuSans-Bold-63" d="M 3366 3391 
L 3366 2478 
Q 3138 2634 2908 2709 
Q 2678 2784 2431 2784 
Q 1963 2784 1702 2511 
Q 1441 2238 1441 1747 
Q 1441 1256 1702 982 
Q 1963 709 2431 709 
Q 2694 709 2930 787 
Q 3166 866 3366 1019 
L 3366 103 
Q 3103 6 2833 -42 
Q 2563 -91 2291 -91 
Q 1344 -91 809 395 
Q 275 881 275 1747 
Q 275 2613 809 3098 
Q 1344 3584 2291 3584 
Q 2566 3584 2833 3536 
Q 3100 3488 3366 3391 
z
" transform="scale(0.015625)"/>
       <path id="DejaVuSans-Bold-6f" d="M 2203 2784 
Q 1831 2784 1636 2517 
Q 1441 2250 1441 1747 
Q 1441 1244 1636 976 
Q 1831 709 2203 709 
Q 2569 709 2762 976 
Q 2956 1244 2956 1747 
Q 2956 2250 2762 2517 
Q 2569 2784 2203 2784 
z
M 2203 3584 
Q 3106 3584 3614 3096 
Q 4122 2609 4122 1747 
Q 4122 884 3614 396 
Q 3106 -91 2203 -91 
Q 1297 -91 786 396 
Q 275 884 275 1747 
Q 275 2609 786 3096 
Q 1297 3584 2203 3584 
z
" transform="scale(0.015625)"/>
       <path id="DejaVuSans-Bold-6c" d="M 538 4863 
L 1656 4863 
L 1656 0 
L 538 0 
L 538 4863 
z
" transform="scale(0.015625)"/>
       <path id="DejaVuSans-Bold-74" d="M 1759 4494 
L 1759 3500 
L 2913 3500 
L 2913 2700 
L 1759 2700 
L 1759 1216 
Q 1759 972 1856 886 
Q 1953 800 2241 800 
L 2816 800 
L 2816 0 
L 1856 0 
Q 1194 0 917 276 
Q 641 553 641 1216 
L 641 2700 
L 84 2700 
L 84 3500 
L 641 3500 
L 641 4494 
L 1759 4494 
z
" transform="scale(0.015625)"/>
       <path id="DejaVuSans-Bold-6e" d="M 4056 2131 
L 4056 0 
L 2931 0 
L 2931 347 
L 2931 1631 
Q 2931 2084 2911 2256 
Q 2891 2428 2841 2509 
Q 2775 2619 2662 2680 
Q 2550 2741 2406 2741 
Q 2056 2741 1856 2470 
Q 1656 2200 1656 1722 
L 1656 0 
L 538 0 
L 538 3500 
L 1656 3500 
L 1656 2988 
Q 1909 3294 2193 3439 
Q 2478 3584 2822 3584 
Q 3428 3584 3742 3212 
Q 4056 2841 4056 2131 
z
" transform="scale(0.015625)"/>
      </defs>
      <use xlink:href="#DejaVuSans-Bold-70"/>
      <use xlink:href="#DejaVuSans-Bold-61" x="71.582031"/>
      <use xlink:href="#DejaVuSans-Bold-69" x="139.0625"/>
      <use xlink:href="#DejaVuSans-Bold-72" x="173.339844"/>
      <use xlink:href="#DejaVuSans-Bold-77" x="222.65625"/>
      <use xlink:href="#DejaVuSans-Bold-69" x="315.039062"/>
      <use xlink:href="#DejaVuSans-Bold-73" x="349.316406"/>
      <use xlink:href="#DejaVuSans-Bold-65" x="408.837891"/>
      <use xlink:href="#DejaVuSans-Bold-20" x="476.660156"/>
      <use xlink:href="#DejaVuSans-Bold-63" x="511.474609"/>
      <use xlink:href="#DejaVuSans-Bold-6f" x="570.751953"/>
      <use xlink:href="#DejaVuSans-Bold-72" x="639.453125"/>
      <use xlink:href="#DejaVuSans-Bold-72" x="688.769531"/>
      <use xlink:href="#DejaVuSans-Bold-65" x="738.085938"/>
      <use xlink:href="#DejaVuSans-Bold-6c" x="805.908203"/>
      <use xlink:href="#DejaVuSans-Bold-61" x="840.185547"/>
      <use xlink:href="#DejaVuSans-Bold-74" x="907.666016"/>
      <use xlink:href="#DejaVuSans-Bold-69" x="955.46875"/>
      <use xlink:href="#DejaVuSans-Bold-6f" x="989.746094"/>
      <use xlink:href="#DejaVuSans-Bold-6e" x="1058.447266"/>
     </g>
    </g>
   </g>
   <g id="matplotlib.axis_2">
    <g id="ytick_1">
     <g id="line2d_15">
      <path d="M 64.82 444.76 
L 473.175 444.76 
" clip-path="url(#p01a198edb3)" style="fill: none; stroke-dasharray: 2.59,1.12; stroke-dashoffset: 0; stroke: #b0b0b0; stroke-opacity: 0.7; stroke-width: 0.7"/>
     </g>
     <g id="line2d_16">
      <defs>
       <path id="m9e8c0fa54e" d="M 0 0 
L -3.5 0 
" style="stroke: #000000; stroke-width: 0.8"/>
      </defs>
      <g>
       <use xlink:href="#m9e8c0fa54e" x="64.82" y="444.76" style="stroke: #000000; stroke-width: 0.8"/>
      </g>
     </g>
     <g id="text_9">
      <!-- 0 -->
      <g transform="translate(46.3675 451.598594) scale(0.18 -0.18)">
       <use xlink:href="#DejaVuSans-30"/>
      </g>
     </g>
    </g>
    <g id="ytick_2">
     <g id="line2d_17">
      <path d="M 64.82 362.917231 
L 473.175 362.917231 
" clip-path="url(#p01a198edb3)" style="fill: none; stroke-dasharray: 2.59,1.12; stroke-dashoffset: 0; stroke: #b0b0b0; stroke-opacity: 0.7; stroke-width: 0.7"/>
     </g>
     <g id="line2d_18">
      <g>
       <use xlink:href="#m9e8c0fa54e" x="64.82" y="362.917231" style="stroke: #000000; stroke-width: 0.8"/>
      </g>
     </g>
     <g id="text_10">
      <!-- 5 -->
      <g transform="translate(46.3675 369.755825) scale(0.18 -0.18)">
       <use xlink:href="#DejaVuSans-35"/>
      </g>
     </g>
    </g>
    <g id="ytick_3">
     <g id="line2d_19">
      <path d="M 64.82 281.074462 
L 473.175 281.074462 
" clip-path="url(#p01a198edb3)" style="fill: none; stroke-dasharray: 2.59,1.12; stroke-dashoffset: 0; stroke: #b0b0b0; stroke-opacity: 0.7; stroke-width: 0.7"/>
     </g>
     <g id="line2d_20">
      <g>
       <use xlink:href="#m9e8c0fa54e" x="64.82" y="281.074462" style="stroke: #000000; stroke-width: 0.8"/>
      </g>
     </g>
     <g id="text_11">
      <!-- 10 -->
      <g transform="translate(34.915 287.913056) scale(0.18 -0.18)">
       <defs>
        <path id="DejaVuSans-31" d="M 794 531 
L 1825 531 
L 1825 4091 
L 703 3866 
L 703 4441 
L 1819 4666 
L 2450 4666 
L 2450 531 
L 3481 531 
L 3481 0 
L 794 0 
L 794 531 
z
" transform="scale(0.015625)"/>
       </defs>
       <use xlink:href="#DejaVuSans-31"/>
       <use xlink:href="#DejaVuSans-30" x="63.623047"/>
      </g>
     </g>
    </g>
    <g id="ytick_4">
     <g id="line2d_21">
      <path d="M 64.82 199.231693 
L 473.175 199.231693 
" clip-path="url(#p01a198edb3)" style="fill: none; stroke-dasharray: 2.59,1.12; stroke-dashoffset: 0; stroke: #b0b0b0; stroke-opacity: 0.7; stroke-width: 0.7"/>
     </g>
     <g id="line2d_22">
      <g>
       <use xlink:href="#m9e8c0fa54e" x="64.82" y="199.231693" style="stroke: #000000; stroke-width: 0.8"/>
      </g>
     </g>
     <g id="text_12">
      <!-- 15 -->
      <g transform="translate(34.915 206.070287) scale(0.18 -0.18)">
       <use xlink:href="#DejaVuSans-31"/>
       <use xlink:href="#DejaVuSans-35" x="63.623047"/>
      </g>
     </g>
    </g>
    <g id="ytick_5">
     <g id="line2d_23">
      <path d="M 64.82 117.388924 
L 473.175 117.388924 
" clip-path="url(#p01a198edb3)" style="fill: none; stroke-dasharray: 2.59,1.12; stroke-dashoffset: 0; stroke: #b0b0b0; stroke-opacity: 0.7; stroke-width: 0.7"/>
     </g>
     <g id="line2d_24">
      <g>
       <use xlink:href="#m9e8c0fa54e" x="64.82" y="117.388924" style="stroke: #000000; stroke-width: 0.8"/>
      </g>
     </g>
     <g id="text_13">
      <!-- 20 -->
      <g transform="translate(34.915 124.227518) scale(0.18 -0.18)">
       <use xlink:href="#DejaVuSans-32"/>
       <use xlink:href="#DejaVuSans-30" x="63.623047"/>
      </g>
     </g>
    </g>
    <g id="ytick_6">
     <g id="line2d_25">
      <path d="M 64.82 35.546155 
L 473.175 35.546155 
" clip-path="url(#p01a198edb3)" style="fill: none; stroke-dasharray: 2.59,1.12; stroke-dashoffset: 0; stroke: #b0b0b0; stroke-opacity: 0.7; stroke-width: 0.7"/>
     </g>
     <g id="line2d_26">
      <g>
       <use xlink:href="#m9e8c0fa54e" x="64.82" y="35.546155" style="stroke: #000000; stroke-width: 0.8"/>
      </g>
     </g>
     <g id="text_14">
      <!-- 25 -->
      <g transform="translate(34.915 42.384749) scale(0.18 -0.18)">
       <use xlink:href="#DejaVuSans-32"/>
       <use xlink:href="#DejaVuSans-35" x="63.623047"/>
      </g>
     </g>
    </g>
    <g id="text_15">
     <!-- density -->
     <g transform="translate(26.599375 280.4375) rotate(-90) scale(0.2 -0.2)">
      <defs>
       <path id="DejaVuSans-Bold-64" d="M 2919 2988 
L 2919 4863 
L 4044 4863 
L 4044 0 
L 2919 0 
L 2919 506 
Q 2688 197 2409 53 
Q 2131 -91 1766 -91 
Q 1119 -91 703 423 
Q 288 938 288 1747 
Q 288 2556 703 3070 
Q 1119 3584 1766 3584 
Q 2128 3584 2408 3439 
Q 2688 3294 2919 2988 
z
M 2181 722 
Q 2541 722 2730 984 
Q 2919 1247 2919 1747 
Q 2919 2247 2730 2509 
Q 2541 2772 2181 2772 
Q 1825 2772 1636 2509 
Q 1447 2247 1447 1747 
Q 1447 1247 1636 984 
Q 1825 722 2181 722 
z
" transform="scale(0.015625)"/>
       <path id="DejaVuSans-Bold-79" d="M 78 3500 
L 1197 3500 
L 2138 1125 
L 2938 3500 
L 4056 3500 
L 2584 -331 
Q 2363 -916 2067 -1148 
Q 1772 -1381 1288 -1381 
L 641 -1381 
L 641 -647 
L 991 -647 
Q 1275 -647 1404 -556 
Q 1534 -466 1606 -231 
L 1638 -134 
L 78 3500 
z
" transform="scale(0.015625)"/>
      </defs>
      <use xlink:href="#DejaVuSans-Bold-64"/>
      <use xlink:href="#DejaVuSans-Bold-65" x="71.582031"/>
      <use xlink:href="#DejaVuSans-Bold-6e" x="139.404297"/>
      <use xlink:href="#DejaVuSans-Bold-73" x="210.595703"/>
      <use xlink:href="#DejaVuSans-Bold-69" x="270.117188"/>
      <use xlink:href="#DejaVuSans-Bold-74" x="304.394531"/>
      <use xlink:href="#DejaVuSans-Bold-79" x="352.197266"/>
     </g>
    </g>
   </g>
   <g id="text_16">
    <!-- Latent space -->
    <g transform="translate(196.36625 26.64) scale(0.2 -0.2)">
     <defs>
      <path id="DejaVuSans-Bold-4c" d="M 588 4666 
L 1791 4666 
L 1791 909 
L 3903 909 
L 3903 0 
L 588 0 
L 588 4666 
z
" transform="scale(0.015625)"/>
     </defs>
     <use xlink:href="#DejaVuSans-Bold-4c"/>
     <use xlink:href="#DejaVuSans-Bold-61" x="63.720703"/>
     <use xlink:href="#DejaVuSans-Bold-74" x="131.201172"/>
     <use xlink:href="#DejaVuSans-Bold-65" x="179.003906"/>
     <use xlink:href="#DejaVuSans-Bold-6e" x="246.826172"/>
     <use xlink:href="#DejaVuSans-Bold-74" x="318.017578"/>
     <use xlink:href="#DejaVuSans-Bold-20" x="365.820312"/>
     <use xlink:href="#DejaVuSans-Bold-73" x="400.634766"/>
     <use xlink:href="#DejaVuSans-Bold-70" x="460.15625"/>
     <use xlink:href="#DejaVuSans-Bold-61" x="531.738281"/>
     <use xlink:href="#DejaVuSans-Bold-63" x="599.21875"/>
     <use xlink:href="#DejaVuSans-Bold-65" x="658.496094"/>
    </g>
   </g>
   <g id="legend_1">
    <g id="patch_101">
     <path d="M 326.578125 107.3525 
L 459.175 107.3525 
Q 463.175 107.3525 463.175 103.3525 
L 463.175 46.64 
Q 463.175 42.64 459.175 42.64 
L 326.578125 42.64 
Q 322.578125 42.64 322.578125 46.64 
L 322.578125 103.3525 
Q 322.578125 107.3525 326.578125 107.3525 
z
" style="fill: #ffffff; opacity: 0.8; stroke: #cccccc; stroke-linejoin: miter"/>
    </g>
    <g id="patch_102">
     <path d="M 330.578125 65.836875 
L 370.578125 65.836875 
L 370.578125 51.836875 
L 330.578125 51.836875 
z
" style="fill: #f28e2b; opacity: 0.65; stroke: #000000; stroke-linejoin: miter"/>
    </g>
    <g id="text_17">
     <!-- Dense -->
     <g transform="translate(386.578125 65.836875) scale(0.2 -0.2)">
      <defs>
       <path id="DejaVuSans-44" d="M 1259 4147 
L 1259 519 
L 2022 519 
Q 2988 519 3436 956 
Q 3884 1394 3884 2338 
Q 3884 3275 3436 3711 
Q 2988 4147 2022 4147 
L 1259 4147 
z
M 628 4666 
L 1925 4666 
Q 3281 4666 3915 4102 
Q 4550 3538 4550 2338 
Q 4550 1131 3912 565 
Q 3275 0 1925 0 
L 628 0 
L 628 4666 
z
" transform="scale(0.015625)"/>
       <path id="DejaVuSans-65" d="M 3597 1894 
L 3597 1613 
L 953 1613 
Q 991 1019 1311 708 
Q 1631 397 2203 397 
Q 2534 397 2845 478 
Q 3156 559 3463 722 
L 3463 178 
Q 3153 47 2828 -22 
Q 2503 -91 2169 -91 
Q 1331 -91 842 396 
Q 353 884 353 1716 
Q 353 2575 817 3079 
Q 1281 3584 2069 3584 
Q 2775 3584 3186 3129 
Q 3597 2675 3597 1894 
z
M 3022 2063 
Q 3016 2534 2758 2815 
Q 2500 3097 2075 3097 
Q 1594 3097 1305 2825 
Q 1016 2553 972 2059 
L 3022 2063 
z
" transform="scale(0.015625)"/>
       <path id="DejaVuSans-6e" d="M 3513 2113 
L 3513 0 
L 2938 0 
L 2938 2094 
Q 2938 2591 2744 2837 
Q 2550 3084 2163 3084 
Q 1697 3084 1428 2787 
Q 1159 2491 1159 1978 
L 1159 0 
L 581 0 
L 581 3500 
L 1159 3500 
L 1159 2956 
Q 1366 3272 1645 3428 
Q 1925 3584 2291 3584 
Q 2894 3584 3203 3211 
Q 3513 2838 3513 2113 
z
" transform="scale(0.015625)"/>
       <path id="DejaVuSans-73" d="M 2834 3397 
L 2834 2853 
Q 2591 2978 2328 3040 
Q 2066 3103 1784 3103 
Q 1356 3103 1142 2972 
Q 928 2841 928 2578 
Q 928 2378 1081 2264 
Q 1234 2150 1697 2047 
L 1894 2003 
Q 2506 1872 2764 1633 
Q 3022 1394 3022 966 
Q 3022 478 2636 193 
Q 2250 -91 1575 -91 
Q 1294 -91 989 -36 
Q 684 19 347 128 
L 347 722 
Q 666 556 975 473 
Q 1284 391 1588 391 
Q 1994 391 2212 530 
Q 2431 669 2431 922 
Q 2431 1156 2273 1281 
Q 2116 1406 1581 1522 
L 1381 1569 
Q 847 1681 609 1914 
Q 372 2147 372 2553 
Q 372 3047 722 3315 
Q 1072 3584 1716 3584 
Q 2034 3584 2315 3537 
Q 2597 3491 2834 3397 
z
" transform="scale(0.015625)"/>
      </defs>
      <use xlink:href="#DejaVuSans-44"/>
      <use xlink:href="#DejaVuSans-65" x="77.001953"/>
      <use xlink:href="#DejaVuSans-6e" x="138.525391"/>
      <use xlink:href="#DejaVuSans-73" x="201.904297"/>
      <use xlink:href="#DejaVuSans-65" x="254.003906"/>
     </g>
    </g>
    <g id="patch_103">
     <path d="M 330.578125 95.193125 
L 370.578125 95.193125 
L 370.578125 81.193125 
L 330.578125 81.193125 
z
" style="fill: #4e79a7; opacity: 0.65; stroke: #000000; stroke-linejoin: miter"/>
    </g>
    <g id="text_18">
     <!-- Sparse -->
     <g transform="translate(386.578125 95.193125) scale(0.2 -0.2)">
      <defs>
       <path id="DejaVuSans-53" d="M 3425 4513 
L 3425 3897 
Q 3066 4069 2747 4153 
Q 2428 4238 2131 4238 
Q 1616 4238 1336 4038 
Q 1056 3838 1056 3469 
Q 1056 3159 1242 3001 
Q 1428 2844 1947 2747 
L 2328 2669 
Q 3034 2534 3370 2195 
Q 3706 1856 3706 1288 
Q 3706 609 3251 259 
Q 2797 -91 1919 -91 
Q 1588 -91 1214 -16 
Q 841 59 441 206 
L 441 856 
Q 825 641 1194 531 
Q 1563 422 1919 422 
Q 2459 422 2753 634 
Q 3047 847 3047 1241 
Q 3047 1584 2836 1778 
Q 2625 1972 2144 2069 
L 1759 2144 
Q 1053 2284 737 2584 
Q 422 2884 422 3419 
Q 422 4038 858 4394 
Q 1294 4750 2059 4750 
Q 2388 4750 2728 4690 
Q 3069 4631 3425 4513 
z
" transform="scale(0.015625)"/>
       <path id="DejaVuSans-70" d="M 1159 525 
L 1159 -1331 
L 581 -1331 
L 581 3500 
L 1159 3500 
L 1159 2969 
Q 1341 3281 1617 3432 
Q 1894 3584 2278 3584 
Q 2916 3584 3314 3078 
Q 3713 2572 3713 1747 
Q 3713 922 3314 415 
Q 2916 -91 2278 -91 
Q 1894 -91 1617 61 
Q 1341 213 1159 525 
z
M 3116 1747 
Q 3116 2381 2855 2742 
Q 2594 3103 2138 3103 
Q 1681 3103 1420 2742 
Q 1159 2381 1159 1747 
Q 1159 1113 1420 752 
Q 1681 391 2138 391 
Q 2594 391 2855 752 
Q 3116 1113 3116 1747 
z
" transform="scale(0.015625)"/>
       <path id="DejaVuSans-61" d="M 2194 1759 
Q 1497 1759 1228 1600 
Q 959 1441 959 1056 
Q 959 750 1161 570 
Q 1363 391 1709 391 
Q 2188 391 2477 730 
Q 2766 1069 2766 1631 
L 2766 1759 
L 2194 1759 
z
M 3341 1997 
L 3341 0 
L 2766 0 
L 2766 531 
Q 2569 213 2275 61 
Q 1981 -91 1556 -91 
Q 1019 -91 701 211 
Q 384 513 384 1019 
Q 384 1609 779 1909 
Q 1175 2209 1959 2209 
L 2766 2209 
L 2766 2266 
Q 2766 2663 2505 2880 
Q 2244 3097 1772 3097 
Q 1472 3097 1187 3025 
Q 903 2953 641 2809 
L 641 3341 
Q 956 3463 1253 3523 
Q 1550 3584 1831 3584 
Q 2591 3584 2966 3190 
Q 3341 2797 3341 1997 
z
" transform="scale(0.015625)"/>
       <path id="DejaVuSans-72" d="M 2631 2963 
Q 2534 3019 2420 3045 
Q 2306 3072 2169 3072 
Q 1681 3072 1420 2755 
Q 1159 2438 1159 1844 
L 1159 0 
L 581 0 
L 581 3500 
L 1159 3500 
L 1159 2956 
Q 1341 3275 1631 3429 
Q 1922 3584 2338 3584 
Q 2397 3584 2469 3576 
Q 2541 3569 2628 3553 
L 2631 2963 
z
" transform="scale(0.015625)"/>
      </defs>
      <use xlink:href="#DejaVuSans-53"/>
      <use xlink:href="#DejaVuSans-70" x="63.476562"/>
      <use xlink:href="#DejaVuSans-61" x="126.953125"/>
      <use xlink:href="#DejaVuSans-72" x="188.232422"/>
      <use xlink:href="#DejaVuSans-73" x="229.345703"/>
      <use xlink:href="#DejaVuSans-65" x="281.445312"/>
     </g>
    </g>
   </g>
  </g>
 </g>
 <defs>
  <clipPath id="p01a198edb3">
   <rect x="64.82" y="32.64" width="408.355" height="412.12"/>
  </clipPath>
 </defs>
</svg>
