<?xml version="1.0" encoding="utf-8" standalone="no"?>
<!DOCTYPE svg PUBLIC "-//W3C//DTD SVG 1.1//EN"
  "http://www.w3.org/Graphics/SVG/1.1/DTD/svg11.dtd">
<svg xmlns:xlink="http://www.w3.org/1999/xlink" width="1152pt" height="360pt" viewBox="0 0 1152 360" xmlns="http://www.w3.org/2000/svg" version="1.1">
 <metadata>
  <rdf:RDF xmlns:dc="http://purl.org/dc/elements/1.1/" xmlns:cc="http://creativecommons.org/ns#" xmlns:rdf="http://www.w3.org/1999/02/22-rdf-syntax-ns#">
   <cc:Work>
    <dc:type rdf:resource="http://purl.org/dc/dcmitype/StillImage"/>
    <dc:date>2024-05-17T12:12:50.570264</dc:date>
    <dc:format>image/svg+xml</dc:format>
    <dc:creator>
     <cc:Agent>
      <dc:title>Matplotlib v3.7.0, https://matplotlib.org/</dc:title>
     </cc:Agent>
    </dc:creator>
   </cc:Work>
  </rdf:RDF>
 </metadata>
 <defs>
  <style type="text/css">*{stroke-linejoin: round; stroke-linecap: butt}</style>
 </defs>
 <g id="figure_1">
  <g id="patch_1">
   <path d="M 0 360 
L 1152 360 
L 1152 0 
L 0 0 
z
" style="fill: #ffffff"/>
  </g>
  <g id="axes_1">
   <g id="patch_2">
    <path d="M 214.272 333.818182 
L 327.312 333.818182 
L 327.312 26.181818 
L 214.272 26.181818 
z
" clip-path="url(#pd0469441ba)" style="fill: #add8e6; stroke: #add8e6; stroke-width: 3.5; stroke-linejoin: miter"/>
   </g>
   <g id="patch_3">
    <path d="M 417.744 333.818182 
L 530.784 333.818182 
L 530.784 26.181818 
L 417.744 26.181818 
z
" clip-path="url(#pd0469441ba)" style="fill: #add8e6; stroke: #add8e6; stroke-width: 3.5; stroke-linejoin: miter"/>
   </g>
   <g id="patch_4">
    <path d="M 621.216 333.818182 
L 734.256 333.818182 
L 734.256 26.181818 
L 621.216 26.181818 
z
" clip-path="url(#pd0469441ba)" style="fill: #add8e6; stroke: #add8e6; stroke-width: 3.5; stroke-linejoin: miter"/>
   </g>
   <g id="patch_5">
    <path d="M 824.688 333.818182 
L 937.728 333.818182 
L 937.728 26.181818 
L 824.688 26.181818 
z
" clip-path="url(#pd0469441ba)" style="fill: #add8e6; stroke: #add8e6; stroke-width: 3.5; stroke-linejoin: miter"/>
   </g>
   <g id="line2d_1">
    <path d="M 10.8 179.275154 
L 21.879028 108.840032 
L 24.140054 96.486152 
L 26.061926 87.159842 
L 27.757696 80.0234 
L 29.227363 74.793385 
L 30.470927 71.136892 
L 31.60144 68.474579 
L 32.618902 66.651074 
L 33.410261 65.625574 
L 34.20162 64.956404 
L 34.879928 64.674444 
L 35.445185 64.64973 
L 36.010441 64.819535 
L 36.688749 65.284044 
L 37.367057 66.037006 
L 38.158416 67.284724 
L 39.062826 69.202761 
L 39.967237 71.649412 
L 40.984698 75.035181 
L 42.115212 79.580164 
L 43.358776 85.518772 
L 44.715392 93.089852 
L 46.29811 103.298428 
L 47.993879 115.760778 
L 49.915752 131.571462 
L 52.289829 153.103188 
L 55.568317 185.11534 
L 60.429523 232.519595 
L 62.690549 252.307066 
L 64.49937 266.192331 
L 65.969037 275.844415 
L 67.212601 282.6801 
L 68.343114 287.71798 
L 69.247525 290.880127 
L 70.038884 292.979807 
L 70.717192 294.265298 
L 71.282448 294.964204 
L 71.847705 295.317904 
L 72.29991 295.348751 
L 72.752115 295.153071 
L 73.20432 294.729091 
L 73.769577 293.876104 
L 74.447885 292.376875 
L 75.239244 289.971671 
L 76.143654 286.362544 
L 77.161116 281.221686 
L 78.291629 274.205499 
L 79.535194 264.976224 
L 80.891809 253.232998 
L 82.474527 237.572232 
L 84.3964 216.237455 
L 87.109631 183.30346 
L 91.857786 125.442089 
L 93.779658 104.977724 
L 95.249325 91.496271 
L 96.492889 81.915489 
L 97.623402 74.870408 
L 98.527813 70.484045 
L 99.319172 67.615263 
L 99.99748 65.906562 
L 100.562736 65.026622 
L 101.014941 64.68526 
L 101.354095 64.64315 
L 101.693249 64.785712 
L 102.145455 65.264517 
L 102.59766 66.074359 
L 103.162916 67.552481 
L 103.841224 70.006907 
L 104.632583 73.79883 
L 105.536994 79.330328 
L 106.554455 87.02353 
L 107.684968 97.28847 
L 109.041584 111.765882 
L 110.624302 131.179201 
L 112.659226 159.058587 
L 118.877048 246.327846 
L 120.346715 263.105916 
L 121.590279 275.019407 
L 122.607741 282.935967 
L 123.512151 288.438405 
L 124.30351 291.984643 
L 124.981818 294.03791 
L 125.547075 295.032603 
L 125.99928 295.35094 
L 126.338434 295.308353 
L 126.677588 295.023275 
L 127.129793 294.264909 
L 127.69505 292.709156 
L 128.260306 290.481468 
L 128.938614 286.932207 
L 129.729973 281.61091 
L 130.634383 274.032999 
L 131.764896 262.461741 
L 133.008461 247.320643 
L 134.591179 225.038192 
L 136.739154 191.1713 
L 141.035104 122.607903 
L 142.617822 101.239414 
L 143.861386 87.24684 
L 144.878848 78.030001 
L 145.783258 71.734035 
L 146.574617 67.803181 
L 147.139874 65.939959 
L 147.592079 65.031738 
L 147.931233 64.695345 
L 148.270387 64.657049 
L 148.609541 64.918345 
L 148.948695 65.479948 
L 149.4009 66.695653 
L 149.966157 68.961876 
L 150.644464 72.762012 
L 151.435824 78.646831 
L 152.340234 87.199575 
L 153.357696 98.9804 
L 154.60126 116.114004 
L 156.183978 141.381477 
L 158.558056 183.485192 
L 161.49739 234.863999 
L 162.967057 256.979605 
L 164.210621 272.512062 
L 165.228083 282.54384 
L 166.019442 288.465493 
L 166.69775 292.133216 
L 167.263006 294.152964 
L 167.715212 295.072335 
L 168.054365 295.349698 
L 168.280468 295.336919 
L 168.619622 295.020135 
L 168.958776 294.345814 
L 169.410981 292.891711 
L 169.976238 290.189047 
L 170.654545 285.67092 
L 171.445905 278.701132 
L 172.350315 268.624324 
L 173.480828 253.167948 
L 174.837444 231.114661 
L 176.646265 197.588537 
L 180.829163 118.416304 
L 182.185779 97.406255 
L 183.316292 83.259286 
L 184.220702 74.576341 
L 185.012061 69.112112 
L 185.577318 66.502976 
L 186.029523 65.218593 
L 186.368677 64.731901 
L 186.594779 64.636399 
L 186.820882 64.724851 
L 187.160036 65.203116 
L 187.49919 66.095901 
L 187.951395 67.928122 
L 188.516652 71.237887 
L 189.194959 76.668885 
L 189.986319 84.929769 
L 190.890729 96.725332 
L 192.021242 114.574747 
L 193.490909 141.832654 
L 195.864986 190.980732 
L 198.126013 236.404871 
L 199.482628 259.633106 
L 200.613141 275.293226 
L 201.517552 284.860138 
L 202.19586 290.104884 
L 202.761116 293.130432 
L 203.213321 294.639411 
L 203.552475 295.229161 
L 203.778578 295.361764 
L 204.00468 295.284978 
L 204.343834 294.776465 
L 204.682988 293.796396 
L 205.135194 291.760338 
L 205.70045 288.059496 
L 206.378758 281.971152 
L 207.170117 272.711417 
L 208.074527 259.523729 
L 209.205041 239.681843 
L 210.674707 209.718238 
L 215.535914 106.854922 
L 216.666427 88.962401 
L 217.570837 77.814756 
L 218.362196 70.704793 
L 218.927453 67.255293 
L 219.379658 65.514749 
L 219.718812 64.816465 
L 219.944914 64.643063 
L 220.171017 64.704479 
L 220.39712 65.001135 
L 220.736274 65.886942 
L 221.188479 67.88678 
L 221.753735 71.6841 
L 222.432043 78.087897 
L 223.223402 87.968472 
L 224.127813 102.149232 
L 225.258326 123.539995 
L 226.841044 158.339005 
L 230.684788 245.289293 
L 231.815302 265.596132 
L 232.719712 278.553418 
L 233.511071 287.069401 
L 234.189379 292.066907 
L 234.641584 294.15489 
L 234.980738 295.050231 
L 235.319892 295.363279 
L 235.545995 295.246614 
L 235.772097 294.869206 
L 236.111251 293.814966 
L 236.563456 291.504272 
L 237.128713 287.186196 
L 237.807021 279.980434 
L 238.59838 268.957375 
L 239.615842 251.103467 
L 240.859406 224.768419 
L 242.781278 178.387895 
L 245.155356 121.973862 
L 246.39892 97.456478 
L 247.416382 81.740164 
L 248.207741 72.79671 
L 248.886049 67.66511 
L 249.338254 65.614615 
L 249.677408 64.815475 
L 249.90351 64.638413 
L 250.129613 64.747231 
L 250.355716 65.142264 
L 250.694869 66.270449 
L 251.147075 68.766944 
L 251.712331 73.451899 
L 252.390639 81.279809 
L 253.181998 93.243341 
L 254.19946 112.553908 
L 255.443024 140.833306 
L 257.817102 201.489798 
L 259.625923 244.820417 
L 260.756436 266.944034 
L 261.660846 280.626273 
L 262.339154 288.130381 
L 262.90441 292.415087 
L 263.356616 294.493721 
L 263.69577 295.246741 
L 263.921872 295.360865 
L 264.147975 295.16346 
L 264.487129 294.283248 
L 264.826283 292.705305 
L 265.278488 289.529642 
L 265.843744 283.881646 
L 266.522052 274.761405 
L 267.313411 261.162529 
L 268.330873 239.684882 
L 269.687489 205.985499 
L 273.418182 110.192942 
L 274.435644 90.298463 
L 275.227003 78.330143 
L 275.905311 70.892801 
L 276.470567 66.848552 
L 276.922772 65.085141 
L 277.261926 64.639358 
L 277.488029 64.762993 
L 277.714131 65.223776 
L 278.053285 66.545318 
L 278.505491 69.472629 
L 279.070747 74.960595 
L 279.749055 84.102965 
L 280.540414 97.999308 
L 281.557876 120.215207 
L 282.914491 155.290652 
L 286.419082 248.868192 
L 287.436544 269.623308 
L 288.227903 281.995347 
L 288.906211 289.551723 
L 289.471467 293.520032 
L 289.810621 294.84281 
L 290.149775 295.356631 
L 290.375878 295.246598 
L 290.60198 294.773942 
L 290.941134 293.387121 
L 291.393339 290.285977 
L 291.958596 284.448128 
L 292.636904 274.710896 
L 293.428263 259.924301 
L 294.445725 236.366672 
L 295.915392 196.219244 
L 298.854725 114.646713 
L 299.872187 92.50217 
L 300.663546 79.214063 
L 301.341854 71.047373 
L 301.907111 66.72012 
L 302.359316 64.956534 
L 302.585419 64.652163 
L 302.811521 64.735473 
L 303.037624 65.20689 
L 303.376778 66.639423 
L 303.828983 69.888605 
L 304.394239 76.044596 
L 305.072547 86.338892 
L 305.863906 101.970455 
L 306.881368 126.805122 
L 308.351035 168.800128 
L 310.951215 243.440023 
L 311.968677 266.626086 
L 312.760036 280.508066 
L 313.438344 288.979884 
L 314.0036 293.396649 
L 314.342754 294.840806 
L 314.568857 295.291332 
L 314.794959 295.329119 
L 315.021062 294.953306 
L 315.360216 293.615847 
L 315.812421 290.40323 
L 316.377678 284.151488 
L 317.055986 273.549246 
L 317.847345 257.331315 
L 318.864806 231.490475 
L 320.447525 184.400668 
L 322.708551 117.622391 
L 323.726013 93.583936 
L 324.517372 79.285785 
L 325.19568 70.678718 
L 325.760936 66.32307 
L 326.10009 64.99417 
L 326.326193 64.653261 
L 326.552295 64.750999 
L 326.778398 65.287761 
L 327.117552 66.912783 
L 327.569757 70.589921 
L 328.135014 77.538351 
L 328.813321 89.112748 
L 329.60468 106.582316 
L 330.622142 134.056868 
L 332.430963 190.406178 
L 334.239784 244.424078 
L 335.257246 268.618708 
L 336.048605 282.652459 
L 336.726913 290.738879 
L 337.179118 293.936836 
L 337.518272 295.139525 
L 337.744374 295.363567 
L 337.970477 295.123186 
L 338.19658 294.41858 
L 338.535734 292.496294 
L 338.987939 288.343492 
L 339.553195 280.688785 
L 340.231503 268.140017 
L 341.135914 246.45199 
L 342.266427 213.372975 
L 345.884068 102.413937 
L 346.788479 83.123971 
L 347.466787 72.832741 
L 348.032043 67.334076 
L 348.484248 65.067626 
L 348.710351 64.662646 
L 348.823402 64.643652 
L 349.049505 64.973256 
L 349.275608 65.792256 
L 349.614761 67.931906 
L 350.066967 72.455065 
L 350.632223 80.687724 
L 351.310531 94.063665 
L 352.214941 116.985816 
L 353.458506 155.285554 
L 356.510891 252.271757 
L 357.415302 273.354019 
L 358.093609 284.945049 
L 358.658866 291.439074 
L 359.111071 294.418571 
L 359.450225 295.31883 
L 359.563276 295.361859 
L 359.789379 295.061218 
L 360.015482 294.245662 
L 360.354635 292.063706 
L 360.806841 287.398024 
L 361.372097 278.858409 
L 362.050405 264.952244 
L 362.954815 241.129479 
L 364.19838 201.484741 
L 366.911611 112.396445 
L 367.816022 89.747865 
L 368.607381 75.317064 
L 369.172637 68.601241 
L 369.624842 65.553278 
L 369.963996 64.668197 
L 370.077048 64.643028 
L 370.30315 64.998513 
L 370.529253 65.894138 
L 370.868407 68.242251 
L 371.320612 73.210814 
L 371.885869 82.245497 
L 372.564176 96.880963 
L 373.468587 121.806969 
L 374.825203 166.879713 
L 377.19928 246.548604 
L 378.10369 269.903628 
L 378.781998 282.966193 
L 379.347255 290.442561 
L 379.79946 294.012542 
L 380.138614 295.229929 
L 380.364716 295.335911 
L 380.590819 294.875401 
L 380.929973 293.126314 
L 381.382178 288.847985 
L 381.947435 280.489129 
L 382.625743 266.379795 
L 383.417102 245.084084 
L 384.547615 208.110325 
L 387.6 104.619023 
L 388.50441 83.096702 
L 389.182718 72.003614 
L 389.634923 67.324858 
L 389.974077 65.320636 
L 390.20018 64.716888 
L 390.313231 64.636502 
L 390.426283 64.70412 
L 390.652385 65.283269 
L 390.991539 67.256399 
L 391.443744 71.913848 
L 392.009001 80.859004 
L 392.687309 95.795674 
L 393.591719 121.693837 
L 394.835284 164.759236 
L 397.209361 247.877936 
L 398.113771 271.797018 
L 398.792079 284.770955 
L 399.357336 291.795201 
L 399.809541 294.749807 
L 400.035644 295.311491 
L 400.148695 295.361189 
L 400.261746 295.256487 
L 400.487849 294.5842 
L 400.827003 292.425208 
L 401.279208 287.439055 
L 401.844464 277.969277 
L 402.522772 262.276738 
L 403.427183 235.267863 
L 404.783798 186.558181 
L 406.818722 113.951628 
L 407.723132 89.154196 
L 408.40144 75.668269 
L 408.966697 68.356363 
L 409.418902 65.277563 
L 409.645005 64.691258 
L 409.758056 64.638785 
L 409.871107 64.747088 
L 410.09721 65.445649 
L 410.436364 67.691089 
L 410.888569 72.876675 
L 411.453825 82.718002 
L 412.132133 99.000374 
L 413.036544 126.937356 
L 414.393159 176.971545 
L 416.315032 246.636923 
L 417.219442 271.702844 
L 417.89775 285.133681 
L 418.463006 292.209879 
L 418.80216 294.52999 
L 419.028263 295.25097 
L 419.141314 295.361462 
L 419.254365 295.30484 
L 419.480468 294.690365 
L 419.819622 292.522336 
L 420.271827 287.34946 
L 420.837084 277.385158 
L 421.515392 260.776284 
L 422.419802 232.184202 
L 423.889469 176.598064 
L 425.585239 114.197915 
L 426.489649 88.512228 
L 427.167957 74.806476 
L 427.733213 67.661018 
L 428.072367 65.375482 
L 428.29847 64.709967 
L 428.411521 64.636903 
L 428.524572 64.737357 
L 428.750675 65.458428 
L 429.089829 67.832108 
L 429.542034 73.358281 
L 430.107291 83.872282 
L 430.785599 101.25271 
L 431.690009 130.937626 
L 433.272727 192.451919 
L 434.742394 246.843582 
L 435.646805 272.650941 
L 436.325113 286.165292 
L 436.777318 291.936405 
L 437.116472 294.448883 
L 437.342574 295.23585 
L 437.455626 295.360315 
L 437.568677 295.304924 
L 437.794779 294.654714 
L 438.133933 292.338751 
L 438.586139 286.799742 
L 439.151395 276.133329 
L 439.829703 258.398031 
L 440.734113 228.040473 
L 442.316832 165.300632 
L 443.786499 110.479602 
L 444.690909 85.039995 
L 445.369217 72.17095 
L 445.821422 67.003509 
L 446.160576 65.028429 
L 446.386679 64.636622 
L 446.49973 64.719955 
L 446.725833 65.445032 
L 447.064986 67.919462 
L 447.517192 73.750223 
L 448.082448 84.892457 
L 448.760756 103.315758 
L 449.665167 134.66266 
L 451.587039 212.418216 
L 452.717552 253.537225 
L 453.508911 275.559111 
L 454.074167 286.662362 
L 454.526373 292.386439 
L 454.865527 294.726004 
L 455.091629 295.331828 
L 455.20468 295.346209 
L 455.430783 294.797164 
L 455.656886 293.48048 
L 455.99604 290.084634 
L 456.448245 282.985703 
L 457.013501 270.250374 
L 457.80486 246.190052 
L 458.822322 207.542374 
L 461.422502 105.000195 
L 462.213861 83.085375 
L 462.779118 72.284745 
L 463.231323 66.942195 
L 463.570477 64.967177 
L 463.79658 64.639446 
L 463.909631 64.774003 
L 464.135734 65.639433 
L 464.474887 68.416477 
L 464.927093 74.810762 
L 465.492349 86.876762 
L 466.170657 106.634668 
L 467.075068 139.882397 
L 470.240504 264.229594 
L 470.918812 281.24682 
L 471.484068 290.568802 
L 471.936274 294.524239 
L 472.162376 295.287452 
L 472.275428 295.361663 
L 472.388479 295.230473 
L 472.614581 294.352682 
L 472.953735 291.510015 
L 473.405941 284.944507 
L 473.971197 272.545487 
L 474.649505 252.256217 
L 475.553915 218.199839 
L 478.606301 96.288365 
L 479.284608 78.899615 
L 479.849865 69.411033 
L 480.30207 65.431661 
L 480.528173 64.694781 
L 480.641224 64.643368 
L 480.754275 64.803737 
L 480.980378 65.758772 
L 481.319532 68.762946 
L 481.771737 75.622251 
L 482.336994 88.493507 
L 483.015302 109.450956 
L 484.032763 149.191332 
L 486.632943 256.380208 
L 487.424302 278.723605 
L 487.989559 289.25861 
L 488.441764 294.015516 
L 488.780918 295.334128 
L 488.893969 295.338517 
L 489.120072 294.693115 
L 489.459226 292.099828 
L 489.911431 285.680225 
L 490.476688 273.175371 
L 491.154995 252.390634 
L 492.059406 217.242655 
L 494.99874 96.329029 
L 495.677048 78.505375 
L 496.242304 68.97709 
L 496.581458 65.813242 
L 496.807561 64.80931 
L 496.920612 64.642908 
L 497.033663 64.700971 
L 497.259766 65.490138 
L 497.59892 68.343701 
L 498.051125 75.184121 
L 498.616382 88.306305 
L 499.294689 109.901951 
L 500.312151 151.011148 
L 502.79928 256.457269 
L 503.590639 279.297777 
L 504.155896 289.836676 
L 504.608101 294.359937 
L 504.834203 295.259166 
L 504.947255 295.363363 
L 505.060306 295.236671 
L 505.286409 294.291546 
L 505.625563 291.160131 
L 506.077768 283.877705 
L 506.643024 270.11733 
L 507.321332 247.697624 
L 508.338794 205.45033 
L 510.712871 103.53296 
L 511.50423 80.443404 
L 512.069487 69.901717 
L 512.521692 65.494412 
L 512.747795 64.693098 
L 512.860846 64.647651 
L 512.973897 64.839484 
L 513.2 65.933468 
L 513.539154 69.331771 
L 513.991359 77.04087 
L 514.556616 91.418712 
L 515.234923 114.634407 
L 516.252385 157.968866 
L 518.40036 252.200765 
L 519.191719 276.884885 
L 519.756976 288.585942 
L 520.209181 293.874606 
L 520.435284 295.089377 
L 520.661386 295.333279 
L 520.887489 294.603139 
L 521.226643 291.694902 
L 521.678848 284.523845 
L 522.244104 270.61805 
L 522.922412 247.669446 
L 523.939874 204.185372 
L 526.2009 104.372381 
L 526.992259 80.515744 
L 527.557516 69.738065 
L 527.89667 66.090905 
L 528.122772 64.886728 
L 528.348875 64.679074 
L 528.574977 65.470871 
L 528.914131 68.517625 
L 529.366337 75.952364 
L 529.931593 90.29199 
L 530.609901 113.856267 
L 531.627363 158.258693 
L 533.775338 254.453044 
L 534.566697 278.937983 
L 535.131953 290.04489 
L 535.471107 293.824564 
L 535.69721 295.086898 
L 535.923312 295.32757 
L 536.149415 294.543299 
L 536.488569 291.460361 
L 536.940774 283.892742 
L 537.506031 269.267855 
L 538.184338 245.235015 
L 539.2018 200.052317 
L 541.236724 107.457128 
L 542.028083 82.110427 
L 542.593339 70.469288 
L 543.045545 65.58901 
L 543.271647 64.699833 
L 543.384698 64.648582 
L 543.49775 64.860105 
L 543.723852 66.069525 
L 544.063006 69.826614 
L 544.515212 78.336721 
L 545.080468 94.151162 
L 545.871827 124.28598 
L 547.115392 182.733793 
L 548.585059 249.699893 
L 549.376418 276.186795 
L 549.941674 288.612871 
L 550.393879 294.055179 
L 550.619982 295.194337 
L 550.733033 295.36164 
L 550.846085 295.259834 
L 551.072187 294.249887 
L 551.411341 290.739306 
L 551.863546 282.454885 
L 552.428803 266.756802 
L 553.107111 241.315034 
L 554.237624 188.648626 
L 555.933393 109.762068 
L 556.724752 83.189325 
L 557.290009 70.901022 
L 557.742214 65.697537 
L 557.968317 64.719751 
L 558.081368 64.64315 
L 558.194419 64.842072 
L 558.420522 66.064517 
L 558.759676 69.935089 
L 559.211881 78.761208 
L 559.777138 95.19519 
L 560.568497 126.465776 
L 561.925113 192.309214 
L 563.168677 249.665402 
L 563.960036 276.666122 
L 564.525293 289.118286 
L 564.977498 294.345228 
L 565.2036 295.29645 
L 565.316652 295.350128 
L 565.429703 295.121912 
L 565.655806 293.82212 
L 565.994959 289.79076 
L 566.447165 280.675726 
L 567.012421 263.788711 
L 567.80378 231.805507 
L 569.160396 164.987484 
L 570.40396 107.626357 
L 571.082268 84.363792 
L 571.647525 71.392702 
L 572.09973 65.832739 
L 572.325833 64.748992 
L 572.438884 64.638302 
L 572.551935 64.815879 
L 572.778038 66.033945 
L 573.117192 69.992379 
L 573.569397 79.101745 
L 574.134653 96.116722 
L 574.926013 128.471579 
L 576.282628 196.07985 
L 577.526193 253.751496 
L 578.2045 276.829595 
L 578.769757 289.419592 
L 579.108911 293.682816 
L 579.335014 295.082161 
L 579.448065 295.342071 
L 579.561116 295.307467 
L 579.787219 294.355209 
L 580.126373 290.740769 
L 580.578578 281.979287 
L 581.143834 265.213669 
L 581.822142 238.010348 
L 582.952655 182.21726 
L 584.422322 110.914487 
L 585.213681 83.002407 
L 585.778938 70.3842 
L 586.118092 66.181721 
L 586.344194 64.856102 
L 586.457246 64.642908 
L 586.570297 64.730666 
L 586.7964 65.80796 
L 587.135554 69.653707 
L 587.587759 78.793446 
L 588.153015 96.109955 
L 588.944374 129.252388 
L 590.414041 204.259367 
L 591.544554 256.607252 
L 592.222862 279.212058 
L 592.788119 290.941779 
L 593.127273 294.492095 
L 593.353375 295.34108 
L 593.466427 295.305129 
L 593.692529 294.312035 
L 594.031683 290.543039 
L 594.483888 281.413875 
L 595.049145 263.975041 
L 595.840504 230.46951 
L 597.310171 154.652417 
L 598.440684 102.105428 
L 599.118992 79.730419 
L 599.571197 70.098334 
L 599.910351 65.976892 
L 600.136454 64.770993 
L 600.249505 64.637213 
L 600.362556 64.817191 
L 600.588659 66.116248 
L 600.927813 70.382076 
L 601.380018 80.221992 
L 601.945275 98.571041 
L 602.736634 133.235514 
L 605.675968 273.617029 
L 606.241224 287.924333 
L 606.693429 294.059226 
L 606.919532 295.245878 
L 607.032583 295.360397 
L 607.145635 295.154779 
L 607.371737 293.78566 
L 607.710891 289.370016 
L 608.163096 279.256606 
L 608.728353 260.477638 
L 609.519712 225.148755 
L 612.345995 88.035306 
L 612.911251 72.97741 
L 613.363456 66.298556 
L 613.589559 64.869507 
L 613.70261 64.642587 
L 613.815662 64.742115 
L 614.041764 65.919112 
L 614.380918 70.099987 
L 614.833123 80.005283 
L 615.39838 98.692062 
L 616.189739 134.166211 
L 619.016022 272.416476 
L 619.581278 287.410487 
L 620.033483 293.912593 
L 620.259586 295.211498 
L 620.372637 295.363316 
L 620.485689 295.182257 
L 620.711791 293.823903 
L 621.050945 289.329915 
L 621.50315 278.946967 
L 622.068407 259.610864 
L 622.859766 223.262688 
L 625.572997 88.770251 
L 626.138254 73.20862 
L 626.590459 66.322366 
L 626.816562 64.863371 
L 626.929613 64.640546 
L 627.042664 64.756928 
L 627.268767 66.005605 
L 627.607921 70.385873 
L 628.060126 80.712521 
L 628.625383 100.12093 
L 629.416742 136.775216 
L 632.016922 268.182051 
L 632.582178 284.98355 
L 633.034383 292.860493 
L 633.373537 295.249272 
L 633.486589 295.357626 
L 633.59964 295.120348 
L 633.825743 293.612111 
L 634.164896 288.804683 
L 634.617102 277.859834 
L 635.182358 257.656049 
L 635.973717 220.002579 
L 638.460846 92.826372 
L 639.026103 75.546087 
L 639.478308 67.35763 
L 639.817462 64.792084 
L 639.930513 64.636983 
L 640.043564 64.833881 
L 640.269667 66.280873 
L 640.608821 71.045729 
L 641.061026 82.023221 
L 641.626283 102.394304 
L 642.417642 140.441422 
L 644.90477 268.307003 
L 645.470027 285.301431 
L 645.922232 293.109946 
L 646.261386 295.30887 
L 646.374437 295.327797 
L 646.487489 294.988394 
L 646.713591 293.239251 
L 647.052745 287.986212 
L 647.50495 276.318108 
L 648.070207 255.08289 
L 648.861566 215.99628 
L 651.122592 96.983885 
L 651.687849 78.041767 
L 652.140054 68.578268 
L 652.479208 65.140726 
L 652.705311 64.657006 
L 652.818362 64.962062 
L 653.044464 66.662042 
L 653.383618 71.890326 
L 653.835824 83.613163 
L 654.40108 105.038043 
L 655.192439 144.533359 
L 657.453465 264.183214 
L 658.018722 282.868589 
L 658.470927 291.972877 
L 658.810081 295.056812 
L 658.923132 295.348441 
L 659.036184 295.269055 
L 659.262286 293.998768 
L 659.60144 289.351529 
L 660.053645 278.263634 
L 660.618902 257.378211 
L 661.410261 218.14566 
L 663.784338 92.558747 
L 664.349595 74.899173 
L 664.8018 66.853005 
L 665.027903 65.023714 
L 665.140954 64.671746 
L 665.254005 64.697072 
L 665.480108 65.878738 
L 665.819262 70.443144 
L 666.271467 81.513529 
L 666.836724 102.512435 
L 667.628083 142.083957 
L 669.889109 263.942924 
L 670.454365 282.962269 
L 670.906571 292.128444 
L 671.245725 295.124653 
L 671.358776 295.361053 
L 671.471827 295.213623 
L 671.69793 293.769813 
L 672.037084 288.774652 
L 672.489289 277.084149 
L 673.054545 255.297805 
L 673.845905 214.771638 
L 675.993879 97.628854 
L 676.559136 77.952367 
L 677.011341 68.302124 
L 677.350495 64.990148 
L 677.463546 64.659841 
L 677.576598 64.719625 
L 677.8027 66.008044 
L 678.141854 70.822911 
L 678.594059 82.375405 
L 679.159316 104.148135 
L 679.950675 144.895083 
L 682.09865 262.853859 
L 682.663906 282.494408 
L 683.116112 291.988282 
L 683.455266 295.107569 
L 683.568317 295.359941 
L 683.681368 295.215745 
L 683.907471 293.740281 
L 684.246625 288.604952 
L 684.69883 276.57058 
L 685.264086 254.160591 
L 686.055446 212.610184 
L 688.090369 99.372285 
L 688.655626 78.862208 
L 689.107831 68.683048 
L 689.446985 65.086771 
L 689.673087 64.68765 
L 689.89919 65.898679 
L 690.238344 70.694264 
L 690.690549 82.393602 
L 691.255806 104.583908 
L 692.047165 146.171262 
L 694.19514 265.183756 
L 694.760396 284.244174 
L 695.212601 292.958649 
L 695.438704 294.942849 
L 695.551755 295.325041 
L 695.664806 295.298097 
L 695.890909 294.017913 
L 696.230063 289.074094 
L 696.682268 277.105916 
L 697.247525 254.502536 
L 698.038884 212.316628 
L 700.073807 97.783857 
L 700.639064 77.554246 
L 701.091269 67.88338 
L 701.430423 64.828797 
L 701.543474 64.63666 
L 701.656526 64.860254 
L 701.882628 66.550641 
L 702.221782 72.14011 
L 702.673987 84.988734 
L 703.239244 108.637025 
L 704.143654 158.74557 
L 705.839424 256.009809 
L 706.517732 281.839107 
L 706.969937 291.85384 
L 707.309091 295.113391 
L 707.422142 295.361963 
L 707.535194 295.188461 
L 707.761296 293.57858 
L 708.10045 288.059496 
L 708.552655 275.212292 
L 709.117912 251.43472 
L 709.909271 207.772159 
L 711.831143 98.060571 
L 712.3964 77.492718 
L 712.848605 67.753661 
L 713.187759 64.781702 
L 713.30081 64.643028 
L 713.413861 64.932831 
L 713.639964 66.792717 
L 713.979118 72.722373 
L 714.431323 86.157034 
L 714.99658 110.667125 
L 715.90099 162.102023 
L 717.483708 254.432276 
L 718.162016 281.148148 
L 718.614221 291.595882 
L 718.953375 295.063621 
L 719.066427 295.356987 
L 719.179478 295.215568 
L 719.405581 293.6314 
L 719.744734 288.056018 
L 720.19694 274.969924 
L 720.762196 250.685762 
L 721.666607 199.169355 
L 723.249325 105.99912 
L 723.927633 78.973726 
L 724.379838 68.415759 
L 724.718992 64.928546 
L 724.832043 64.641395 
L 724.945095 64.795412 
L 725.171197 66.423656 
L 725.510351 72.110101 
L 725.962556 85.417054 
L 726.527813 110.057504 
L 727.432223 162.16476 
L 729.014941 255.581625 
L 729.693249 282.156967 
L 730.145455 292.214473 
L 730.484608 295.2343 
L 730.59766 295.350763 
L 730.710711 295.019643 
L 730.936814 293.020769 
L 731.275968 286.7491 
L 731.728173 272.644073 
L 732.293429 247.064487 
L 733.19784 193.881984 
L 734.667507 106.331037 
L 735.345815 78.885477 
L 735.79802 68.266676 
L 736.137174 64.867998 
L 736.250225 64.636388 
L 736.363276 64.858735 
L 736.589379 66.660784 
L 736.928533 72.693629 
L 737.380738 86.592815 
L 737.945995 112.094751 
L 738.850405 165.492126 
L 740.320072 253.691275 
L 740.99838 281.27464 
L 741.450585 291.865631 
L 741.789739 295.173569 
L 741.90279 295.361719 
L 742.015842 295.089527 
L 742.241944 293.169524 
L 742.581098 286.918708 
L 743.033303 272.669985 
L 743.59856 246.686444 
L 744.50297 192.614566 
L 745.972637 104.352676 
L 746.650945 77.382098 
L 747.10315 67.423002 
L 747.329253 65.135478 
L 747.442304 64.68638 
L 747.555356 64.703696 
L 747.781458 66.136175 
L 748.120612 71.724875 
L 748.572817 85.251331 
L 749.138074 110.635379 
L 750.042484 164.48881 
L 751.512151 253.917427 
L 752.190459 281.701185 
L 752.642664 292.175986 
L 752.981818 295.254314 
L 753.094869 295.339376 
L 753.207921 294.951397 
L 753.434023 292.76384 
L 753.773177 286.032253 
L 754.225383 271.03319 
L 754.790639 244.043274 
L 755.69505 188.619999 
L 757.051665 105.95614 
L 757.729973 78.081002 
L 758.182178 67.671301 
L 758.521332 64.713226 
L 758.634383 64.681492 
L 758.747435 65.129106 
L 758.973537 67.45373 
L 759.312691 74.429878 
L 759.764896 89.807453 
L 760.330153 117.299475 
L 761.347615 180.839454 
L 762.591179 256.019842 
L 763.156436 279.693447 
L 763.608641 291.248556 
L 763.947795 295.054271 
L 764.060846 295.359614 
L 764.173897 295.179176 
L 764.4 293.365255 
L 764.739154 287.0813 
L 765.191359 272.454689 
L 765.756616 245.575931 
L 766.661026 189.68177 
L 768.017642 105.867066 
L 768.69595 77.751741 
L 769.148155 67.425616 
L 769.374257 65.100447 
L 769.487309 64.670718 
L 769.60036 64.732963 
L 769.826463 66.331009 
L 770.165617 72.348178 
L 770.617822 86.735459 
L 771.183078 113.504641 
L 772.087489 169.589418 
L 773.444104 254.020231 
L 774.009361 278.596801 
L 774.461566 290.771011 
L 774.80072 294.937935 
L 774.913771 295.340124 
L 775.026823 295.243909 
L 775.252925 293.559283 
L 775.592079 287.369492 
L 776.044284 272.688288 
L 776.609541 245.497181 
L 777.513951 188.809459 
L 778.870567 104.312456 
L 779.435824 80.161099 
L 779.888029 68.523221 
L 780.227183 64.85711 
L 780.340234 64.637427 
L 780.453285 64.922693 
L 780.679388 67.001669 
L 781.018542 73.809621 
L 781.470747 89.321373 
L 782.036004 117.460207 
L 783.053465 182.784306 
L 784.183978 253.290732 
L 784.749235 278.35418 
L 785.20144 290.748608 
L 785.540594 294.955697 
L 785.653645 295.345888 
L 785.766697 295.2249 
L 785.992799 293.452987 
L 786.331953 287.042984 
L 786.784158 271.926734 
L 787.349415 244.047615 
L 788.253825 186.291823 
L 789.49739 107.404382 
L 790.175698 78.141146 
L 790.627903 67.439576 
L 790.854005 65.072053 
L 790.967057 64.659306 
L 791.080108 64.764079 
L 791.306211 66.522795 
L 791.645365 72.960395 
L 792.09757 88.194157 
L 792.662826 116.317445 
L 793.567237 174.52707 
L 794.810801 253.635709 
L 795.376058 278.834151 
L 795.828263 291.107208 
L 796.167417 295.078526 
L 796.280468 295.363147 
L 796.393519 295.123724 
L 796.619622 293.078654 
L 796.958776 286.179753 
L 797.410981 270.306744 
L 797.976238 241.430679 
L 798.993699 174.614398 
L 800.124212 103.639406 
L 800.689469 79.247626 
L 801.141674 67.879539 
L 801.367777 65.236912 
L 801.593879 64.701291 
L 801.819982 66.284155 
L 802.159136 72.559995 
L 802.611341 87.766693 
L 803.176598 116.1201 
L 804.081008 175.044787 
L 805.324572 254.827142 
L 805.889829 279.865042 
L 806.342034 291.730509 
L 806.681188 295.236187 
L 806.794239 295.337675 
L 806.907291 294.90242 
L 807.133393 292.431447 
L 807.472547 284.825416 
L 807.924752 267.940595 
L 808.490009 237.836377 
L 809.620522 161.744683 
L 810.637984 99.252497 
L 811.20324 76.258552 
L 811.655446 66.466683 
L 811.881548 64.733956 
L 811.994599 64.679964 
L 812.107651 65.169022 
L 812.333753 67.765355 
L 812.672907 75.597966 
L 813.125113 92.835062 
L 813.80342 130.44217 
L 816.177498 277.211409 
L 816.629703 290.457129 
L 816.968857 294.940526 
L 817.081908 295.347653 
L 817.194959 295.205364 
L 817.421062 293.277026 
L 817.760216 286.360298 
L 818.212421 270.130363 
L 818.777678 240.397417 
L 819.79514 171.722185 
L 820.812601 106.092313 
L 821.377858 80.390009 
L 821.830063 68.25739 
L 822.169217 64.742864 
L 822.282268 64.67674 
L 822.39532 65.166416 
L 822.621422 67.801899 
L 822.960576 75.783603 
L 823.412781 93.363861 
L 824.091089 131.67202 
L 826.352115 274.572236 
L 826.80432 289.112638 
L 827.143474 294.515943 
L 827.369577 295.34423 
L 827.482628 294.915434 
L 827.708731 292.381348 
L 828.047885 284.498674 
L 828.50009 266.952039 
L 829.178398 228.514516 
L 831.439424 85.02415 
L 831.891629 70.601443 
L 832.230783 65.36426 
L 832.456886 64.681717 
L 832.569937 65.192977 
L 832.79604 67.90903 
L 833.135194 76.099066 
L 833.587399 94.091528 
L 834.265707 133.169784 
L 836.526733 276.516889 
L 836.978938 290.297754 
L 837.318092 294.940526 
L 837.431143 295.350549 
L 837.544194 295.185654 
L 837.770297 293.136404 
L 838.109451 285.858517 
L 838.561656 268.862449 
L 839.126913 237.887991 
L 840.257426 159.093092 
L 841.161836 101.432586 
L 841.727093 76.988241 
L 842.179298 66.5652 
L 842.405401 64.733956 
L 842.518452 64.687823 
L 842.631503 65.222921 
L 842.857606 68.023966 
L 843.19676 76.428434 
L 843.648965 94.839126 
L 844.327273 134.688059 
L 846.475248 273.825001 
L 846.927453 288.925624 
L 847.266607 294.512326 
L 847.492709 295.337675 
L 847.605761 294.869206 
L 847.831863 292.180824 
L 848.171017 283.891198 
L 848.623222 265.532143 
L 849.30153 225.57287 
L 851.449505 85.84763 
L 851.90171 70.831837 
L 852.240864 65.38462 
L 852.466967 64.686875 
L 852.580018 65.228718 
L 852.806121 68.08098 
L 853.145275 76.651387 
L 853.59748 95.422455 
L 854.275788 135.976146 
L 856.310711 270.691353 
L 856.762916 287.225262 
L 857.10207 293.862974 
L 857.328173 295.346643 
L 857.441224 295.189179 
L 857.667327 293.078654 
L 858.006481 285.526143 
L 858.458686 267.870036 
L 859.023942 235.767333 
L 860.267507 146.875952 
L 861.058866 97.389808 
L 861.624122 74.208966 
L 861.963276 66.772063 
L 862.189379 64.767335 
L 862.30243 64.672095 
L 862.415482 65.183628 
L 862.641584 68.013946 
L 862.980738 76.645686 
L 863.432943 95.654288 
L 864.111251 136.781669 
L 866.146175 272.190704 
L 866.59838 288.230975 
L 866.937534 294.317176 
L 867.163636 295.356602 
L 867.276688 294.957115 
L 867.50279 292.329244 
L 867.841944 283.940689 
L 868.294149 265.133483 
L 868.972457 224.050655 
L 871.007381 87.877629 
L 871.459586 71.747936 
L 871.79874 65.657196 
L 872.024842 64.646819 
L 872.137894 65.070411 
L 872.363996 67.764903 
L 872.70315 76.295172 
L 873.155356 95.351053 
L 873.833663 136.854269 
L 875.868587 273.172763 
L 876.320792 288.906508 
L 876.659946 294.59897 
L 876.886049 295.304023 
L 876.9991 294.71811 
L 877.225203 291.684175 
L 877.564356 282.623069 
L 878.016562 262.86662 
L 878.694869 220.48596 
L 880.616742 89.796652 
L 881.068947 72.742808 
L 881.408101 66.020209 
L 881.634203 64.639155 
L 881.747255 64.895987 
L 881.973357 67.298456 
L 882.312511 75.503168 
L 882.764716 94.343822 
L 883.443024 135.951221 
L 885.477948 273.512071 
L 885.930153 289.207312 
L 886.269307 294.728742 
L 886.382358 295.30983 
L 886.49541 295.252569 
L 886.721512 293.226895 
L 887.060666 285.517441 
L 887.512871 267.176334 
L 888.078128 233.681926 
L 890.452205 78.059681 
L 890.90441 66.67293 
L 891.130513 64.722348 
L 891.243564 64.711883 
L 891.356616 65.346217 
L 891.582718 68.532406 
L 891.921872 77.948817 
L 892.374077 98.36359 
L 893.052385 141.890671 
L 894.861206 267.692894 
L 895.313411 285.946208 
L 895.652565 293.46935 
L 895.878668 295.30763 
L 895.991719 295.251957 
L 896.217822 293.19142 
L 896.556976 285.338736 
L 897.009181 266.662701 
L 897.574437 232.61026 
L 899.835464 80.856261 
L 900.287669 67.800432 
L 900.513771 65.04042 
L 900.626823 64.640235 
L 900.739874 64.897856 
L 900.965977 67.377811 
L 901.305131 75.879208 
L 901.757336 95.398203 
L 902.435644 138.351568 
L 904.357516 271.66725 
L 904.809721 288.404994 
L 905.148875 294.51331 
L 905.374977 295.310703 
L 905.488029 294.713692 
L 905.714131 291.544276 
L 906.053285 282.013125 
L 906.505491 261.219179 
L 907.183798 216.832374 
L 908.992619 90.14891 
L 909.444824 72.57587 
L 909.783978 65.838212 
L 910.010081 64.640087 
L 910.123132 65.046035 
L 910.349235 67.85732 
L 910.688389 76.92494 
L 911.140594 97.266794 
L 911.818902 141.370001 
L 913.627723 269.070399 
L 914.079928 287.029409 
L 914.419082 294.021874 
L 914.645185 295.363618 
L 914.758236 295.020135 
L 914.984338 292.313367 
L 915.323492 283.348613 
L 915.775698 263.043343 
L 916.454005 218.814851 
L 918.262826 90.631942 
L 918.715032 72.734882 
L 919.054185 65.864908 
L 919.280288 64.639944 
L 919.393339 65.051547 
L 919.619442 67.911911 
L 919.958596 77.142012 
L 920.410801 97.836304 
L 921.089109 142.610208 
L 922.89793 270.727857 
L 923.350135 288.104968 
L 923.689289 294.468024 
L 923.915392 295.311787 
L 924.028443 294.699787 
L 924.254545 291.425132 
L 924.593699 281.560029 
L 925.045905 260.054632 
L 925.724212 214.333412 
L 927.419982 92.492202 
L 927.872187 73.706811 
L 928.211341 66.225975 
L 928.437444 64.643122 
L 928.550495 64.89424 
L 928.776598 67.475171 
L 929.115752 76.399077 
L 929.567957 96.904342 
L 930.246265 141.814389 
L 932.055086 271.019251 
L 932.507291 288.382288 
L 932.846445 294.593686 
L 932.959496 295.282289 
L 933.072547 295.269055 
L 933.29865 293.140726 
L 933.637804 284.818877 
L 934.090009 264.930661 
L 934.655266 228.788021 
L 936.690189 84.707632 
L 937.142394 69.30195 
L 937.481548 64.78176 
L 937.594599 64.682207 
L 937.707651 65.291274 
L 937.933753 68.616914 
L 938.272907 78.692571 
L 938.725113 100.68401 
L 939.40342 147.34914 
L 940.986139 263.842209 
L 941.438344 284.25535 
L 941.777498 292.917972 
L 942.0036 295.226347 
L 942.116652 295.31185 
L 942.229703 294.682396 
L 942.455806 291.297688 
L 942.794959 281.092354 
L 943.247165 258.871647 
L 943.925473 211.830929 
L 945.508191 95.187229 
L 945.960396 75.076035 
L 946.29955 66.744881 
L 946.525653 64.700303 
L 946.638704 64.757402 
L 946.864806 67.029791 
L 947.20396 75.69749 
L 947.656166 96.23546 
L 948.334473 141.819861 
L 950.030243 266.84786 
L 950.482448 286.216961 
L 950.821602 293.841653 
L 951.047705 295.362837 
L 951.160756 295.032938 
L 951.386859 292.201355 
L 951.726013 282.68869 
L 952.178218 261.094292 
L 952.856526 214.325107 
L 954.439244 96.198185 
L 954.891449 75.563695 
L 955.230603 66.923543 
L 955.456706 64.728085 
L 955.569757 64.72829 
L 955.79586 66.925769 
L 956.135014 75.578821 
L 956.587219 96.264526 
L 957.265527 142.314084 
L 958.961296 267.974181 
L 959.413501 286.998894 
L 959.752655 294.189556 
L 959.978758 295.345987 
L 960.091809 294.814084 
L 960.317912 291.545885 
L 960.657066 281.321158 
L 961.109271 258.751369 
L 961.787579 210.746349 
L 963.370297 92.938144 
L 963.822502 73.471615 
L 964.161656 65.975702 
L 964.387759 64.640474 
L 964.50081 65.092337 
L 964.726913 68.221618 
L 965.066067 78.295632 
L 965.518272 100.776127 
L 966.19658 148.857892 
L 967.779298 267.15582 
L 968.231503 286.643792 
L 968.570657 294.087412 
L 968.79676 295.354227 
L 968.909811 294.858522 
L 969.135914 291.623835 
L 969.475068 281.354416 
L 969.927273 258.570652 
L 970.605581 210.049843 
L 972.075248 98.057101 
L 972.640504 72.666104 
L 972.979658 65.637803 
L 973.205761 64.689957 
L 973.318812 65.354875 
L 973.544914 68.941743 
L 973.884068 79.754626 
L 974.336274 103.23266 
L 975.014581 152.542109 
L 976.484248 264.157435 
L 976.936454 284.986194 
L 977.275608 293.438296 
L 977.50171 295.340694 
L 977.614761 295.14501 
L 977.840864 292.465131 
L 978.180018 282.891286 
L 978.632223 260.735283 
L 979.310531 212.479155 
L 980.893249 92.675887 
L 981.345455 73.080638 
L 981.684608 65.757209 
L 981.910711 64.670103 
L 982.023762 65.284442 
L 982.249865 68.809596 
L 982.589019 79.627407 
L 983.041224 103.27374 
L 983.719532 153.051237 
L 985.189199 265.203113 
L 985.641404 285.74046 
L 985.980558 293.799384 
L 986.206661 295.363622 
L 986.319712 294.97887 
L 986.545815 291.887353 
L 986.884968 281.636438 
L 987.337174 258.547294 
L 988.015482 209.112608 
L 989.485149 95.97234 
L 989.937354 74.899173 
L 990.276508 66.449232 
L 990.50261 64.64535 
L 990.615662 64.919278 
L 990.841764 67.81081 
L 991.180918 77.824145 
L 991.633123 100.725711 
L 992.311431 150.147576 
L 993.781098 263.84664 
L 994.233303 285.055586 
L 994.572457 293.551843 
L 994.79856 295.355659 
L 994.911611 295.072134 
L 995.137714 292.14268 
L 995.476868 282.029403 
L 995.929073 258.932994 
L 996.607381 209.175454 
L 998.077048 95.332586 
L 998.529253 74.391448 
L 998.868407 66.197619 
L 999.094509 64.636523 
L 999.207561 65.051522 
L 999.433663 68.259535 
L 999.772817 78.813494 
L 1000.225023 102.488754 
L 1000.90333 152.924942 
L 1002.372997 266.456249 
L 1002.825203 286.71234 
L 1003.164356 294.247021 
L 1003.390459 295.319084 
L 1003.50351 294.649505 
L 1003.729613 290.921182 
L 1004.068767 279.587823 
L 1004.520972 254.959808 
L 1005.19928 203.532366 
L 1006.555896 97.304694 
L 1007.008101 75.447979 
L 1007.347255 66.603284 
L 1007.573357 64.653495 
L 1007.686409 64.892306 
L 1007.912511 67.790222 
L 1008.251665 77.997032 
L 1008.70387 101.443628 
L 1009.382178 151.990437 
L 1010.851845 266.474245 
L 1011.30405 286.837909 
L 1011.643204 294.323401 
L 1011.869307 295.297094 
L 1011.982358 294.559246 
L 1012.208461 290.658992 
L 1012.547615 278.992671 
L 1012.99982 253.833742 
L 1013.678128 201.639634 
L 1015.034743 95.347359 
L 1015.486949 74.156501 
L 1015.826103 66.031122 
L 1016.052205 64.646647 
L 1016.165257 65.188435 
L 1016.391359 68.722022 
L 1016.730513 79.919174 
L 1017.182718 104.638726 
L 1017.861026 156.617256 
L 1019.217642 263.745745 
L 1019.669847 285.370014 
L 1020.009001 293.79911 
L 1020.235104 295.362317 
L 1020.348155 294.900605 
L 1020.574257 291.505852 
L 1020.913411 280.458351 
L 1021.365617 255.824497 
L 1022.043924 203.762467 
L 1023.40054 96.21114 
L 1023.852745 74.543485 
L 1024.191899 66.147907 
L 1024.418002 64.640294 
L 1024.531053 65.139447 
L 1024.757156 68.626888 
L 1025.09631 79.850881 
L 1025.548515 104.762187 
L 1026.226823 157.218423 
L 1027.583438 264.780331 
L 1028.035644 286.095955 
L 1028.374797 294.116207 
L 1028.6009 295.331042 
L 1028.713951 294.675653 
L 1028.940054 290.861876 
L 1029.279208 279.133545 
L 1029.731413 253.583017 
L 1030.409721 200.433064 
L 1031.653285 100.1553 
L 1032.105491 76.803009 
L 1032.444644 67.077279 
L 1032.670747 64.70493 
L 1032.783798 64.788319 
L 1033.009901 67.492458 
L 1033.349055 77.700727 
L 1033.80126 101.636863 
L 1034.479568 153.560215 
L 1035.836184 262.817985 
L 1036.288389 285.064929 
L 1036.627543 293.750082 
L 1036.853645 295.362308 
L 1036.966697 294.886978 
L 1037.192799 291.389729 
L 1037.531953 280.014269 
L 1037.984158 254.692317 
L 1038.662466 201.419781 
L 1039.906031 100.291397 
L 1040.358236 76.754805 
L 1040.69739 67.010176 
L 1040.923492 64.689431 
L 1041.036544 64.817987 
L 1041.262646 67.649469 
L 1041.6018 78.130597 
L 1042.054005 102.536015 
L 1042.732313 155.182395 
L 1044.088929 264.574735 
L 1044.541134 286.209492 
L 1044.880288 294.221614 
L 1045.106391 295.301936 
L 1045.219442 294.541097 
L 1045.445545 290.444697 
L 1045.784698 278.137938 
L 1046.236904 251.630594 
L 1047.028263 187.107938 
L 1048.158776 96.600664 
L 1048.610981 74.41261 
L 1048.950135 65.992274 
L 1049.176238 64.661067 
L 1049.289289 65.30591 
L 1049.515392 69.193395 
L 1049.854545 81.253862 
L 1050.306751 107.572345 
L 1051.09811 172.129027 
L 1052.228623 263.122958 
L 1052.680828 285.485152 
L 1053.019982 293.985696 
L 1053.246085 295.340369 
L 1053.359136 294.697735 
L 1053.585239 290.795704 
L 1053.924392 278.669143 
L 1054.376598 252.197882 
L 1055.167957 187.321517 
L 1056.29847 96.244483 
L 1056.750675 74.089281 
L 1057.089829 65.839621 
L 1057.315932 64.691345 
L 1057.428983 65.446816 
L 1057.655086 69.589287 
L 1057.994239 82.097387 
L 1058.446445 109.065003 
L 1059.237804 174.541552 
L 1060.255266 258.119151 
L 1060.707471 282.590861 
L 1061.046625 292.804678 
L 1061.272727 295.293104 
L 1061.385779 295.201238 
L 1061.611881 292.347567 
L 1061.951035 281.604868 
L 1062.40324 256.501882 
L 1063.081548 202.480466 
L 1064.325113 99.334548 
L 1064.777318 75.788733 
L 1065.116472 66.466786 
L 1065.342574 64.636529 
L 1065.455626 65.069281 
L 1065.681728 68.615026 
L 1066.020882 80.379552 
L 1066.473087 106.695105 
L 1067.151395 161.87368 
L 1068.394959 264.043553 
L 1068.847165 286.246388 
L 1069.186319 294.324363 
L 1069.412421 295.257076 
L 1069.525473 294.365283 
L 1069.751575 289.899043 
L 1070.090729 276.803618 
L 1070.542934 248.960629 
L 1071.334293 182.21726 
L 1072.351755 98.82825 
L 1072.80396 75.364301 
L 1073.143114 66.25755 
L 1073.369217 64.642231 
L 1073.482268 65.201968 
L 1073.708371 69.03547 
L 1074.047525 81.294815 
L 1074.49973 108.312595 
L 1075.291089 174.593109 
L 1076.308551 259.106179 
L 1076.760756 283.457 
L 1077.09991 293.274871 
L 1077.326013 295.355279 
L 1077.439064 295.019593 
L 1077.665167 291.60844 
L 1078.00432 279.89555 
L 1078.456526 253.395538 
L 1079.134833 197.604657 
L 1080.378398 94.793368 
L 1080.830603 72.937483 
L 1081.169757 65.371694 
L 1081.282808 64.667898 
L 1081.39586 64.889149 
L 1081.621962 68.093369 
L 1081.961116 79.560901 
L 1082.413321 105.871232 
L 1083.091629 161.663875 
L 1084.335194 264.970438 
L 1084.787399 286.984985 
L 1085.126553 294.616863 
L 1085.239604 295.330549 
L 1085.352655 295.112837 
L 1085.578758 291.896672 
L 1085.917912 280.366445 
L 1086.370117 253.906629 
L 1087.048425 197.839609 
L 1088.291989 94.427784 
L 1088.744194 72.631887 
L 1089.083348 65.259014 
L 1089.1964 64.647257 
L 1089.309451 64.973477 
L 1089.535554 68.422719 
L 1089.874707 80.326549 
L 1090.326913 107.276846 
L 1091.005221 163.887345 
L 1092.135734 259.791575 
L 1092.587939 284.117795 
L 1092.927093 293.626315 
L 1093.153195 295.360611 
L 1093.266247 294.812811 
L 1093.492349 290.908342 
L 1093.831503 278.321356 
L 1094.283708 250.547266 
L 1095.075068 182.717342 
L 1096.092529 97.826839 
L 1096.544734 74.428504 
L 1096.883888 65.807671 
L 1097.109991 64.724103 
L 1097.223042 65.607262 
L 1097.449145 70.188492 
L 1097.788299 83.761966 
L 1098.240504 112.675119 
L 1099.031863 181.550347 
L 1099.936274 257.91489 
L 1100.388479 283.110653 
L 1100.727633 293.248049 
L 1100.953735 295.358339 
L 1101.066787 294.980318 
L 1101.292889 291.372224 
L 1101.632043 279.108324 
L 1102.084248 251.52485 
L 1102.875608 183.467585 
L 1103.893069 97.911295 
L 1104.345275 74.364158 
L 1104.684428 65.755677 
L 1104.910531 64.745115 
L 1105.023582 65.683799 
L 1105.249685 70.411325 
L 1105.588839 84.27801 
L 1106.041044 113.661596 
L 1106.832403 183.250417 
L 1107.736814 259.566992 
L 1108.189019 284.225069 
L 1108.528173 293.740209 
L 1108.754275 295.349821 
L 1108.867327 294.7013 
L 1109.093429 290.523444 
L 1109.432583 277.37307 
L 1109.884788 248.672976 
L 1110.676148 179.386718 
L 1111.580558 102.159504 
L 1112.032763 76.747432 
L 1112.371917 66.633375 
L 1112.59802 64.636669 
L 1112.711071 65.100466 
L 1112.937174 68.934153 
L 1113.276328 81.650594 
L 1113.728533 109.96386 
L 1114.519892 179.148947 
L 1115.537354 264.549093 
L 1115.989559 287.170801 
L 1116.328713 294.761314 
L 1116.441764 295.357971 
L 1116.554815 294.972025 
L 1116.780918 291.272699 
L 1117.120072 278.698317 
L 1117.572277 250.458672 
L 1118.363636 181.142171 
L 1119.381098 95.43769 
L 1119.833303 72.771021 
L 1120.172457 65.212347 
L 1120.285509 64.639479 
L 1120.39856 65.055612 
L 1120.624662 68.833278 
L 1120.963816 81.562789 
L 1121.416022 110.049606 
L 1122.207381 179.739898 
L 1123.111791 257.807104 
L 1123.563996 283.416554 
L 1123.90315 293.490524 
L 1124.129253 295.361966 
L 1124.242304 294.806596 
L 1124.468407 290.736197 
L 1124.807561 277.553034 
L 1125.259766 248.499506 
L 1126.051125 178.204872 
L 1126.955536 100.487615 
L 1127.407741 75.512876 
L 1127.746895 66.075979 
L 1127.972997 64.682501 
L 1128.086049 65.486971 
L 1128.312151 70.064859 
L 1128.651305 83.997314 
L 1129.10351 113.926608 
L 1129.894869 185.022133 
L 1130.79928 262.01451 
L 1131.251485 285.978799 
L 1131.590639 294.453823 
L 1131.70369 295.303967 
L 1131.816742 295.146577 
L 1132.042844 291.822362 
L 1132.381998 279.590568 
L 1132.834203 251.402838 
L 1133.625563 181.380294 
L 1134.643024 94.764052 
L 1135.09523 72.211486 
L 1135.434383 65.033804 
L 1135.547435 64.643063 
L 1135.660486 65.266816 
L 1135.886589 69.528114 
L 1136.225743 83.113069 
L 1136.677948 112.832979 
L 1137.469307 184.159217 
L 1138.373717 261.789417 
L 1138.825923 285.959973 
L 1139.165077 294.473318 
L 1139.278128 295.310964 
L 1139.391179 295.128281 
L 1139.617282 291.716272 
L 1139.956436 279.269904 
L 1140.408641 250.690345 
L 1141.2 180 
L 1141.2 180 
" clip-path="url(#pd0469441ba)" style="fill: none; stroke: #000000; stroke-linecap: square"/>
   </g>
  </g>
 </g>
 <defs>
  <clipPath id="pd0469441ba">
   <rect x="10.8" y="10.8" width="1130.4" height="338.4"/>
  </clipPath>
 </defs>
</svg>
