<?xml version="1.0" encoding="utf-8" standalone="no"?>
<!DOCTYPE svg PUBLIC "-//W3C//DTD SVG 1.1//EN"
  "http://www.w3.org/Graphics/SVG/1.1/DTD/svg11.dtd">
<svg xmlns:xlink="http://www.w3.org/1999/xlink" width="1152pt" height="54pt" viewBox="0 0 1152 54" xmlns="http://www.w3.org/2000/svg" version="1.1">
 <metadata>
  <rdf:RDF xmlns:dc="http://purl.org/dc/elements/1.1/" xmlns:cc="http://creativecommons.org/ns#" xmlns:rdf="http://www.w3.org/1999/02/22-rdf-syntax-ns#">
   <cc:Work>
    <dc:type rdf:resource="http://purl.org/dc/dcmitype/StillImage"/>
    <dc:date>2024-05-17T12:10:15.003622</dc:date>
    <dc:format>image/svg+xml</dc:format>
    <dc:creator>
     <cc:Agent>
      <dc:title>Matplotlib v3.7.0, https://matplotlib.org/</dc:title>
     </cc:Agent>
    </dc:creator>
   </cc:Work>
  </rdf:RDF>
 </metadata>
 <defs>
  <style type="text/css">*{stroke-linejoin: round; stroke-linecap: butt}</style>
 </defs>
 <g id="figure_1">
  <g id="patch_1">
   <path d="M 0 54 
L 1152 54 
L 1152 0 
L 0 0 
z
" style="fill: #ffffff"/>
  </g>
  <g id="axes_1">
   <g id="line2d_1">
    <path d="M 62.181818 25.719999 
L 65.267813 21.163435 
L 67.325143 18.428996 
L 69.382473 16.084199 
L 71.439803 14.235815 
L 72.468468 13.525091 
L 73.497133 12.968068 
L 74.525799 12.57112 
L 75.554464 12.338796 
L 76.583129 12.273767 
L 77.611794 12.376796 
L 78.640459 12.646728 
L 79.669124 13.080503 
L 80.697789 13.673188 
L 81.726454 14.418038 
L 83.783784 16.328647 
L 85.841114 18.725451 
L 87.898444 21.499384 
L 90.984439 26.08783 
L 95.099099 32.268148 
L 97.156429 35.067727 
L 99.213759 37.499687 
L 101.271089 39.453034 
L 102.299754 40.22138 
L 103.328419 40.83856 
L 104.357084 41.297497 
L 105.385749 41.592922 
L 106.414414 41.721435 
L 107.443079 41.681547 
L 108.471744 41.473693 
L 109.50041 41.100229 
L 110.529075 40.56541 
L 111.55774 39.875335 
L 113.61507 38.06262 
L 115.6724 35.744699 
L 117.72973 33.027289 
L 120.815725 28.477017 
L 125.95905 20.794666 
L 128.01638 18.097557 
L 130.07371 15.807131 
L 132.13104 14.028195 
L 133.159705 13.357014 
L 134.18837 12.842209 
L 135.217035 12.489701 
L 136.2457 12.303552 
L 137.274365 12.285917 
L 138.30303 12.437019 
L 139.331695 12.755146 
L 140.36036 13.23667 
L 141.389025 13.876086 
L 142.41769 14.666081 
L 144.47502 16.659997 
L 146.532351 19.127302 
L 148.589681 21.955173 
L 152.704341 28.164464 
L 155.790336 32.745688 
L 157.847666 35.499745 
L 159.904996 37.864604 
L 161.962326 39.731806 
L 162.990991 40.451001 
L 164.019656 41.015656 
L 165.048321 41.419262 
L 166.076986 41.657161 
L 167.105651 41.726598 
L 168.134316 41.626754 
L 169.162981 41.358757 
L 170.191646 40.925666 
L 171.220311 40.332442 
L 172.248976 39.585886 
L 174.306306 37.66871 
L 176.363636 35.261948 
L 178.420966 32.47591 
L 181.506962 27.868527 
L 185.621622 21.669783 
L 187.678952 18.86719 
L 189.736282 16.437861 
L 191.793612 14.493472 
L 192.822277 13.732068 
L 193.850942 13.123462 
L 194.879607 12.674683 
L 195.908272 12.39092 
L 196.936937 12.275463 
L 197.965602 12.329664 
L 198.994267 12.552918 
L 200.022932 12.942673 
L 201.051597 13.494458 
L 202.080262 14.201932 
L 204.137592 16.049703 
L 206.194922 18.401161 
L 208.252252 21.148282 
L 211.338247 25.731043 
L 215.452907 31.961075 
L 217.510238 34.804656 
L 219.567568 37.289196 
L 221.624898 39.300218 
L 222.653563 40.09821 
L 223.682228 40.745003 
L 224.710893 41.23311 
L 225.739558 41.556874 
L 226.768223 41.712536 
L 227.796888 41.698278 
L 228.825553 41.514245 
L 229.854218 41.162539 
L 230.882883 40.647206 
L 231.911548 39.974177 
L 233.968878 38.187799 
L 236.026208 35.885599 
L 238.083538 33.173584 
L 241.169533 28.614252 
L 246.312858 20.885593 
L 248.370188 18.165375 
L 250.427518 15.852615 
L 252.484848 14.054152 
L 253.513514 13.374805 
L 254.542179 12.853131 
L 255.570844 12.49519 
L 256.599509 12.305146 
L 257.628174 12.285217 
L 258.656839 12.435657 
L 259.685504 12.754745 
L 260.714169 13.238805 
L 261.742834 13.882252 
L 262.771499 14.677653 
L 264.828829 16.685885 
L 266.886159 19.170847 
L 268.943489 22.017819 
L 273.058149 28.261074 
L 276.144144 32.85569 
L 278.201474 35.609498 
L 280.258804 37.965298 
L 282.316134 39.814011 
L 283.344799 40.520409 
L 284.373464 41.069974 
L 285.402129 41.456312 
L 286.430794 41.67492 
L 287.459459 41.723241 
L 288.488124 41.600692 
L 289.51679 41.308676 
L 290.545455 40.85056 
L 291.57412 40.231644 
L 292.602785 39.459092 
L 294.660115 37.490566 
L 296.717445 35.036015 
L 298.774775 32.209019 
L 302.889435 25.972477 
L 305.97543 21.354783 
L 308.03276 18.573936 
L 310.09009 16.183529 
L 312.14742 14.294501 
L 313.176085 13.566447 
L 314.20475 12.994585 
L 315.233415 12.585585 
L 316.26208 12.344223 
L 317.290745 12.273328 
L 318.31941 12.373744 
L 319.348075 12.644326 
L 320.37674 13.081945 
L 321.405405 13.68153 
L 322.43407 14.436122 
L 324.4914 16.373577 
L 326.548731 18.804507 
L 328.606061 21.61616 
L 331.692056 26.258703 
L 335.806716 32.483923 
L 337.864046 35.285702 
L 339.921376 37.702644 
L 341.978706 39.622315 
L 343.007371 40.366725 
L 344.036036 40.955353 
L 345.064701 41.381319 
L 346.093366 41.639636 
L 347.122031 41.727273 
L 348.150696 41.643185 
L 349.179361 41.388334 
L 350.208026 40.96567 
L 351.236691 40.380103 
L 352.265356 39.638443 
L 354.322686 37.723096 
L 356.380016 35.308614 
L 358.437346 32.507249 
L 361.523342 27.868296 
L 365.638002 21.627324 
L 367.695332 18.810382 
L 369.752662 16.374705 
L 371.809992 14.433863 
L 372.838657 13.678328 
L 373.867322 13.078415 
L 374.895987 12.641154 
L 375.924652 12.371673 
L 376.953317 12.273143 
L 377.981982 12.346737 
L 379.010647 12.591614 
L 380.039312 13.004934 
L 381.067977 13.581885 
L 382.096642 14.315741 
L 384.153972 16.218184 
L 386.211302 18.623672 
L 388.268632 21.420111 
L 391.354627 26.059072 
L 395.469287 32.311863 
L 397.526618 35.138429 
L 399.583948 37.585222 
L 401.641278 39.537886 
L 402.669943 40.299357 
L 403.698608 40.905099 
L 404.727273 41.348 
L 405.755938 41.622851 
L 406.784603 41.726412 
L 407.813268 41.657449 
L 408.841933 41.416749 
L 409.870598 41.007111 
L 410.899263 40.433316 
L 411.927928 39.702068 
L 413.985258 37.803164 
L 416.042588 35.399035 
L 418.099918 32.601974 
L 421.185913 27.959129 
L 425.300573 21.69814 
L 427.357903 18.867375 
L 429.415233 16.417003 
L 431.472563 14.461814 
L 432.501229 13.699586 
L 433.529894 13.093465 
L 434.558559 12.650586 
L 435.587224 12.376169 
L 436.615889 12.273456 
L 437.644554 12.343675 
L 438.673219 12.586021 
L 439.701884 12.99767 
L 440.730549 13.573807 
L 441.759214 14.307684 
L 443.816544 16.212494 
L 445.873874 18.62298 
L 447.931204 21.426285 
L 451.017199 26.076978 
L 455.131859 32.3426 
L 457.189189 35.172139 
L 459.246519 37.618537 
L 461.303849 39.566919 
L 462.332514 40.324708 
L 463.361179 40.925736 
L 464.389844 41.362911 
L 465.418509 41.631069 
L 466.447174 41.727032 
L 467.475839 41.649651 
L 468.504505 41.399815 
L 469.53317 40.980445 
L 470.561835 40.396457 
L 471.5905 39.654708 
L 473.64783 37.734544 
L 475.70516 35.310005 
L 477.76249 32.494871 
L 480.848485 27.83247 
L 484.963145 21.565982 
L 487.020475 18.743211 
L 489.077805 16.308459 
L 491.135135 14.376323 
L 492.1638 13.628221 
L 493.192465 13.037804 
L 494.22113 12.612054 
L 495.249795 12.356015 
L 496.27846 12.272727 
L 497.307125 12.363194 
L 498.33579 12.62637 
L 499.364455 13.059169 
L 500.39312 13.656505 
L 501.421785 14.411348 
L 503.479115 16.356237 
L 505.536446 18.802408 
L 507.593776 21.634795 
L 510.679771 26.312468 
L 514.794431 32.575597 
L 516.851761 35.385826 
L 518.909091 37.801044 
L 520.966421 39.707305 
L 521.995086 40.440392 
L 523.023751 41.014612 
L 524.052416 41.423158 
L 525.081081 41.661177 
L 526.109746 41.725836 
L 527.138411 41.616347 
L 528.167076 41.333986 
L 529.195741 40.882071 
L 530.224406 40.265927 
L 531.253071 39.492824 
L 533.310401 37.513998 
L 535.367731 35.038837 
L 537.425061 32.184048 
L 541.539722 25.885909 
L 544.625717 21.233203 
L 546.683047 18.441635 
L 548.740377 16.054154 
L 550.797707 14.183663 
L 551.826372 13.471026 
L 552.855037 12.918679 
L 553.883702 12.533187 
L 554.912367 12.319138 
L 555.941032 12.279091 
L 556.969697 12.41354 
L 557.998362 12.720914 
L 559.027027 13.197589 
L 560.055692 13.837934 
L 561.084357 14.634376 
L 563.141687 16.656104 
L 565.199017 19.167282 
L 567.256347 22.049223 
L 571.371007 28.369138 
L 574.457002 33.00658 
L 576.514333 35.772908 
L 578.571663 38.124043 
L 580.628993 39.948536 
L 581.657658 40.635152 
L 582.686323 41.159841 
L 583.714988 41.51635 
L 584.743653 41.700424 
L 585.772318 41.709856 
L 586.800983 41.544512 
L 587.829648 41.206335 
L 588.858313 40.699325 
L 589.886978 40.029485 
L 590.915643 39.204757 
L 592.972973 37.131503 
L 595.030303 34.577722 
L 597.087633 31.664401 
L 605.316953 19.293386 
L 607.374283 16.758476 
L 609.431613 14.709488 
L 610.460278 13.898683 
L 611.488943 13.243811 
L 612.517609 12.752688 
L 613.546274 12.431179 
L 614.574939 12.283134 
L 615.603604 12.310338 
L 616.632269 12.512486 
L 617.660934 12.887193 
L 618.689599 13.430017 
L 619.718264 14.13451 
L 621.775594 15.993187 
L 623.832924 18.375046 
L 625.890254 21.167012 
L 628.976249 25.830002 
L 633.090909 32.153132 
L 635.148239 35.021477 
L 637.205569 37.508476 
L 639.262899 39.495714 
L 640.291564 40.271276 
L 641.320229 40.888511 
L 642.348894 41.340034 
L 643.377559 41.620438 
L 644.406224 41.726354 
L 645.434889 41.656498 
L 646.463554 41.411682 
L 647.492219 40.994807 
L 648.520885 40.410831 
L 649.54955 39.666705 
L 651.60688 37.735279 
L 653.66421 35.292379 
L 655.72154 32.454256 
L 658.807535 27.755214 
L 662.922195 21.4526 
L 664.979525 18.62387 
L 667.036855 16.194286 
L 669.094185 14.279804 
L 670.12285 13.545386 
L 671.151515 12.971858 
L 672.18018 12.5661 
L 673.208845 12.332985 
L 674.23751 12.275324 
L 675.266175 12.393826 
L 676.29484 12.687097 
L 677.323505 13.151646 
L 678.35217 13.781936 
L 679.380835 14.570443 
L 681.438165 16.582653 
L 683.495495 19.092353 
L 685.552826 21.979827 
L 689.667486 28.325368 
L 692.753481 32.986845 
L 694.810811 35.767519 
L 696.868141 38.129408 
L 698.925471 39.95952 
L 699.954136 40.646663 
L 700.982801 41.170236 
L 702.011466 41.523943 
L 703.040131 41.703522 
L 704.068796 41.706799 
L 705.097461 41.533712 
L 706.126126 41.186318 
L 707.154791 40.668761 
L 708.183456 39.987229 
L 709.212121 39.149878 
L 711.269451 37.049577 
L 713.326781 34.46822 
L 715.384111 31.529237 
L 723.613432 19.122095 
L 725.670762 16.603822 
L 727.728092 14.58338 
L 728.756757 13.7912 
L 729.785422 13.157693 
L 730.814087 12.690489 
L 731.842752 12.395222 
L 732.871417 12.275463 
L 733.900082 12.33267 
L 734.928747 12.566179 
L 735.957412 12.973203 
L 736.986077 13.548869 
L 738.014742 14.286278 
L 740.072072 16.209092 
L 742.129402 18.649576 
L 744.186732 21.490792 
L 747.272727 26.202352 
L 751.387387 32.528672 
L 753.444717 35.368664 
L 755.502048 37.807113 
L 757.559378 39.726836 
L 758.588043 40.462225 
L 759.616708 41.035518 
L 760.645373 41.439792 
L 761.674038 41.670155 
L 762.702703 41.723814 
L 763.731368 41.600099 
L 764.760033 41.300481 
L 765.788698 40.828548 
L 766.817363 40.189966 
L 767.846028 39.392411 
L 769.903358 37.360553 
L 771.960688 34.830504 
L 774.018018 31.923784 
L 778.132678 25.550505 
L 781.218673 20.884246 
L 783.276003 18.110388 
L 785.333333 15.764077 
L 787.390663 13.958336 
L 788.419328 13.286521 
L 789.447993 12.780213 
L 790.476658 12.445545 
L 791.505324 12.286577 
L 792.533989 12.305249 
L 793.562654 12.501358 
L 794.591319 12.872557 
L 795.619984 13.414383 
L 796.648649 14.120313 
L 797.677314 14.981841 
L 799.734644 17.128377 
L 801.791974 19.750707 
L 804.877969 24.295333 
L 811.049959 33.739743 
L 813.107289 36.435454 
L 815.164619 38.676294 
L 816.193284 39.591318 
L 817.221949 40.35406 
L 818.250614 40.955277 
L 819.279279 41.387673 
L 820.307944 41.645997 
L 821.336609 41.727102 
L 822.365274 41.629985 
L 823.393939 41.355801 
L 824.422604 40.907847 
L 825.451269 40.291524 
L 826.479934 39.514273 
L 828.537265 37.516389 
L 830.594595 35.010524 
L 832.651925 32.117582 
L 836.766585 25.741074 
L 839.85258 21.048724 
L 841.90991 18.248864 
L 843.96724 15.8718 
L 846.02457 14.032557 
L 847.053235 13.343592 
L 848.0819 12.820197 
L 849.110565 12.468738 
L 850.13923 12.293499 
L 851.167895 12.296627 
L 852.19656 12.478104 
L 853.225225 12.835751 
L 854.25389 13.36525 
L 855.282555 14.060197 
L 856.31122 14.912179 
L 858.36855 17.044188 
L 860.42588 19.658227 
L 862.48321 22.627869 
L 870.712531 35.078717 
L 872.769861 37.576919 
L 874.827191 39.562821 
L 875.855856 40.332442 
L 876.884521 40.940063 
L 877.913186 41.37828 
L 878.941851 41.641746 
L 879.970516 41.727237 
L 880.999181 41.633693 
L 882.027846 41.362229 
L 883.056511 40.916126 
L 884.085176 40.300787 
L 885.113841 39.523675 
L 887.171171 37.523713 
L 889.228501 35.013109 
L 891.285831 32.113547 
L 895.400491 25.722073 
L 898.486486 21.02116 
L 900.543817 18.218704 
L 902.601147 15.842431 
L 904.658477 14.007846 
L 905.687142 13.322729 
L 906.715807 12.80419 
L 907.744472 12.458566 
L 908.773137 12.290088 
L 909.801802 12.300829 
L 910.830467 12.490682 
L 911.859132 12.857352 
L 912.887797 13.396394 
L 913.916462 14.101256 
L 914.945127 14.963369 
L 917.002457 17.11559 
L 919.059787 19.748557 
L 921.117117 22.734348 
L 929.346437 35.196165 
L 931.403767 37.679573 
L 933.461097 39.643362 
L 934.489762 40.399362 
L 935.518428 40.991807 
L 936.547093 41.413446 
L 937.575758 41.659109 
L 938.604423 41.725775 
L 939.633088 41.61261 
L 940.661753 41.320973 
L 941.690418 40.854406 
L 942.719083 40.218587 
L 943.747748 39.421263 
L 945.805078 37.382843 
L 947.862408 34.838332 
L 949.919738 31.911616 
L 954.034398 25.493579 
L 957.120393 20.802085 
L 959.177723 18.020878 
L 961.235053 15.677435 
L 963.292383 13.886187 
L 964.321048 13.226167 
L 965.349713 12.734664 
L 966.378378 12.417714 
L 967.407043 12.279215 
L 968.435708 12.320884 
L 969.464373 12.542232 
L 970.493038 12.940572 
L 971.521704 13.511047 
L 972.550369 14.246695 
L 974.607699 16.175638 
L 976.665029 18.633349 
L 978.722359 21.499907 
L 981.808354 26.256411 
L 985.923014 32.633435 
L 987.980344 35.485729 
L 990.037674 37.92341 
L 992.095004 39.827194 
L 993.123669 40.54859 
L 994.152334 41.103857 
L 995.180999 41.486167 
L 996.209664 41.690809 
L 997.238329 41.715253 
L 998.266994 41.559176 
L 999.295659 41.224473 
L 1000.324324 40.715229 
L 1001.352989 40.037671 
L 1002.381654 39.200094 
L 1004.438984 37.087765 
L 1006.496314 34.481496 
L 1008.553645 31.50876 
L 1016.782965 18.979659 
L 1018.840295 16.458848 
L 1020.897625 14.454378 
L 1021.92629 13.677638 
L 1022.954955 13.064611 
L 1023.98362 12.622853 
L 1025.012285 12.357814 
L 1026.04095 12.272774 
L 1027.069615 12.368799 
L 1028.09828 12.644731 
L 1029.126945 13.097198 
L 1030.15561 13.720655 
L 1031.184275 14.507457 
L 1033.241605 16.530568 
L 1035.298935 19.067427 
L 1037.356265 21.993688 
L 1041.470925 28.428268 
L 1044.556921 33.141591 
L 1046.614251 35.938626 
L 1048.671581 38.296932 
L 1050.728911 40.100579 
L 1051.757576 40.765484 
L 1052.786241 41.260836 
L 1053.814906 41.580511 
L 1054.843571 41.720549 
L 1055.872236 41.679204 
L 1056.900901 41.456964 
L 1057.929566 41.056546 
L 1058.958231 40.482864 
L 1059.986896 39.742968 
L 1062.044226 37.802881 
L 1064.101556 35.33152 
L 1066.158886 32.450284 
L 1069.244881 27.6735 
L 1073.359541 21.281492 
L 1075.416871 18.430124 
L 1077.474201 16.000303 
L 1079.531532 14.111729 
L 1080.560197 13.40068 
L 1081.588862 12.857507 
L 1082.617527 12.488937 
L 1083.646192 12.299542 
L 1084.674857 12.291682 
L 1085.703522 12.465476 
L 1086.732187 12.818798 
L 1087.760852 13.347305 
L 1088.789517 14.04449 
L 1089.818182 14.901759 
L 1089.818182 14.901759 
" clip-path="url(#p6f7d4b6f41)" style="fill: none; stroke: #000000; stroke-width: 1.5; stroke-linecap: square"/>
   </g>
  </g>
 </g>
 <defs>
  <clipPath id="p6f7d4b6f41">
   <rect x="10.8" y="10.8" width="1130.4" height="32.4"/>
  </clipPath>
 </defs>
</svg>
