<?xml version="1.0" encoding="UTF-8"?>
<svg id="Layer_1" data-name="Layer 1" xmlns="http://www.w3.org/2000/svg" xmlns:xlink="http://www.w3.org/1999/xlink" viewBox="0 0 762.91 469.08">
  <defs>
    <style>
      .cls-1 {
        letter-spacing: .03em;
      }

      .cls-2 {
        letter-spacing: -.03em;
      }

      .cls-3 {
        fill: #fc6;
      }

      .cls-3, .cls-4, .cls-5 {
        opacity: .4;
      }

      .cls-3, .cls-4, .cls-5, .cls-6, .cls-7 {
        stroke-width: 0px;
      }

      .cls-8 {
        stroke-dasharray: 0 0 2.99 1.99;
      }

      .cls-8, .cls-9, .cls-10 {
        stroke: #000;
      }

      .cls-8, .cls-9, .cls-10, .cls-6, .cls-11, .cls-12, .cls-13 {
        fill: none;
      }

      .cls-8, .cls-10 {
        stroke-width: .4px;
      }

      .cls-8, .cls-10, .cls-11, .cls-12, .cls-13 {
        stroke-miterlimit: 10;
      }

      .cls-8, .cls-11, .cls-12, .cls-13, .cls-7 {
        opacity: .7;
      }

      .cls-14 {
        font-size: 8.97px;
      }

      .cls-14, .cls-15 {
        font-family: Consolas, Consolas;
      }

      .cls-16, .cls-17 {
        font-family: Consolas-Bold, Consolas;
        font-weight: 700;
      }

      .cls-16, .cls-15 {
        font-size: 9.96px;
      }

      .cls-9 {
        stroke-linecap: square;
        stroke-linejoin: round;
      }

      .cls-4 {
        fill: #004d9b;
      }

      .cls-18 {
        letter-spacing: 0em;
      }

      .cls-5 {
        fill: #6ad595;
      }

      .cls-11 {
        stroke: #155555;
        stroke-width: 1.59px;
      }

      .cls-19 {
        clip-path: url(#clippath-1);
      }

      .cls-20 {
        letter-spacing: -.03em;
      }

      .cls-12 {
        stroke-width: 2.27px;
      }

      .cls-12, .cls-13 {
        stroke: #1c1c71;
      }

      .cls-17 {
        font-size: 15px;
      }

      .cls-21 {
        clip-path: url(#clippath);
      }

      .cls-13 {
        stroke-width: 2.23px;
      }

      .cls-7 {
        fill: #1c1c71;
      }
    </style>
    <clipPath id="clippath">
      <rect class="cls-6" x="-34.48" y="215.17" width="301.79" height="12.23" transform="translate(-122.38 147.13) rotate(-45)"/>
    </clipPath>
    <clipPath id="clippath-1">
      <rect class="cls-6" x="500.99" y="230.91" width="301.79" height="12.23" transform="translate(23.33 530.38) rotate(-45)"/>
    </clipPath>
  </defs>
  <g>
    <path class="cls-4" d="m22.66,336.78h-5.67L235.26,118.51h5.67L22.66,336.78Zm0,0h-5.67v5.67h5.67v-5.67Z"/>
    <path class="cls-10" d="m22.66,336.78h-5.67L235.26,118.51h5.67L22.66,336.78Zm0,0h-5.67v5.67h5.67v-5.67Z"/>
  </g>
  <line class="cls-8" x1="240.93" y1="124.18" x2="235.26" y2="124.18"/>
  <line class="cls-8" x1="16.99" y1="342.45" x2="235.26" y2="124.18"/>
  <line class="cls-8" x1="235.26" y1="118.51" x2="235.26" y2="124.18"/>
  <line class="cls-10" x1="16.99" y1="342.45" x2="22.66" y2="342.45"/>
  <g>
    <polygon class="cls-4" points="22.66 336.78 240.93 118.51 240.93 124.18 22.66 342.45 22.66 336.78"/>
    <polygon class="cls-10" points="22.66 336.78 240.93 118.51 240.93 124.18 22.66 342.45 22.66 336.78"/>
  </g>
  <line class="cls-10" x1="22.66" y1="342.45" x2="240.93" y2="124.18"/>
  <text class="cls-14" transform="translate(35.72 341.54) rotate(-45)"><tspan x="0" y="0">1000</tspan></text>
  <line class="cls-10" x1="16.99" y1="342.45" x2="16.99" y2="336.78"/>
  <text class="cls-17" transform="translate(0 369.8)"><tspan x="0" y="0">Input</tspan></text>
  <g>
    <path class="cls-3" d="m122.37,276.75h-11.34l98.22-98.22h11.34l-98.22,98.22Zm0,0h-11.34v5.67h11.34v-5.67Z"/>
    <path class="cls-10" d="m122.37,276.75h-11.34l98.22-98.22h11.34l-98.22,98.22Zm0,0h-11.34v5.67h11.34v-5.67Z"/>
  </g>
  <line class="cls-8" x1="220.59" y1="184.2" x2="209.25" y2="184.2"/>
  <line class="cls-8" x1="111.03" y1="282.42" x2="209.25" y2="184.2"/>
  <line class="cls-8" x1="209.25" y1="178.54" x2="209.25" y2="184.2"/>
  <line class="cls-10" x1="111.03" y1="282.42" x2="122.37" y2="282.42"/>
  <text class="cls-15" transform="translate(111.72 292.36)"><tspan x="0" y="0">16</tspan></text>
  <g>
    <polygon class="cls-3" points="122.37 276.75 220.59 178.54 220.59 184.2 122.37 282.42 122.37 276.75"/>
    <polygon class="cls-10" points="122.37 276.75 220.59 178.54 220.59 184.2 122.37 282.42 122.37 276.75"/>
  </g>
  <line class="cls-10" x1="122.37" y1="282.42" x2="220.59" y2="184.2"/>
  <text class="cls-14" transform="translate(133.06 282.88) rotate(-45)"><tspan x="0" y="0">452</tspan></text>
  <line class="cls-10" x1="111.03" y1="282.42" x2="111.03" y2="276.75"/>
  <text class="cls-16" transform="translate(202.76 172.75)"><tspan x="0" y="0">Co</tspan><tspan class="cls-2" x="10.96" y="0">n</tspan><tspan x="16.12" y="0">v1</tspan></text>
  <line class="cls-11" x1="131.8" y1="230.48" x2="160.14" y2="230.48"/>
  <line class="cls-12" x1="143.49" y1="230.48" x2="144.01" y2="230.48"/>
  <g>
    <polygon class="cls-7" points="148.83 230.48 142.4 228.03 144.57 230.48 142.4 232.93 148.83 230.48"/>
    <polygon class="cls-13" points="148.83 230.48 142.4 228.03 144.57 230.48 142.4 232.93 148.83 230.48"/>
  </g>
  <g>
    <path class="cls-3" d="m211.36,247.29h-17.01l39.29-39.29h17.01l-39.29,39.29Zm0,0h-17.01v5.67h17.01v-5.67Z"/>
    <path class="cls-10" d="m211.36,247.29h-17.01l39.29-39.29h17.01l-39.29,39.29Zm0,0h-17.01v5.67h17.01v-5.67Z"/>
  </g>
  <line class="cls-8" x1="250.65" y1="213.67" x2="233.64" y2="213.67"/>
  <line class="cls-8" x1="194.36" y1="252.96" x2="233.64" y2="213.67"/>
  <line class="cls-8" x1="233.64" y1="208" x2="233.64" y2="213.67"/>
  <line class="cls-10" x1="194.36" y1="252.96" x2="211.36" y2="252.96"/>
  <text class="cls-15" transform="translate(197.88 262.9)"><tspan x="0" y="0">32</tspan></text>
  <g>
    <polygon class="cls-3" points="211.36 247.29 250.65 208 250.65 213.67 211.36 252.96 211.36 247.29"/>
    <polygon class="cls-10" points="211.36 247.29 250.65 208 250.65 213.67 211.36 252.96 211.36 247.29"/>
  </g>
  <line class="cls-10" x1="211.36" y1="252.96" x2="250.65" y2="213.67"/>
  <text class="cls-14" transform="translate(222.05 253.42) rotate(-45)"><tspan x="0" y="0">178</tspan></text>
  <line class="cls-10" x1="194.36" y1="252.96" x2="194.36" y2="247.29"/>
  <text class="cls-16" transform="translate(228.95 201.28)"><tspan x="0" y="0">Co</tspan><tspan class="cls-2" x="10.96" y="0">n</tspan><tspan x="16.12" y="0">v2</tspan></text>
  <line class="cls-11" x1="171.48" y1="230.48" x2="214" y2="230.48"/>
  <line class="cls-12" x1="190.27" y1="230.48" x2="190.78" y2="230.48"/>
  <g>
    <polygon class="cls-7" points="195.6 230.48 189.17 228.03 191.34 230.48 189.17 232.93 195.6 230.48"/>
    <polygon class="cls-13" points="195.6 230.48 189.17 228.03 191.34 230.48 189.17 232.93 195.6 230.48"/>
  </g>
  <g>
    <path class="cls-3" d="m289.66,234.19h-22.68l13.1-13.1h22.68l-13.1,13.1Zm0,0h-22.68v5.67h22.68v-5.67Z"/>
    <path class="cls-10" d="m289.66,234.19h-22.68l13.1-13.1h22.68l-13.1,13.1Zm0,0h-22.68v5.67h22.68v-5.67Z"/>
  </g>
  <line class="cls-8" x1="302.75" y1="226.77" x2="280.08" y2="226.77"/>
  <line class="cls-8" x1="266.98" y1="239.86" x2="280.08" y2="226.77"/>
  <line class="cls-8" x1="280.08" y1="221.1" x2="280.08" y2="226.77"/>
  <line class="cls-10" x1="266.98" y1="239.86" x2="289.66" y2="239.86"/>
  <text class="cls-15" transform="translate(273.34 249.8)"><tspan x="0" y="0">64</tspan></text>
  <g>
    <polygon class="cls-3" points="289.66 234.19 302.75 221.1 302.75 226.77 289.66 239.86 289.66 234.19"/>
    <polygon class="cls-10" points="289.66 234.19 302.75 221.1 302.75 226.77 289.66 239.86 289.66 234.19"/>
  </g>
  <line class="cls-10" x1="289.66" y1="239.86" x2="302.75" y2="226.77"/>
  <text class="cls-14" transform="translate(295.97 243.69) rotate(-45)"><tspan x="0" y="0">41</tspan></text>
  <line class="cls-10" x1="266.98" y1="239.86" x2="266.98" y2="234.19"/>
  <text class="cls-16" transform="translate(279.4 215.19)"><tspan x="0" y="0">Co</tspan><tspan class="cls-2" x="10.96" y="0">n</tspan><tspan x="16.12" y="0">v3</tspan></text>
  <line class="cls-11" x1="231.01" y1="230.48" x2="273.53" y2="230.48"/>
  <line class="cls-12" x1="249.79" y1="230.48" x2="250.31" y2="230.48"/>
  <g>
    <polygon class="cls-7" points="255.13 230.48 248.7 228.03 250.86 230.48 248.7 232.93 255.13 230.48"/>
    <polygon class="cls-13" points="255.13 230.48 248.7 228.03 250.86 230.48 248.7 232.93 255.13 230.48"/>
  </g>
  <g>
    <path class="cls-3" d="m343.3,18.97h-5.67l2.18-2.18h5.67l-2.18,2.18Zm0,0h-5.67v425.2h5.67V18.97Z"/>
    <path class="cls-10" d="m343.3,18.97h-5.67l2.18-2.18h5.67l-2.18,2.18Zm0,0h-5.67v425.2h5.67V18.97Z"/>
  </g>
  <line class="cls-8" x1="345.49" y1="441.99" x2="339.82" y2="441.99"/>
  <line class="cls-8" x1="337.63" y1="444.17" x2="339.82" y2="441.99"/>
  <line class="cls-8" x1="339.82" y1="16.79" x2="339.82" y2="441.99"/>
  <line class="cls-10" x1="337.63" y1="444.17" x2="343.3" y2="444.17"/>
  <g>
    <polygon class="cls-3" points="343.3 18.97 345.49 16.79 345.49 441.99 343.3 444.17 343.3 18.97"/>
    <polygon class="cls-10" points="343.3 18.97 345.49 16.79 345.49 441.99 343.3 444.17 343.3 18.97"/>
  </g>
  <line class="cls-10" x1="343.3" y1="444.17" x2="345.49" y2="441.99"/>
  <line class="cls-10" x1="337.63" y1="444.17" x2="337.63" y2="18.97"/>
  <text class="cls-16" transform="translate(322.33 8.16)"><tspan x="0" y="0">Resha</tspan><tspan class="cls-1" x="27.39" y="0">p</tspan><tspan x="33.18" y="0">e</tspan></text>
  <line class="cls-11" x1="296.21" y1="230.48" x2="338.73" y2="230.48"/>
  <line class="cls-12" x1="314.99" y1="230.48" x2="315.5" y2="230.48"/>
  <g>
    <polygon class="cls-7" points="320.32 230.48 313.89 228.03 316.06 230.48 313.89 232.93 320.32 230.48"/>
    <polygon class="cls-13" points="320.32 230.48 313.89 228.03 316.06 230.48 313.89 232.93 320.32 230.48"/>
  </g>
  <g>
    <path class="cls-5" d="m391.49,203.22h-5.67l2.18-2.18h5.67l-2.18,2.18Zm0,0h-5.67v56.69h5.67v-56.69Z"/>
    <path class="cls-10" d="m391.49,203.22h-5.67l2.18-2.18h5.67l-2.18,2.18Zm0,0h-5.67v56.69h5.67v-56.69Z"/>
  </g>
  <line class="cls-8" x1="393.68" y1="257.73" x2="388.01" y2="257.73"/>
  <line class="cls-8" x1="385.82" y1="259.92" x2="388.01" y2="257.73"/>
  <line class="cls-8" x1="388.01" y1="201.04" x2="388.01" y2="257.73"/>
  <line class="cls-10" x1="385.82" y1="259.92" x2="391.49" y2="259.92"/>
  <g>
    <polygon class="cls-5" points="391.49 203.22 393.68 201.04 393.68 257.73 391.49 259.92 391.49 203.22"/>
    <polygon class="cls-10" points="391.49 203.22 393.68 201.04 393.68 257.73 391.49 259.92 391.49 203.22"/>
  </g>
  <line class="cls-10" x1="391.49" y1="259.92" x2="393.68" y2="257.73"/>
  <line class="cls-10" x1="385.82" y1="259.92" x2="385.82" y2="203.22"/>
  <text class="cls-16" transform="translate(382.18 195.24)"><tspan x="0" y="0">Fc1</tspan></text>
  <line class="cls-11" x1="344.4" y1="230.48" x2="386.92" y2="230.48"/>
  <line class="cls-12" x1="363.18" y1="230.48" x2="363.69" y2="230.48"/>
  <g>
    <polygon class="cls-7" points="368.51 230.48 362.08 228.03 364.25 230.48 362.08 232.93 368.51 230.48"/>
    <polygon class="cls-13" points="368.51 230.48 362.08 228.03 364.25 230.48 362.08 232.93 368.51 230.48"/>
  </g>
  <g>
    <path class="cls-3" d="m425.51,18.97h-5.67l2.18-2.18h5.67l-2.18,2.18Zm0,0h-5.67v425.2h5.67V18.97Z"/>
    <path class="cls-10" d="m425.51,18.97h-5.67l2.18-2.18h5.67l-2.18,2.18Zm0,0h-5.67v425.2h5.67V18.97Z"/>
  </g>
  <line class="cls-8" x1="427.69" y1="441.99" x2="422.02" y2="441.99"/>
  <line class="cls-8" x1="419.84" y1="444.17" x2="422.02" y2="441.99"/>
  <line class="cls-8" x1="422.02" y1="16.79" x2="422.02" y2="441.99"/>
  <line class="cls-10" x1="419.84" y1="444.17" x2="425.51" y2="444.17"/>
  <g>
    <polygon class="cls-3" points="425.51 18.97 427.69 16.79 427.69 441.99 425.51 444.17 425.51 18.97"/>
    <polygon class="cls-10" points="425.51 18.97 427.69 16.79 427.69 441.99 425.51 444.17 425.51 18.97"/>
  </g>
  <line class="cls-10" x1="425.51" y1="444.17" x2="427.69" y2="441.99"/>
  <line class="cls-10" x1="419.84" y1="444.17" x2="419.84" y2="18.97"/>
  <text class="cls-16" transform="translate(415.54 9.09)"><tspan x="0" y="0">Fc2</tspan></text>
  <line class="cls-11" x1="392.58" y1="230.48" x2="420.93" y2="230.48"/>
  <line class="cls-12" x1="404.28" y1="230.48" x2="404.8" y2="230.48"/>
  <g>
    <polygon class="cls-7" points="409.61 230.48 403.19 228.03 405.35 230.48 403.19 232.93 409.61 230.48"/>
    <polygon class="cls-13" points="409.61 230.48 403.19 228.03 405.35 230.48 403.19 232.93 409.61 230.48"/>
  </g>
  <g>
    <path class="cls-3" d="m471.08,234.19h-22.68l13.1-13.1h22.68l-13.1,13.1Zm0,0h-22.68v5.67h22.68v-5.67Z"/>
    <path class="cls-10" d="m471.08,234.19h-22.68l13.1-13.1h22.68l-13.1,13.1Zm0,0h-22.68v5.67h22.68v-5.67Z"/>
  </g>
  <line class="cls-8" x1="484.17" y1="226.77" x2="461.5" y2="226.77"/>
  <line class="cls-8" x1="448.4" y1="239.86" x2="461.5" y2="226.77"/>
  <line class="cls-8" x1="461.5" y1="221.1" x2="461.5" y2="226.77"/>
  <line class="cls-10" x1="448.4" y1="239.86" x2="471.08" y2="239.86"/>
  <text class="cls-15" transform="translate(454.75 249.8)"><tspan x="0" y="0">64</tspan></text>
  <g>
    <polygon class="cls-3" points="471.08 234.19 484.17 221.1 484.17 226.77 471.08 239.86 471.08 234.19"/>
    <polygon class="cls-10" points="471.08 234.19 484.17 221.1 484.17 226.77 471.08 239.86 471.08 234.19"/>
  </g>
  <line class="cls-10" x1="471.08" y1="239.86" x2="484.17" y2="226.77"/>
  <text class="cls-14" transform="translate(477.39 246.69) rotate(-45)"><tspan x="0" y="0">41</tspan></text>
  <line class="cls-10" x1="448.4" y1="239.86" x2="448.4" y2="234.19"/>
  <text class="cls-16" transform="translate(460.82 215.19)"><tspan x="0" y="0">Co</tspan><tspan class="cls-20" x="10.96" y="0">n</tspan><tspan class="cls-18" x="16.12" y="0">v4</tspan></text>
  <line class="cls-11" x1="426.6" y1="230.48" x2="454.95" y2="230.48"/>
  <line class="cls-12" x1="438.3" y1="230.48" x2="438.81" y2="230.48"/>
  <g>
    <polygon class="cls-7" points="443.63 230.48 437.2 228.03 439.37 230.48 437.2 232.93 443.63 230.48"/>
    <polygon class="cls-13" points="443.63 230.48 437.2 228.03 439.37 230.48 437.2 232.93 443.63 230.48"/>
  </g>
  <g>
    <path class="cls-3" d="m503.34,247.29h-17.01l39.29-39.29h17.01l-39.29,39.29Zm0,0h-17.01v5.67h17.01v-5.67Z"/>
    <path class="cls-10" d="m503.34,247.29h-17.01l39.29-39.29h17.01l-39.29,39.29Zm0,0h-17.01v5.67h17.01v-5.67Z"/>
  </g>
  <line class="cls-8" x1="542.62" y1="213.67" x2="525.62" y2="213.67"/>
  <line class="cls-8" x1="486.33" y1="252.96" x2="525.62" y2="213.67"/>
  <line class="cls-8" x1="525.62" y1="208" x2="525.62" y2="213.67"/>
  <line class="cls-10" x1="486.33" y1="252.96" x2="503.34" y2="252.96"/>
  <text class="cls-15" transform="translate(489.85 262.9)"><tspan x="0" y="0">32</tspan></text>
  <g>
    <polygon class="cls-3" points="503.34 247.29 542.62 208 542.62 213.67 503.34 252.96 503.34 247.29"/>
    <polygon class="cls-10" points="503.34 247.29 542.62 208 542.62 213.67 503.34 252.96 503.34 247.29"/>
  </g>
  <line class="cls-10" x1="503.34" y1="252.96" x2="542.62" y2="213.67"/>
  <text class="cls-14" transform="translate(514.02 255.42) rotate(-45)"><tspan x="0" y="0">178</tspan></text>
  <line class="cls-10" x1="486.33" y1="252.96" x2="486.33" y2="247.29"/>
  <text class="cls-16" transform="translate(520.91 201.28)"><tspan x="0" y="0">Co</tspan><tspan class="cls-20" x="10.96" y="0">n</tspan><tspan class="cls-18" x="16.12" y="0">v5</tspan></text>
  <line class="cls-11" x1="477.62" y1="230.48" x2="505.97" y2="230.48"/>
  <line class="cls-12" x1="489.32" y1="230.48" x2="489.83" y2="230.48"/>
  <g>
    <polygon class="cls-7" points="494.65 230.48 488.22 228.03 490.39 230.48 488.22 232.93 494.65 230.48"/>
    <polygon class="cls-13" points="494.65 230.48 488.22 228.03 490.39 230.48 488.22 232.93 494.65 230.48"/>
  </g>
  <g>
    <path class="cls-3" d="m527.73,276.75h-11.34l98.22-98.22h11.34l-98.22,98.22Zm0,0h-11.34v5.67h11.34v-5.67Z"/>
    <path class="cls-10" d="m527.73,276.75h-11.34l98.22-98.22h11.34l-98.22,98.22Zm0,0h-11.34v5.67h11.34v-5.67Z"/>
  </g>
  <line class="cls-8" x1="625.95" y1="184.2" x2="614.61" y2="184.2"/>
  <line class="cls-8" x1="516.39" y1="282.42" x2="614.61" y2="184.2"/>
  <line class="cls-8" x1="614.61" y1="178.54" x2="614.61" y2="184.2"/>
  <line class="cls-10" x1="516.39" y1="282.42" x2="527.73" y2="282.42"/>
  <text class="cls-15" transform="translate(517.07 292.36)"><tspan x="0" y="0">16</tspan></text>
  <g>
    <polygon class="cls-3" points="527.73 276.75 625.95 178.54 625.95 184.2 527.73 282.42 527.73 276.75"/>
    <polygon class="cls-10" points="527.73 276.75 625.95 178.54 625.95 184.2 527.73 282.42 527.73 276.75"/>
  </g>
  <line class="cls-10" x1="527.73" y1="282.42" x2="625.95" y2="184.2"/>
  <text class="cls-14" transform="translate(538.41 284.88) rotate(-45)"><tspan x="0" y="0">452</tspan></text>
  <line class="cls-10" x1="516.39" y1="282.42" x2="516.39" y2="276.75"/>
  <text class="cls-16" transform="translate(608.11 172.75)"><tspan x="0" y="0">Co</tspan><tspan class="cls-20" x="10.96" y="0">n</tspan><tspan class="cls-18" x="16.12" y="0">v6</tspan></text>
  <line class="cls-11" x1="522.98" y1="230.48" x2="565.5" y2="230.48"/>
  <line class="cls-12" x1="541.76" y1="230.48" x2="542.27" y2="230.48"/>
  <g>
    <polygon class="cls-7" points="547.09 230.48 540.66 228.03 542.83 230.48 540.66 232.93 547.09 230.48"/>
    <polygon class="cls-13" points="547.09 230.48 540.66 228.03 542.83 230.48 540.66 232.93 547.09 230.48"/>
  </g>
  <g>
    <path class="cls-4" d="m530.07,336.78h-5.67l218.26-218.26h5.67l-218.26,218.26Zm0,0h-5.67v5.67h5.67v-5.67Z"/>
    <path class="cls-10" d="m530.07,336.78h-5.67l218.26-218.26h5.67l-218.26,218.26Zm0,0h-5.67v5.67h5.67v-5.67Z"/>
  </g>
  <line class="cls-8" x1="748.33" y1="124.18" x2="742.66" y2="124.18"/>
  <line class="cls-8" x1="524.4" y1="342.45" x2="742.66" y2="124.18"/>
  <line class="cls-8" x1="742.66" y1="118.51" x2="742.66" y2="124.18"/>
  <line class="cls-10" x1="524.4" y1="342.45" x2="530.07" y2="342.45"/>
  <g>
    <polygon class="cls-4" points="530.07 336.78 748.33 118.51 748.33 124.18 530.07 342.45 530.07 336.78"/>
    <polygon class="cls-10" points="530.07 336.78 748.33 118.51 748.33 124.18 530.07 342.45 530.07 336.78"/>
  </g>
  <line class="cls-10" x1="530.07" y1="342.45" x2="748.33" y2="124.18"/>
  <text class="cls-14" transform="translate(535.12 349.54) rotate(-45)"><tspan x="0" y="0">1000</tspan></text>
  <line class="cls-10" x1="524.4" y1="342.45" x2="524.4" y2="336.78"/>
  <text class="cls-17" transform="translate(502.76 369.8)"><tspan x="0" y="0">Output</tspan></text>
  <line class="cls-11" x1="576.84" y1="230.48" x2="633.53" y2="230.48"/>
  <line class="cls-12" x1="602.7" y1="230.48" x2="603.22" y2="230.48"/>
  <g>
    <polygon class="cls-7" points="608.04 230.48 601.61 228.03 603.78 230.48 601.61 232.93 608.04 230.48"/>
    <polygon class="cls-13" points="608.04 230.48 601.61 228.03 603.78 230.48 601.61 232.93 608.04 230.48"/>
  </g>
  <text class="cls-15" transform="translate(312.09 407.26)"><tspan x="0" y="0">2624</tspan></text>
  <text class="cls-15" transform="translate(393.68 407.26)"><tspan x="0" y="0">2624</tspan></text>
  <text class="cls-15" transform="translate(363.69 249.69)"><tspan x="0" y="0">100</tspan></text>
  <g id="figure_1" data-name="figure 1">
    <g id="axes_1" data-name="axes 1">
      <g id="line2d_1" data-name="line2d 1">
        <g class="cls-21">
          <path class="cls-9" d="m19.07,317.94l-.63-1.8-.34-1.12-.24-1.01-.1-.88v-.38s.05-.34.05-.34l.09-.3.13-.26.18-.21.22-.17.27-.12.31-.08.35-.04h.39s.9.13.9.13l1.03.25,1.13.35,1.81.64,2.43.87,1.14.36,1.04.26.91.13h.4s.36-.02.36-.02l.32-.07.27-.12.23-.16.18-.2.14-.25.09-.29.05-.34v-.38s-.09-.87-.09-.87l-.23-1.01-.34-1.11-.63-1.8-1.08-3.02-.33-1.11-.22-1-.09-.86.02-.37.06-.33.1-.29.14-.24.19-.2.23-.15.28-.11.32-.07.36-.02.41.02.92.14,1.05.27,1.14.37,2.43.88,1.81.64,1.12.35,1.02.24.89.11h.39s.34-.05.34-.05l.3-.09.26-.13.21-.18.17-.22.12-.27.08-.31.04-.35v-.39s-.13-.9-.13-.9l-.25-1.03-.36-1.13-.65-1.81-.88-2.43-.36-1.14-.26-1.04-.13-.91v-.4s.02-.36.02-.36l.07-.31.12-.27.16-.22.21-.18.25-.13.3-.09.34-.05h.38s.88.1.88.1l1.02.24,1.12.34,1.81.64,2.44.89,1.15.37,1.05.27.93.15.41.02.37-.02.32-.06.28-.11.24-.15.19-.2.15-.24.1-.29.06-.33v-.37s-.07-.87-.07-.87l-.23-1-.34-1.11-.63-1.8-1.09-3.03-.34-1.11-.23-1.01-.09-.87v-.38s.07-.33.07-.33l.1-.29.14-.24.19-.2.23-.15.28-.11.32-.07.37-.02.41.02.92.15,1.05.27,1.15.37,2.44.89,1.81.64,1.12.35,1.02.24.88.1h.38s.34-.05.34-.05l.3-.09.25-.14.21-.18.16-.23.12-.27.07-.32.03-.36v-.4s-.15-.91-.15-.91l-.27-1.04-.37-1.14-.89-2.44-.65-1.81-.35-1.13-.25-1.03-.12-.89v-.39s.04-.35.04-.35l.09-.3.13-.26.18-.21.22-.17.27-.12.31-.08.35-.03h.4s.91.14.91.14l1.04.26,1.14.36,1.82.66,2.44.88,1.14.36,1.03.26.9.12h.39s.35-.03.35-.03l.31-.08.26-.13.22-.17.17-.22.13-.26.08-.31.04-.35v-.39s-.13-.9-.13-.9l-.26-1.03-.36-1.14-.66-1.82-.89-2.44-.36-1.14-.26-1.04-.13-.91v-.4s.03-.35.03-.35l.08-.31.12-.27.17-.22.21-.17.26-.13.3-.08.35-.04h.39s.9.12.9.12l1.03.25,1.13.36,1.82.66,2.45.89,1.14.37,1.04.26.91.13h.4s.36-.02.36-.02l.31-.08.27-.12.22-.17.18-.21.13-.26.08-.3.04-.35v-.39s-.12-.9-.12-.9l-.25-1.03-.36-1.13-.66-1.82-.89-2.45-.37-1.14-.27-1.04-.13-.91v-.4s.02-.36.02-.36l.08-.31.12-.27.17-.22.21-.18.26-.13.3-.08.35-.04h.39s.9.12.9.12l1.03.25,1.14.36,1.82.66,2.45.9,1.14.37,1.04.26.91.13h.4s.35-.03.35-.03l.31-.08.27-.12.22-.17.17-.21.13-.26.08-.31.04-.35v-.39s-.13-.9-.13-.9l-.26-1.04-.36-1.14-.66-1.83-.9-2.45-.36-1.14-.26-1.04-.13-.9v-.39s.03-.35.03-.35l.08-.31.13-.26.17-.22.22-.17.26-.12.31-.08.35-.03h.4s.91.14.91.14l1.04.26,1.14.37,1.83.67,2.45.89,1.14.36,1.03.26.9.12h.39s.35-.04.35-.04l.3-.09.26-.13.21-.18.16-.22.12-.27.07-.31.03-.36v-.4s-.15-.92-.15-.92l-.27-1.05-.37-1.15-.9-2.46-.66-1.82-.36-1.13-.25-1.03-.11-.89v-.38s.05-.34.05-.34l.09-.3.14-.25.18-.2.23-.16.28-.11.32-.07.37-.02.41.02.93.15,1.06.28,1.16.38,2.46.91,1.82.65,1.13.35,1.02.24.88.1h.38s.33-.07.33-.07l.29-.1.24-.15.2-.19.15-.24.1-.28.06-.33.02-.37-.03-.41-.16-.94-.29-1.07-.39-1.17-1.75-4.85-.29-1.06-.16-.94-.02-.41.02-.37.06-.33.11-.28.15-.23.2-.19.25-.14.29-.09.34-.05h.38s.88.1.88.1l1.02.25,1.13.36,1.83.66,2.46.91,1.15.38,1.05.28.92.14h.4s.36-.02.36-.02l.31-.07.27-.12.22-.17.18-.21.13-.26.08-.31.04-.35v-.39s-.13-.9-.13-.9l-.26-1.04-.37-1.15-.67-1.84-.91-2.46-.37-1.14-.26-1.04-.12-.9v-.39s.04-.35.04-.35l.09-.3.13-.26.18-.21.23-.16.27-.12.32-.07.36-.03.4.02.93.15,1.06.28,1.16.38,2.47.92,1.83.66,1.13.35,1.02.24.88.1h.38s.33-.07.33-.07l.29-.1.24-.15.2-.19.15-.24.1-.29.06-.33v-.38s-.02-.42-.02-.42l-.17-.95-.3-1.08-.4-1.17-1.76-4.86-.28-1.06-.15-.93-.02-.41.03-.36.07-.32.12-.27.16-.23.21-.18.26-.13.3-.09.35-.04h.39s.9.13.9.13l1.04.26,1.15.37,1.84.67,2.46.91,1.15.37,1.04.26.9.12h.39s.35-.04.35-.04l.3-.09.26-.13.21-.18.16-.23.11-.27.07-.32.02-.36-.02-.41-.15-.93-.29-1.06-.39-1.16-.92-2.48-.66-1.83-.35-1.13-.24-1.01-.09-.87v-.37s.07-.33.07-.33l.1-.28.15-.24.2-.19.25-.14.29-.1.34-.05h.38s.42.03.42.03l.96.18,1.09.31,1.8.63,3.69,1.36,1.11.33.99.21.44.05h.4s.35-.02.35-.02l.31-.08.26-.13.22-.17.17-.22.12-.27.07-.31.03-.36v-.4s-.16-.92-.16-.92l-.28-1.06-.38-1.16-.92-2.48-.67-1.83-.36-1.14-.25-1.02-.1-.88v-.38s.06-.33.06-.33l.1-.29.15-.24.2-.19.24-.15.29-.1.34-.05h.38s.42.02.42.02l.96.18,1.09.31,1.18.4,4.88,1.77,1.06.28.92.14h.4s.36-.02.36-.02l.31-.08.26-.12.22-.17.17-.22.12-.27.08-.31.03-.36v-.4s-.16-.92-.16-.92l-.28-1.06-.39-1.16-.93-2.48-.67-1.84-.36-1.14-.25-1.02-.1-.88v-.38s.07-.33.07-.33l.1-.29.15-.24.2-.19.24-.14.29-.1.34-.05h.38s.42.03.42.03l.96.19,1.09.31,1.19.41,4.88,1.77,1.05.27.91.14h.4s.35-.03.35-.03l.31-.08.26-.13.21-.18.16-.22.12-.27.07-.32.02-.36-.02-.41-.16-.93-.29-1.07-.39-1.17-.94-2.49-.67-1.83-.35-1.13-.24-1.01-.09-.87.02-.37.06-.33.11-.28.16-.23.21-.18.25-.14.3-.09.35-.04h.39s.9.13.9.13l1.04.27,1.15.38,1.85.69,2.48.92,1.15.37,1.04.26.9.12h.39s.34-.05.34-.05l.3-.09.25-.14.2-.19.15-.24.1-.28.06-.33v-.37s-.02-.42-.02-.42l-.18-.95-.31-1.08-.4-1.18-1.79-4.9-.28-1.06-.15-.92v-.4s.02-.36.02-.36l.08-.31.12-.26.17-.22.22-.17.27-.12.31-.07.36-.03.4.02.93.15,1.07.29,1.17.39,2.49.94,1.84.68,1.13.36,1.02.24.87.09.37-.02.33-.06.28-.11.23-.16.18-.21.13-.25.09-.3.04-.35v-.39s-.13-.91-.13-.91l-.27-1.05-.38-1.16-.69-1.86-.93-2.48-.37-1.15-.26-1.04-.12-.89v-.38s.05-.34.05-.34l.1-.29.14-.24.19-.2.24-.15.29-.1.34-.05h.38s.42.03.42.03h0"/>
        </g>
      </g>
    </g>
  </g>
  <g id="figure_1-2" data-name="figure 1">
    <g id="axes_1-2" data-name="axes 1">
      <g id="line2d_1-2" data-name="line2d 1">
        <g class="cls-19">
          <path class="cls-9" d="m554.55,333.68l-.63-1.8-.34-1.12-.24-1.01-.1-.88v-.38s.05-.34.05-.34l.09-.3.13-.26.18-.21.22-.17.27-.12.31-.08.35-.04h.39s.9.13.9.13l1.03.25,1.13.35,1.81.64,2.43.87,1.14.36,1.04.26.91.13h.4s.36-.02.36-.02l.32-.07.27-.12.23-.16.18-.2.14-.25.09-.29.05-.34v-.38s-.09-.87-.09-.87l-.23-1.01-.34-1.11-.63-1.8-1.08-3.02-.33-1.11-.22-1-.09-.86.02-.37.06-.33.1-.29.14-.24.19-.2.23-.15.28-.11.32-.07.36-.02.41.02.92.14,1.05.27,1.14.37,2.43.88,1.81.64,1.12.35,1.02.24.89.11h.39s.34-.05.34-.05l.3-.09.26-.13.21-.18.17-.22.12-.27.08-.31.04-.35v-.39s-.13-.9-.13-.9l-.25-1.03-.36-1.13-.65-1.81-.88-2.43-.36-1.14-.26-1.04-.13-.91v-.4s.02-.36.02-.36l.07-.31.12-.27.16-.22.21-.18.25-.13.3-.09.34-.05h.38s.88.1.88.1l1.02.24,1.12.34,1.81.64,2.44.89,1.15.37,1.05.27.93.15.41.02.37-.02.32-.06.28-.11.24-.15.19-.2.15-.24.1-.29.06-.33v-.37s-.07-.87-.07-.87l-.23-1-.34-1.11-.63-1.8-1.09-3.03-.34-1.11-.23-1.01-.09-.87v-.38s.07-.33.07-.33l.1-.29.14-.24.19-.2.23-.15.28-.11.32-.07.37-.02.41.02.92.15,1.05.27,1.15.37,2.44.89,1.81.64,1.12.35,1.02.24.88.1h.38s.34-.05.34-.05l.3-.09.25-.14.21-.18.16-.23.12-.27.07-.32.03-.36v-.4s-.15-.91-.15-.91l-.27-1.04-.37-1.14-.89-2.44-.65-1.81-.35-1.13-.25-1.03-.12-.89v-.39s.04-.35.04-.35l.09-.3.13-.26.18-.21.22-.17.27-.12.31-.08.35-.03h.4s.91.14.91.14l1.04.26,1.14.36,1.82.66,2.44.88,1.14.36,1.03.26.9.12h.39s.35-.03.35-.03l.31-.08.26-.13.22-.17.17-.22.13-.26.08-.31.04-.35v-.39s-.13-.9-.13-.9l-.26-1.03-.36-1.14-.66-1.82-.89-2.44-.36-1.14-.26-1.04-.13-.91v-.4s.03-.35.03-.35l.08-.31.12-.27.17-.22.21-.17.26-.13.3-.08.35-.04h.39s.9.12.9.12l1.03.25,1.13.36,1.82.66,2.45.89,1.14.37,1.04.26.91.13h.4s.36-.02.36-.02l.31-.08.27-.12.22-.17.18-.21.13-.26.08-.3.04-.35v-.39s-.12-.9-.12-.9l-.25-1.03-.36-1.13-.66-1.82-.89-2.45-.37-1.14-.27-1.04-.13-.91v-.4s.02-.36.02-.36l.08-.31.12-.27.17-.22.21-.18.26-.13.3-.08.35-.04h.39s.9.12.9.12l1.03.25,1.14.36,1.82.66,2.45.9,1.14.37,1.04.26.91.13h.4s.35-.03.35-.03l.31-.08.27-.12.22-.17.17-.21.13-.26.08-.31.04-.35v-.39s-.13-.9-.13-.9l-.26-1.04-.36-1.14-.66-1.83-.9-2.45-.36-1.14-.26-1.04-.13-.9v-.39s.03-.35.03-.35l.08-.31.13-.26.17-.22.22-.17.26-.12.31-.08.35-.03h.4s.91.14.91.14l1.04.26,1.14.37,1.83.67,2.45.89,1.14.36,1.03.26.9.12h.39s.35-.04.35-.04l.3-.09.26-.13.21-.18.16-.22.12-.27.07-.31.03-.36v-.4s-.15-.92-.15-.92l-.27-1.05-.37-1.15-.9-2.46-.66-1.82-.36-1.13-.25-1.03-.11-.89v-.38s.05-.34.05-.34l.09-.3.14-.25.18-.2.23-.16.28-.11.32-.07.37-.02.41.02.93.15,1.06.28,1.16.38,2.46.91,1.82.65,1.13.35,1.02.24.88.1h.38s.33-.07.33-.07l.29-.1.24-.15.2-.19.15-.24.1-.28.06-.33.02-.37-.03-.41-.16-.94-.29-1.07-.39-1.17-1.75-4.85-.29-1.06-.16-.94-.02-.41.02-.37.06-.33.11-.28.15-.23.2-.19.25-.14.29-.09.34-.05h.38s.88.1.88.1l1.02.25,1.13.36,1.83.66,2.46.91,1.15.38,1.05.28.92.14h.4s.36-.02.36-.02l.31-.07.27-.12.22-.17.18-.21.13-.26.08-.31.04-.35v-.39s-.13-.9-.13-.9l-.26-1.04-.37-1.15-.67-1.84-.91-2.46-.37-1.14-.26-1.04-.12-.9v-.39s.04-.35.04-.35l.09-.3.13-.26.18-.21.23-.16.27-.12.32-.07.36-.03.4.02.93.15,1.06.28,1.16.38,2.47.92,1.83.66,1.13.35,1.02.24.88.1h.38s.33-.07.33-.07l.29-.1.24-.15.2-.19.15-.24.1-.29.06-.33v-.38s-.02-.42-.02-.42l-.17-.95-.3-1.08-.4-1.17-1.76-4.86-.28-1.06-.15-.93-.02-.41.03-.36.07-.32.12-.27.16-.23.21-.18.26-.13.3-.09.35-.04h.39s.9.13.9.13l1.04.26,1.15.37,1.84.67,2.46.91,1.15.37,1.04.26.9.12h.39s.35-.04.35-.04l.3-.09.26-.13.21-.18.16-.23.11-.27.07-.32.02-.36-.02-.41-.15-.93-.29-1.06-.39-1.16-.92-2.48-.66-1.83-.35-1.13-.24-1.01-.09-.87v-.37s.07-.33.07-.33l.1-.28.15-.24.2-.19.25-.14.29-.1.34-.05h.38s.42.03.42.03l.96.18,1.09.31,1.8.63,3.69,1.36,1.11.33.99.21.44.05h.4s.35-.02.35-.02l.31-.08.26-.13.22-.17.17-.22.12-.27.07-.31.03-.36v-.4s-.16-.92-.16-.92l-.28-1.06-.38-1.16-.92-2.48-.67-1.83-.36-1.14-.25-1.02-.1-.88v-.38s.06-.33.06-.33l.1-.29.15-.24.2-.19.24-.15.29-.1.34-.05h.38s.42.02.42.02l.96.18,1.09.31,1.18.4,4.88,1.77,1.06.28.92.14h.4s.36-.02.36-.02l.31-.08.26-.12.22-.17.17-.22.12-.27.08-.31.03-.36v-.4s-.16-.92-.16-.92l-.28-1.06-.39-1.16-.93-2.48-.67-1.84-.36-1.14-.25-1.02-.1-.88v-.38s.07-.33.07-.33l.1-.29.15-.24.2-.19.24-.14.29-.1.34-.05h.38s.42.03.42.03l.96.19,1.09.31,1.19.41,4.88,1.77,1.05.27.91.14h.4s.35-.03.35-.03l.31-.08.26-.13.21-.18.16-.22.12-.27.07-.32.02-.36-.02-.41-.16-.93-.29-1.07-.39-1.17-.94-2.49-.67-1.83-.35-1.13-.24-1.01-.09-.87.02-.37.06-.33.11-.28.16-.23.21-.18.25-.14.3-.09.35-.04h.39s.9.13.9.13l1.04.27,1.15.38,1.85.69,2.48.92,1.15.37,1.04.26.9.12h.39s.34-.05.34-.05l.3-.09.25-.14.2-.19.15-.24.1-.28.06-.33v-.37s-.02-.42-.02-.42l-.18-.95-.31-1.08-.4-1.18-1.79-4.9-.28-1.06-.15-.92v-.4s.02-.36.02-.36l.08-.31.12-.26.17-.22.22-.17.27-.12.31-.07.36-.03.4.02.93.15,1.07.29,1.17.39,2.49.94,1.84.68,1.13.36,1.02.24.87.09.37-.02.33-.06.28-.11.23-.16.18-.21.13-.25.09-.3.04-.35v-.39s-.13-.91-.13-.91l-.27-1.05-.38-1.16-.69-1.86-.93-2.48-.37-1.15-.26-1.04-.12-.89v-.38s.05-.34.05-.34l.1-.29.14-.24.19-.2.24-.15.29-.1.34-.05h.38s.42.03.42.03h0"/>
        </g>
      </g>
    </g>
  </g>
</svg>