<?xml version="1.0" encoding="utf-8" standalone="no"?>
<!DOCTYPE svg PUBLIC "-//W3C//DTD SVG 1.1//EN"
  "http://www.w3.org/Graphics/SVG/1.1/DTD/svg11.dtd">
<svg xmlns:xlink="http://www.w3.org/1999/xlink" width="720pt" height="432pt" viewBox="0 0 720 432" xmlns="http://www.w3.org/2000/svg" version="1.1">
 <metadata>
  <rdf:RDF xmlns:dc="http://purl.org/dc/elements/1.1/" xmlns:cc="http://creativecommons.org/ns#" xmlns:rdf="http://www.w3.org/1999/02/22-rdf-syntax-ns#">
   <cc:Work>
    <dc:type rdf:resource="http://purl.org/dc/dcmitype/StillImage"/>
    <dc:date>2024-05-16T21:13:11.017576</dc:date>
    <dc:format>image/svg+xml</dc:format>
    <dc:creator>
     <cc:Agent>
      <dc:title>Matplotlib v3.7.0, https://matplotlib.org/</dc:title>
     </cc:Agent>
    </dc:creator>
   </cc:Work>
  </rdf:RDF>
 </metadata>
 <defs>
  <style type="text/css">*{stroke-linejoin: round; stroke-linecap: butt}</style>
 </defs>
 <g id="figure_1">
  <g id="patch_1">
   <path d="M 0 432 
L 720 432 
L 720 0 
L 0 0 
z
" style="fill: #ffffff"/>
  </g>
  <g id="axes_1">
   <g id="patch_2">
    <path d="M 76.718 396.92 
L 346.005 396.92 
L 346.005 17.087442 
L 76.718 17.087442 
z
" style="fill: #ffffff"/>
   </g>
   <g id="patch_3">
    <path d="M 88.958318 396.289049 
L 170.560439 396.289049 
L 170.560439 40.914068 
L 88.958318 40.914068 
z
" clip-path="url(#pe7bc70a3b6)" style="fill: #4e79a7; opacity: 0.8; stroke: #ffffff; stroke-linejoin: miter"/>
   </g>
   <g id="patch_4">
    <path d="M 252.162561 396.289049 
L 333.764682 396.289049 
L 333.764682 357.511879 
L 252.162561 357.511879 
z
" clip-path="url(#pe7bc70a3b6)" style="fill: #f28e2b; opacity: 0.8; stroke: #ffffff; stroke-linejoin: miter"/>
   </g>
   <g id="matplotlib.axis_1">
    <g id="xtick_1">
     <g id="line2d_1">
      <defs>
       <path id="m7cea424356" d="M 0 0 
L 0 3.5 
" style="stroke: #000000; stroke-width: 0.8"/>
      </defs>
      <g>
       <use xlink:href="#m7cea424356" x="129.759379" y="396.92" style="stroke: #000000; stroke-width: 0.8"/>
      </g>
     </g>
     <g id="text_1">
      <!-- Sparse -->
      <g transform="translate(94.863285 417.597188) scale(0.18 -0.18)">
       <defs>
        <path id="DejaVuSans-Bold-53" d="M 3834 4519 
L 3834 3531 
Q 3450 3703 3084 3790 
Q 2719 3878 2394 3878 
Q 1963 3878 1756 3759 
Q 1550 3641 1550 3391 
Q 1550 3203 1689 3098 
Q 1828 2994 2194 2919 
L 2706 2816 
Q 3484 2659 3812 2340 
Q 4141 2022 4141 1434 
Q 4141 663 3683 286 
Q 3225 -91 2284 -91 
Q 1841 -91 1394 -6 
Q 947 78 500 244 
L 500 1259 
Q 947 1022 1364 901 
Q 1781 781 2169 781 
Q 2563 781 2772 912 
Q 2981 1044 2981 1288 
Q 2981 1506 2839 1625 
Q 2697 1744 2272 1838 
L 1806 1941 
Q 1106 2091 782 2419 
Q 459 2747 459 3303 
Q 459 4000 909 4375 
Q 1359 4750 2203 4750 
Q 2588 4750 2994 4692 
Q 3400 4634 3834 4519 
z
" transform="scale(0.015625)"/>
        <path id="DejaVuSans-Bold-70" d="M 1656 506 
L 1656 -1331 
L 538 -1331 
L 538 3500 
L 1656 3500 
L 1656 2988 
Q 1888 3294 2169 3439 
Q 2450 3584 2816 3584 
Q 3463 3584 3878 3070 
Q 4294 2556 4294 1747 
Q 4294 938 3878 423 
Q 3463 -91 2816 -91 
Q 2450 -91 2169 54 
Q 1888 200 1656 506 
z
M 2400 2772 
Q 2041 2772 1848 2508 
Q 1656 2244 1656 1747 
Q 1656 1250 1848 986 
Q 2041 722 2400 722 
Q 2759 722 2948 984 
Q 3138 1247 3138 1747 
Q 3138 2247 2948 2509 
Q 2759 2772 2400 2772 
z
" transform="scale(0.015625)"/>
        <path id="DejaVuSans-Bold-61" d="M 2106 1575 
Q 1756 1575 1579 1456 
Q 1403 1338 1403 1106 
Q 1403 894 1545 773 
Q 1688 653 1941 653 
Q 2256 653 2472 879 
Q 2688 1106 2688 1447 
L 2688 1575 
L 2106 1575 
z
M 3816 1997 
L 3816 0 
L 2688 0 
L 2688 519 
Q 2463 200 2181 54 
Q 1900 -91 1497 -91 
Q 953 -91 614 226 
Q 275 544 275 1050 
Q 275 1666 698 1953 
Q 1122 2241 2028 2241 
L 2688 2241 
L 2688 2328 
Q 2688 2594 2478 2717 
Q 2269 2841 1825 2841 
Q 1466 2841 1156 2769 
Q 847 2697 581 2553 
L 581 3406 
Q 941 3494 1303 3539 
Q 1666 3584 2028 3584 
Q 2975 3584 3395 3211 
Q 3816 2838 3816 1997 
z
" transform="scale(0.015625)"/>
        <path id="DejaVuSans-Bold-72" d="M 3138 2547 
Q 2991 2616 2845 2648 
Q 2700 2681 2553 2681 
Q 2122 2681 1889 2404 
Q 1656 2128 1656 1613 
L 1656 0 
L 538 0 
L 538 3500 
L 1656 3500 
L 1656 2925 
Q 1872 3269 2151 3426 
Q 2431 3584 2822 3584 
Q 2878 3584 2943 3579 
Q 3009 3575 3134 3559 
L 3138 2547 
z
" transform="scale(0.015625)"/>
        <path id="DejaVuSans-Bold-73" d="M 3272 3391 
L 3272 2541 
Q 2913 2691 2578 2766 
Q 2244 2841 1947 2841 
Q 1628 2841 1473 2761 
Q 1319 2681 1319 2516 
Q 1319 2381 1436 2309 
Q 1553 2238 1856 2203 
L 2053 2175 
Q 2913 2066 3209 1816 
Q 3506 1566 3506 1031 
Q 3506 472 3093 190 
Q 2681 -91 1863 -91 
Q 1516 -91 1145 -36 
Q 775 19 384 128 
L 384 978 
Q 719 816 1070 734 
Q 1422 653 1784 653 
Q 2113 653 2278 743 
Q 2444 834 2444 1013 
Q 2444 1163 2330 1236 
Q 2216 1309 1875 1350 
L 1678 1375 
Q 931 1469 631 1722 
Q 331 1975 331 2491 
Q 331 3047 712 3315 
Q 1094 3584 1881 3584 
Q 2191 3584 2531 3537 
Q 2872 3491 3272 3391 
z
" transform="scale(0.015625)"/>
        <path id="DejaVuSans-Bold-65" d="M 4031 1759 
L 4031 1441 
L 1416 1441 
Q 1456 1047 1700 850 
Q 1944 653 2381 653 
Q 2734 653 3104 758 
Q 3475 863 3866 1075 
L 3866 213 
Q 3469 63 3072 -14 
Q 2675 -91 2278 -91 
Q 1328 -91 801 392 
Q 275 875 275 1747 
Q 275 2603 792 3093 
Q 1309 3584 2216 3584 
Q 3041 3584 3536 3087 
Q 4031 2591 4031 1759 
z
M 2881 2131 
Q 2881 2450 2695 2645 
Q 2509 2841 2209 2841 
Q 1884 2841 1681 2658 
Q 1478 2475 1428 2131 
L 2881 2131 
z
" transform="scale(0.015625)"/>
       </defs>
       <use xlink:href="#DejaVuSans-Bold-53"/>
       <use xlink:href="#DejaVuSans-Bold-70" x="72.021484"/>
       <use xlink:href="#DejaVuSans-Bold-61" x="143.603516"/>
       <use xlink:href="#DejaVuSans-Bold-72" x="211.083984"/>
       <use xlink:href="#DejaVuSans-Bold-73" x="260.400391"/>
       <use xlink:href="#DejaVuSans-Bold-65" x="319.921875"/>
      </g>
     </g>
    </g>
    <g id="xtick_2">
     <g id="line2d_2">
      <g>
       <use xlink:href="#m7cea424356" x="292.963621" y="396.92" style="stroke: #000000; stroke-width: 0.8"/>
      </g>
     </g>
     <g id="text_2">
      <!-- Dense -->
      <g transform="translate(261.519871 417.597188) scale(0.18 -0.18)">
       <defs>
        <path id="DejaVuSans-Bold-44" d="M 1791 3756 
L 1791 909 
L 2222 909 
Q 2959 909 3348 1275 
Q 3738 1641 3738 2338 
Q 3738 3031 3350 3393 
Q 2963 3756 2222 3756 
L 1791 3756 
z
M 588 4666 
L 1856 4666 
Q 2919 4666 3439 4514 
Q 3959 4363 4331 4000 
Q 4659 3684 4818 3271 
Q 4978 2859 4978 2338 
Q 4978 1809 4818 1395 
Q 4659 981 4331 666 
Q 3956 303 3431 151 
Q 2906 0 1856 0 
L 588 0 
L 588 4666 
z
" transform="scale(0.015625)"/>
        <path id="DejaVuSans-Bold-6e" d="M 4056 2131 
L 4056 0 
L 2931 0 
L 2931 347 
L 2931 1631 
Q 2931 2084 2911 2256 
Q 2891 2428 2841 2509 
Q 2775 2619 2662 2680 
Q 2550 2741 2406 2741 
Q 2056 2741 1856 2470 
Q 1656 2200 1656 1722 
L 1656 0 
L 538 0 
L 538 3500 
L 1656 3500 
L 1656 2988 
Q 1909 3294 2193 3439 
Q 2478 3584 2822 3584 
Q 3428 3584 3742 3212 
Q 4056 2841 4056 2131 
z
" transform="scale(0.015625)"/>
       </defs>
       <use xlink:href="#DejaVuSans-Bold-44"/>
       <use xlink:href="#DejaVuSans-Bold-65" x="83.007812"/>
       <use xlink:href="#DejaVuSans-Bold-6e" x="150.830078"/>
       <use xlink:href="#DejaVuSans-Bold-73" x="222.021484"/>
       <use xlink:href="#DejaVuSans-Bold-65" x="281.542969"/>
      </g>
     </g>
    </g>
   </g>
   <g id="matplotlib.axis_2">
    <g id="ytick_1">
     <g id="line2d_3">
      <path d="M 76.718 396.289049 
L 346.005 396.289049 
" clip-path="url(#pe7bc70a3b6)" style="fill: none; stroke-dasharray: 2.59,1.12; stroke-dashoffset: 0; stroke: #b0b0b0; stroke-opacity: 0.7; stroke-width: 0.7"/>
     </g>
     <g id="line2d_4">
      <defs>
       <path id="md323920acd" d="M 0 0 
L -3.5 0 
" style="stroke: #000000; stroke-width: 0.8"/>
      </defs>
      <g>
       <use xlink:href="#md323920acd" x="76.718" y="396.289049" style="stroke: #000000; stroke-width: 0.8"/>
      </g>
     </g>
     <g id="text_3">
      <!-- 0 -->
      <g transform="translate(58.2655 403.127643) scale(0.18 -0.18)">
       <defs>
        <path id="DejaVuSans-30" d="M 2034 4250 
Q 1547 4250 1301 3770 
Q 1056 3291 1056 2328 
Q 1056 1369 1301 889 
Q 1547 409 2034 409 
Q 2525 409 2770 889 
Q 3016 1369 3016 2328 
Q 3016 3291 2770 3770 
Q 2525 4250 2034 4250 
z
M 2034 4750 
Q 2819 4750 3233 4129 
Q 3647 3509 3647 2328 
Q 3647 1150 3233 529 
Q 2819 -91 2034 -91 
Q 1250 -91 836 529 
Q 422 1150 422 2328 
Q 422 3509 836 4129 
Q 1250 4750 2034 4750 
z
" transform="scale(0.015625)"/>
       </defs>
       <use xlink:href="#DejaVuSans-30"/>
      </g>
     </g>
    </g>
    <g id="ytick_2">
     <g id="line2d_5">
      <path d="M 76.718 333.19394 
L 346.005 333.19394 
" clip-path="url(#pe7bc70a3b6)" style="fill: none; stroke-dasharray: 2.59,1.12; stroke-dashoffset: 0; stroke: #b0b0b0; stroke-opacity: 0.7; stroke-width: 0.7"/>
     </g>
     <g id="line2d_6">
      <g>
       <use xlink:href="#md323920acd" x="76.718" y="333.19394" style="stroke: #000000; stroke-width: 0.8"/>
      </g>
     </g>
     <g id="text_4">
      <!-- 1 -->
      <g transform="translate(58.2655 340.032533) scale(0.18 -0.18)">
       <defs>
        <path id="DejaVuSans-31" d="M 794 531 
L 1825 531 
L 1825 4091 
L 703 3866 
L 703 4441 
L 1819 4666 
L 2450 4666 
L 2450 531 
L 3481 531 
L 3481 0 
L 794 0 
L 794 531 
z
" transform="scale(0.015625)"/>
       </defs>
       <use xlink:href="#DejaVuSans-31"/>
      </g>
     </g>
    </g>
    <g id="ytick_3">
     <g id="line2d_7">
      <path d="M 76.718 270.09883 
L 346.005 270.09883 
" clip-path="url(#pe7bc70a3b6)" style="fill: none; stroke-dasharray: 2.59,1.12; stroke-dashoffset: 0; stroke: #b0b0b0; stroke-opacity: 0.7; stroke-width: 0.7"/>
     </g>
     <g id="line2d_8">
      <g>
       <use xlink:href="#md323920acd" x="76.718" y="270.09883" style="stroke: #000000; stroke-width: 0.8"/>
      </g>
     </g>
     <g id="text_5">
      <!-- 2 -->
      <g transform="translate(58.2655 276.937424) scale(0.18 -0.18)">
       <defs>
        <path id="DejaVuSans-32" d="M 1228 531 
L 3431 531 
L 3431 0 
L 469 0 
L 469 531 
Q 828 903 1448 1529 
Q 2069 2156 2228 2338 
Q 2531 2678 2651 2914 
Q 2772 3150 2772 3378 
Q 2772 3750 2511 3984 
Q 2250 4219 1831 4219 
Q 1534 4219 1204 4116 
Q 875 4013 500 3803 
L 500 4441 
Q 881 4594 1212 4672 
Q 1544 4750 1819 4750 
Q 2544 4750 2975 4387 
Q 3406 4025 3406 3419 
Q 3406 3131 3298 2873 
Q 3191 2616 2906 2266 
Q 2828 2175 2409 1742 
Q 1991 1309 1228 531 
z
" transform="scale(0.015625)"/>
       </defs>
       <use xlink:href="#DejaVuSans-32"/>
      </g>
     </g>
    </g>
    <g id="ytick_4">
     <g id="line2d_9">
      <path d="M 76.718 207.003721 
L 346.005 207.003721 
" clip-path="url(#pe7bc70a3b6)" style="fill: none; stroke-dasharray: 2.59,1.12; stroke-dashoffset: 0; stroke: #b0b0b0; stroke-opacity: 0.7; stroke-width: 0.7"/>
     </g>
     <g id="line2d_10">
      <g>
       <use xlink:href="#md323920acd" x="76.718" y="207.003721" style="stroke: #000000; stroke-width: 0.8"/>
      </g>
     </g>
     <g id="text_6">
      <!-- 3 -->
      <g transform="translate(58.2655 213.842315) scale(0.18 -0.18)">
       <defs>
        <path id="DejaVuSans-33" d="M 2597 2516 
Q 3050 2419 3304 2112 
Q 3559 1806 3559 1356 
Q 3559 666 3084 287 
Q 2609 -91 1734 -91 
Q 1441 -91 1130 -33 
Q 819 25 488 141 
L 488 750 
Q 750 597 1062 519 
Q 1375 441 1716 441 
Q 2309 441 2620 675 
Q 2931 909 2931 1356 
Q 2931 1769 2642 2001 
Q 2353 2234 1838 2234 
L 1294 2234 
L 1294 2753 
L 1863 2753 
Q 2328 2753 2575 2939 
Q 2822 3125 2822 3475 
Q 2822 3834 2567 4026 
Q 2313 4219 1838 4219 
Q 1578 4219 1281 4162 
Q 984 4106 628 3988 
L 628 4550 
Q 988 4650 1302 4700 
Q 1616 4750 1894 4750 
Q 2613 4750 3031 4423 
Q 3450 4097 3450 3541 
Q 3450 3153 3228 2886 
Q 3006 2619 2597 2516 
z
" transform="scale(0.015625)"/>
       </defs>
       <use xlink:href="#DejaVuSans-33"/>
      </g>
     </g>
    </g>
    <g id="ytick_5">
     <g id="line2d_11">
      <path d="M 76.718 143.908612 
L 346.005 143.908612 
" clip-path="url(#pe7bc70a3b6)" style="fill: none; stroke-dasharray: 2.59,1.12; stroke-dashoffset: 0; stroke: #b0b0b0; stroke-opacity: 0.7; stroke-width: 0.7"/>
     </g>
     <g id="line2d_12">
      <g>
       <use xlink:href="#md323920acd" x="76.718" y="143.908612" style="stroke: #000000; stroke-width: 0.8"/>
      </g>
     </g>
     <g id="text_7">
      <!-- 4 -->
      <g transform="translate(58.2655 150.747205) scale(0.18 -0.18)">
       <defs>
        <path id="DejaVuSans-34" d="M 2419 4116 
L 825 1625 
L 2419 1625 
L 2419 4116 
z
M 2253 4666 
L 3047 4666 
L 3047 1625 
L 3713 1625 
L 3713 1100 
L 3047 1100 
L 3047 0 
L 2419 0 
L 2419 1100 
L 313 1100 
L 313 1709 
L 2253 4666 
z
" transform="scale(0.015625)"/>
       </defs>
       <use xlink:href="#DejaVuSans-34"/>
      </g>
     </g>
    </g>
    <g id="ytick_6">
     <g id="line2d_13">
      <path d="M 76.718 80.813502 
L 346.005 80.813502 
" clip-path="url(#pe7bc70a3b6)" style="fill: none; stroke-dasharray: 2.59,1.12; stroke-dashoffset: 0; stroke: #b0b0b0; stroke-opacity: 0.7; stroke-width: 0.7"/>
     </g>
     <g id="line2d_14">
      <g>
       <use xlink:href="#md323920acd" x="76.718" y="80.813502" style="stroke: #000000; stroke-width: 0.8"/>
      </g>
     </g>
     <g id="text_8">
      <!-- 5 -->
      <g transform="translate(58.2655 87.652096) scale(0.18 -0.18)">
       <defs>
        <path id="DejaVuSans-35" d="M 691 4666 
L 3169 4666 
L 3169 4134 
L 1269 4134 
L 1269 2991 
Q 1406 3038 1543 3061 
Q 1681 3084 1819 3084 
Q 2600 3084 3056 2656 
Q 3513 2228 3513 1497 
Q 3513 744 3044 326 
Q 2575 -91 1722 -91 
Q 1428 -91 1123 -41 
Q 819 9 494 109 
L 494 744 
Q 775 591 1075 516 
Q 1375 441 1709 441 
Q 2250 441 2565 725 
Q 2881 1009 2881 1497 
Q 2881 1984 2565 2268 
Q 2250 2553 1709 2553 
Q 1456 2553 1204 2497 
Q 953 2441 691 2322 
L 691 4666 
z
" transform="scale(0.015625)"/>
       </defs>
       <use xlink:href="#DejaVuSans-35"/>
      </g>
     </g>
    </g>
    <g id="ytick_7">
     <g id="line2d_15">
      <path d="M 76.718 17.718393 
L 346.005 17.718393 
" clip-path="url(#pe7bc70a3b6)" style="fill: none; stroke-dasharray: 2.59,1.12; stroke-dashoffset: 0; stroke: #b0b0b0; stroke-opacity: 0.7; stroke-width: 0.7"/>
     </g>
     <g id="line2d_16">
      <g>
       <use xlink:href="#md323920acd" x="76.718" y="17.718393" style="stroke: #000000; stroke-width: 0.8"/>
      </g>
     </g>
     <g id="text_9">
      <!-- 6 -->
      <g transform="translate(58.2655 24.556987) scale(0.18 -0.18)">
       <defs>
        <path id="DejaVuSans-36" d="M 2113 2584 
Q 1688 2584 1439 2293 
Q 1191 2003 1191 1497 
Q 1191 994 1439 701 
Q 1688 409 2113 409 
Q 2538 409 2786 701 
Q 3034 994 3034 1497 
Q 3034 2003 2786 2293 
Q 2538 2584 2113 2584 
z
M 3366 4563 
L 3366 3988 
Q 3128 4100 2886 4159 
Q 2644 4219 2406 4219 
Q 1781 4219 1451 3797 
Q 1122 3375 1075 2522 
Q 1259 2794 1537 2939 
Q 1816 3084 2150 3084 
Q 2853 3084 3261 2657 
Q 3669 2231 3669 1497 
Q 3669 778 3244 343 
Q 2819 -91 2113 -91 
Q 1303 -91 875 529 
Q 447 1150 447 2328 
Q 447 3434 972 4092 
Q 1497 4750 2381 4750 
Q 2619 4750 2861 4703 
Q 3103 4656 3366 4563 
z
" transform="scale(0.015625)"/>
       </defs>
       <use xlink:href="#DejaVuSans-36"/>
      </g>
     </g>
    </g>
    <g id="text_10">
     <!-- spatial info. per neuron -->
     <g transform="translate(27.7105 340.067783) rotate(-90) scale(0.2 -0.2)">
      <defs>
       <path id="DejaVuSans-Bold-74" d="M 1759 4494 
L 1759 3500 
L 2913 3500 
L 2913 2700 
L 1759 2700 
L 1759 1216 
Q 1759 972 1856 886 
Q 1953 800 2241 800 
L 2816 800 
L 2816 0 
L 1856 0 
Q 1194 0 917 276 
Q 641 553 641 1216 
L 641 2700 
L 84 2700 
L 84 3500 
L 641 3500 
L 641 4494 
L 1759 4494 
z
" transform="scale(0.015625)"/>
       <path id="DejaVuSans-Bold-69" d="M 538 3500 
L 1656 3500 
L 1656 0 
L 538 0 
L 538 3500 
z
M 538 4863 
L 1656 4863 
L 1656 3950 
L 538 3950 
L 538 4863 
z
" transform="scale(0.015625)"/>
       <path id="DejaVuSans-Bold-6c" d="M 538 4863 
L 1656 4863 
L 1656 0 
L 538 0 
L 538 4863 
z
" transform="scale(0.015625)"/>
       <path id="DejaVuSans-Bold-20" transform="scale(0.015625)"/>
       <path id="DejaVuSans-Bold-66" d="M 2841 4863 
L 2841 4128 
L 2222 4128 
Q 1984 4128 1890 4042 
Q 1797 3956 1797 3744 
L 1797 3500 
L 2753 3500 
L 2753 2700 
L 1797 2700 
L 1797 0 
L 678 0 
L 678 2700 
L 122 2700 
L 122 3500 
L 678 3500 
L 678 3744 
Q 678 4316 997 4589 
Q 1316 4863 1984 4863 
L 2841 4863 
z
" transform="scale(0.015625)"/>
       <path id="DejaVuSans-Bold-6f" d="M 2203 2784 
Q 1831 2784 1636 2517 
Q 1441 2250 1441 1747 
Q 1441 1244 1636 976 
Q 1831 709 2203 709 
Q 2569 709 2762 976 
Q 2956 1244 2956 1747 
Q 2956 2250 2762 2517 
Q 2569 2784 2203 2784 
z
M 2203 3584 
Q 3106 3584 3614 3096 
Q 4122 2609 4122 1747 
Q 4122 884 3614 396 
Q 3106 -91 2203 -91 
Q 1297 -91 786 396 
Q 275 884 275 1747 
Q 275 2609 786 3096 
Q 1297 3584 2203 3584 
z
" transform="scale(0.015625)"/>
       <path id="DejaVuSans-Bold-2e" d="M 653 1209 
L 1778 1209 
L 1778 0 
L 653 0 
L 653 1209 
z
" transform="scale(0.015625)"/>
       <path id="DejaVuSans-Bold-75" d="M 500 1363 
L 500 3500 
L 1625 3500 
L 1625 3150 
Q 1625 2866 1622 2436 
Q 1619 2006 1619 1863 
Q 1619 1441 1641 1255 
Q 1663 1069 1716 984 
Q 1784 875 1895 815 
Q 2006 756 2150 756 
Q 2500 756 2700 1025 
Q 2900 1294 2900 1772 
L 2900 3500 
L 4019 3500 
L 4019 0 
L 2900 0 
L 2900 506 
Q 2647 200 2364 54 
Q 2081 -91 1741 -91 
Q 1134 -91 817 281 
Q 500 653 500 1363 
z
" transform="scale(0.015625)"/>
      </defs>
      <use xlink:href="#DejaVuSans-Bold-73"/>
      <use xlink:href="#DejaVuSans-Bold-70" x="59.521484"/>
      <use xlink:href="#DejaVuSans-Bold-61" x="131.103516"/>
      <use xlink:href="#DejaVuSans-Bold-74" x="198.583984"/>
      <use xlink:href="#DejaVuSans-Bold-69" x="246.386719"/>
      <use xlink:href="#DejaVuSans-Bold-61" x="280.664062"/>
      <use xlink:href="#DejaVuSans-Bold-6c" x="348.144531"/>
      <use xlink:href="#DejaVuSans-Bold-20" x="382.421875"/>
      <use xlink:href="#DejaVuSans-Bold-69" x="417.236328"/>
      <use xlink:href="#DejaVuSans-Bold-6e" x="451.513672"/>
      <use xlink:href="#DejaVuSans-Bold-66" x="522.705078"/>
      <use xlink:href="#DejaVuSans-Bold-6f" x="566.210938"/>
      <use xlink:href="#DejaVuSans-Bold-2e" x="634.912109"/>
      <use xlink:href="#DejaVuSans-Bold-20" x="672.900391"/>
      <use xlink:href="#DejaVuSans-Bold-70" x="707.714844"/>
      <use xlink:href="#DejaVuSans-Bold-65" x="779.296875"/>
      <use xlink:href="#DejaVuSans-Bold-72" x="847.119141"/>
      <use xlink:href="#DejaVuSans-Bold-20" x="896.435547"/>
      <use xlink:href="#DejaVuSans-Bold-6e" x="931.25"/>
      <use xlink:href="#DejaVuSans-Bold-65" x="1002.441406"/>
      <use xlink:href="#DejaVuSans-Bold-75" x="1070.263672"/>
      <use xlink:href="#DejaVuSans-Bold-72" x="1141.455078"/>
      <use xlink:href="#DejaVuSans-Bold-6f" x="1190.771484"/>
      <use xlink:href="#DejaVuSans-Bold-6e" x="1259.472656"/>
     </g>
     <!-- (bit/sample) -->
     <g transform="translate(50.106125 275.652158) rotate(-90) scale(0.2 -0.2)">
      <defs>
       <path id="DejaVuSans-Bold-28" d="M 2413 -844 
L 1484 -844 
Q 1006 -72 778 623 
Q 550 1319 550 2003 
Q 550 2688 779 3389 
Q 1009 4091 1484 4856 
L 2413 4856 
Q 2013 4116 1813 3408 
Q 1613 2700 1613 2009 
Q 1613 1319 1811 609 
Q 2009 -100 2413 -844 
z
" transform="scale(0.015625)"/>
       <path id="DejaVuSans-Bold-62" d="M 2400 722 
Q 2759 722 2948 984 
Q 3138 1247 3138 1747 
Q 3138 2247 2948 2509 
Q 2759 2772 2400 2772 
Q 2041 2772 1848 2508 
Q 1656 2244 1656 1747 
Q 1656 1250 1848 986 
Q 2041 722 2400 722 
z
M 1656 2988 
Q 1888 3294 2169 3439 
Q 2450 3584 2816 3584 
Q 3463 3584 3878 3070 
Q 4294 2556 4294 1747 
Q 4294 938 3878 423 
Q 3463 -91 2816 -91 
Q 2450 -91 2169 54 
Q 1888 200 1656 506 
L 1656 0 
L 538 0 
L 538 4863 
L 1656 4863 
L 1656 2988 
z
" transform="scale(0.015625)"/>
       <path id="DejaVuSans-Bold-2f" d="M 1644 4666 
L 2338 4666 
L 691 -594 
L 0 -594 
L 1644 4666 
z
" transform="scale(0.015625)"/>
       <path id="DejaVuSans-Bold-6d" d="M 3781 2919 
Q 3994 3244 4286 3414 
Q 4578 3584 4928 3584 
Q 5531 3584 5847 3212 
Q 6163 2841 6163 2131 
L 6163 0 
L 5038 0 
L 5038 1825 
Q 5041 1866 5042 1909 
Q 5044 1953 5044 2034 
Q 5044 2406 4934 2573 
Q 4825 2741 4581 2741 
Q 4263 2741 4089 2478 
Q 3916 2216 3909 1719 
L 3909 0 
L 2784 0 
L 2784 1825 
Q 2784 2406 2684 2573 
Q 2584 2741 2328 2741 
Q 2006 2741 1831 2477 
Q 1656 2213 1656 1722 
L 1656 0 
L 531 0 
L 531 3500 
L 1656 3500 
L 1656 2988 
Q 1863 3284 2130 3434 
Q 2397 3584 2719 3584 
Q 3081 3584 3359 3409 
Q 3638 3234 3781 2919 
z
" transform="scale(0.015625)"/>
       <path id="DejaVuSans-Bold-29" d="M 513 -844 
Q 913 -100 1113 609 
Q 1313 1319 1313 2009 
Q 1313 2700 1113 3408 
Q 913 4116 513 4856 
L 1441 4856 
Q 1916 4091 2145 3389 
Q 2375 2688 2375 2003 
Q 2375 1319 2147 623 
Q 1919 -72 1441 -844 
L 513 -844 
z
" transform="scale(0.015625)"/>
      </defs>
      <use xlink:href="#DejaVuSans-Bold-28"/>
      <use xlink:href="#DejaVuSans-Bold-62" x="45.703125"/>
      <use xlink:href="#DejaVuSans-Bold-69" x="117.285156"/>
      <use xlink:href="#DejaVuSans-Bold-74" x="151.5625"/>
      <use xlink:href="#DejaVuSans-Bold-2f" x="199.365234"/>
      <use xlink:href="#DejaVuSans-Bold-73" x="235.888672"/>
      <use xlink:href="#DejaVuSans-Bold-61" x="295.410156"/>
      <use xlink:href="#DejaVuSans-Bold-6d" x="362.890625"/>
      <use xlink:href="#DejaVuSans-Bold-70" x="467.089844"/>
      <use xlink:href="#DejaVuSans-Bold-6c" x="538.671875"/>
      <use xlink:href="#DejaVuSans-Bold-65" x="572.949219"/>
      <use xlink:href="#DejaVuSans-Bold-29" x="640.771484"/>
     </g>
    </g>
   </g>
   <g id="LineCollection_1">
    <path d="M 129.759379 46.694847 
L 129.759379 35.133288 
" clip-path="url(#pe7bc70a3b6)" style="fill: none; stroke: #000000; stroke-width: 1.5"/>
    <path d="M 292.963621 362.854165 
L 292.963621 352.169592 
" clip-path="url(#pe7bc70a3b6)" style="fill: none; stroke: #000000; stroke-width: 1.5"/>
   </g>
   <g id="line2d_17">
    <defs>
     <path id="m86e1f8d40f" d="M 5 0 
L -5 -0 
" style="stroke: #000000"/>
    </defs>
    <g clip-path="url(#pe7bc70a3b6)">
     <use xlink:href="#m86e1f8d40f" x="129.759379" y="46.694847" style="stroke: #000000"/>
     <use xlink:href="#m86e1f8d40f" x="292.963621" y="362.854165" style="stroke: #000000"/>
    </g>
   </g>
   <g id="line2d_18">
    <g clip-path="url(#pe7bc70a3b6)">
     <use xlink:href="#m86e1f8d40f" x="129.759379" y="35.133288" style="stroke: #000000"/>
     <use xlink:href="#m86e1f8d40f" x="292.963621" y="352.169592" style="stroke: #000000"/>
    </g>
   </g>
  </g>
  <g id="axes_2">
   <g id="patch_5">
    <path d="M 439.913 396.92 
L 709.2 396.92 
L 709.2 17.087442 
L 439.913 17.087442 
z
" style="fill: #ffffff"/>
   </g>
   <g id="patch_6">
    <path d="M 473.573875 393.196151 
L 540.895625 393.196151 
L 540.895625 377.406215 
L 473.573875 377.406215 
z
" clip-path="url(#pd743a7213c)" style="fill: #4e79a7; opacity: 0.8; stroke: #ffffff; stroke-linejoin: miter"/>
   </g>
   <g id="patch_7">
    <path d="M 608.217375 393.196151 
L 675.539125 393.196151 
L 675.539125 376.9556 
L 608.217375 376.9556 
z
" clip-path="url(#pd743a7213c)" style="fill: #f28e2b; opacity: 0.8; stroke: #ffffff; stroke-linejoin: miter"/>
   </g>
   <g id="PolyCollection_1">
    <defs>
     <path id="m40d36e7028" d="M 507.578683 -131.573588 
L 506.890817 -131.573588 
L 506.743855 -131.593957 
L 506.547045 -131.614326 
L 506.288468 -131.634695 
L 505.954915 -131.655064 
L 505.532157 -131.675434 
L 505.005352 -131.695803 
L 504.35959 -131.716172 
L 503.580611 -131.736541 
L 502.655703 -131.75691 
L 501.574774 -131.77728 
L 500.331551 -131.797649 
L 498.924814 -131.818018 
L 497.359521 -131.838387 
L 495.647613 -131.858756 
L 493.808279 -131.879126 
L 491.867492 -131.899495 
L 489.856683 -131.919864 
L 487.810565 -131.940233 
L 485.764276 -131.960602 
L 483.750177 -131.980972 
L 481.794765 -132.001341 
L 479.916195 -132.02171 
L 478.122865 -132.042079 
L 476.413337 -132.062448 
L 474.777634 -132.082818 
L 473.199723 -132.103187 
L 471.660749 -132.123556 
L 470.142476 -132.143925 
L 468.630419 -132.164294 
L 467.116205 -132.184664 
L 465.59895 -132.205033 
L 464.085583 -132.225402 
L 462.590251 -132.245771 
L 461.133009 -132.26614 
L 459.738016 -132.28651 
L 458.43145 -132.306879 
L 457.239289 -132.327248 
L 456.185116 -132.347617 
L 455.288103 -132.367986 
L 454.561394 -132.388356 
L 454.011102 -132.408725 
L 453.636135 -132.429094 
L 453.428971 -132.449463 
L 453.37735 -132.469832 
L 453.466689 -132.490202 
L 453.682885 -132.510571 
L 454.015076 -132.53094 
L 454.457955 -132.551309 
L 455.013271 -132.571678 
L 455.690318 -132.592048 
L 456.505316 -132.612417 
L 457.479723 -132.632786 
L 458.637629 -132.653155 
L 460.002461 -132.673524 
L 461.593314 -132.693894 
L 463.421298 -132.714263 
L 465.486334 -132.734632 
L 467.774873 -132.755001 
L 470.258919 -132.77537 
L 472.896634 -132.79574 
L 475.63456 -132.816109 
L 478.411274 -132.836478 
L 481.162037 -132.856847 
L 483.823846 -132.877216 
L 486.34025 -132.897586 
L 488.665316 -132.917955 
L 490.766337 -132.938324 
L 492.625049 -132.958693 
L 494.237361 -132.979062 
L 495.611821 -132.999432 
L 496.767135 -133.019801 
L 497.729154 -133.04017 
L 498.527718 -133.060539 
L 499.193722 -133.080908 
L 499.756664 -133.101278 
L 500.242841 -133.121647 
L 500.674276 -133.142016 
L 501.068333 -133.162385 
L 501.437921 -133.182754 
L 501.792111 -133.203124 
L 502.136981 -133.223493 
L 502.476471 -133.243862 
L 502.813108 -133.264231 
L 503.148495 -133.2846 
L 503.483521 -133.30497 
L 503.818362 -133.325339 
L 504.15234 -133.345708 
L 504.483771 -133.366077 
L 504.80991 -133.386446 
L 505.127051 -133.406816 
L 505.430813 -133.427185 
L 505.716576 -133.447554 
L 505.979981 -133.467923 
L 506.21742 -133.488292 
L 506.426419 -133.508662 
L 506.605855 -133.529031 
L 506.755993 -133.5494 
L 506.878354 -133.569769 
L 506.975446 -133.590138 
L 507.494054 -133.590138 
L 507.494054 -133.590138 
L 507.591146 -133.569769 
L 507.713507 -133.5494 
L 507.863645 -133.529031 
L 508.043081 -133.508662 
L 508.25208 -133.488292 
L 508.489519 -133.467923 
L 508.752924 -133.447554 
L 509.038687 -133.427185 
L 509.342449 -133.406816 
L 509.65959 -133.386446 
L 509.985729 -133.366077 
L 510.31716 -133.345708 
L 510.651138 -133.325339 
L 510.985979 -133.30497 
L 511.321005 -133.2846 
L 511.656392 -133.264231 
L 511.993029 -133.243862 
L 512.332519 -133.223493 
L 512.677389 -133.203124 
L 513.031579 -133.182754 
L 513.401167 -133.162385 
L 513.795224 -133.142016 
L 514.226659 -133.121647 
L 514.712836 -133.101278 
L 515.275778 -133.080908 
L 515.941782 -133.060539 
L 516.740346 -133.04017 
L 517.702365 -133.019801 
L 518.857679 -132.999432 
L 520.232139 -132.979062 
L 521.844451 -132.958693 
L 523.703163 -132.938324 
L 525.804184 -132.917955 
L 528.12925 -132.897586 
L 530.645654 -132.877216 
L 533.307463 -132.856847 
L 536.058226 -132.836478 
L 538.83494 -132.816109 
L 541.572866 -132.79574 
L 544.210581 -132.77537 
L 546.694627 -132.755001 
L 548.983166 -132.734632 
L 551.048202 -132.714263 
L 552.876186 -132.693894 
L 554.467039 -132.673524 
L 555.831871 -132.653155 
L 556.989777 -132.632786 
L 557.964184 -132.612417 
L 558.779182 -132.592048 
L 559.456229 -132.571678 
L 560.011545 -132.551309 
L 560.454424 -132.53094 
L 560.786615 -132.510571 
L 561.002811 -132.490202 
L 561.09215 -132.469832 
L 561.040529 -132.449463 
L 560.833365 -132.429094 
L 560.458398 -132.408725 
L 559.908106 -132.388356 
L 559.181397 -132.367986 
L 558.284384 -132.347617 
L 557.230211 -132.327248 
L 556.03805 -132.306879 
L 554.731484 -132.28651 
L 553.336491 -132.26614 
L 551.879249 -132.245771 
L 550.383917 -132.225402 
L 548.87055 -132.205033 
L 547.353295 -132.184664 
L 545.839081 -132.164294 
L 544.327024 -132.143925 
L 542.808751 -132.123556 
L 541.269777 -132.103187 
L 539.691866 -132.082818 
L 538.056163 -132.062448 
L 536.346635 -132.042079 
L 534.553305 -132.02171 
L 532.674735 -132.001341 
L 530.719323 -131.980972 
L 528.705224 -131.960602 
L 526.658935 -131.940233 
L 524.612817 -131.919864 
L 522.602008 -131.899495 
L 520.661221 -131.879126 
L 518.821887 -131.858756 
L 517.109979 -131.838387 
L 515.544686 -131.818018 
L 514.137949 -131.797649 
L 512.894726 -131.77728 
L 511.813797 -131.75691 
L 510.888889 -131.736541 
L 510.10991 -131.716172 
L 509.464148 -131.695803 
L 508.937343 -131.675434 
L 508.514585 -131.655064 
L 508.181032 -131.634695 
L 507.922455 -131.614326 
L 507.725645 -131.593957 
L 507.578683 -131.573588 
z
" style="stroke: #7f7f7f; stroke-width: 1.5"/>
    </defs>
    <g clip-path="url(#pd743a7213c)">
     <use xlink:href="#m40d36e7028" x="0" y="432" style="fill: #d3d3d3; stroke: #7f7f7f; stroke-width: 1.5"/>
    </g>
   </g>
   <g id="PolyCollection_2">
    <defs>
     <path id="mfddfd8b9fc" d="M 642.362718 -131.343077 
L 641.393782 -131.343077 
L 641.22936 -131.386235 
L 641.020268 -131.429394 
L 640.758224 -131.472553 
L 640.43459 -131.515712 
L 640.04071 -131.558871 
L 639.568349 -131.602029 
L 639.010191 -131.645188 
L 638.360401 -131.688347 
L 637.615201 -131.731506 
L 636.77343 -131.774665 
L 635.837046 -131.817823 
L 634.811517 -131.860982 
L 633.706066 -131.904141 
L 632.533742 -131.9473 
L 631.31128 -131.990459 
L 630.058764 -132.033618 
L 628.79908 -132.076776 
L 627.557201 -132.119935 
L 626.359332 -132.163094 
L 625.231961 -132.206253 
L 624.200869 -132.249412 
L 623.290147 -132.29257 
L 622.521276 -132.335729 
L 621.912294 -132.378888 
L 621.477094 -132.422047 
L 621.224874 -132.465206 
L 621.159749 -132.508364 
L 621.280534 -132.551523 
L 621.58071 -132.594682 
L 622.048561 -132.637841 
L 622.667482 -132.681 
L 623.416457 -132.724158 
L 624.270689 -132.767317 
L 625.202367 -132.810476 
L 626.181542 -132.853635 
L 627.1771 -132.896794 
L 628.157769 -132.939953 
L 629.093154 -132.983111 
L 629.954732 -133.02627 
L 630.716785 -133.069429 
L 631.357232 -133.112588 
L 631.858319 -133.155747 
L 632.207152 -133.198905 
L 632.396052 -133.242064 
L 632.422704 -133.285223 
L 632.290123 -133.328382 
L 632.006401 -133.371541 
L 631.584285 -133.414699 
L 631.040572 -133.457858 
L 630.395363 -133.501017 
L 629.671219 -133.544176 
L 628.892251 -133.587335 
L 628.083204 -133.630493 
L 627.268584 -133.673652 
L 626.471874 -133.716811 
L 625.714881 -133.75997 
L 625.017244 -133.803129 
L 624.3961 -133.846288 
L 623.865919 -133.889446 
L 623.438473 -133.932605 
L 623.122906 -133.975764 
L 622.925873 -134.018923 
L 622.851692 -134.062082 
L 622.902495 -134.10524 
L 623.078334 -134.148399 
L 623.377242 -134.191558 
L 623.795259 -134.234717 
L 624.326431 -134.277876 
L 624.962817 -134.321034 
L 625.694529 -134.364193 
L 626.509838 -134.407352 
L 627.395369 -134.450511 
L 628.336387 -134.49367 
L 629.317193 -134.536828 
L 630.321581 -134.579987 
L 631.333367 -134.623146 
L 632.336931 -134.666305 
L 633.317728 -134.709464 
L 634.262764 -134.752623 
L 635.160956 -134.795781 
L 636.003402 -134.83894 
L 636.783506 -134.882099 
L 637.496988 -134.925258 
L 638.141773 -134.968417 
L 638.717783 -135.011575 
L 639.226658 -135.054734 
L 639.671429 -135.097893 
L 640.056187 -135.141052 
L 640.385743 -135.184211 
L 640.66533 -135.227369 
L 640.900338 -135.270528 
L 641.096103 -135.313687 
L 641.257746 -135.356846 
L 641.390053 -135.400005 
L 641.497407 -135.443163 
L 641.583752 -135.486322 
L 641.65258 -135.529481 
L 641.706942 -135.57264 
L 641.749472 -135.615799 
L 642.007028 -135.615799 
L 642.007028 -135.615799 
L 642.049558 -135.57264 
L 642.10392 -135.529481 
L 642.172748 -135.486322 
L 642.259093 -135.443163 
L 642.366447 -135.400005 
L 642.498754 -135.356846 
L 642.660397 -135.313687 
L 642.856162 -135.270528 
L 643.09117 -135.227369 
L 643.370757 -135.184211 
L 643.700313 -135.141052 
L 644.085071 -135.097893 
L 644.529842 -135.054734 
L 645.038717 -135.011575 
L 645.614727 -134.968417 
L 646.259512 -134.925258 
L 646.972994 -134.882099 
L 647.753098 -134.83894 
L 648.595544 -134.795781 
L 649.493736 -134.752623 
L 650.438772 -134.709464 
L 651.419569 -134.666305 
L 652.423133 -134.623146 
L 653.434919 -134.579987 
L 654.439307 -134.536828 
L 655.420113 -134.49367 
L 656.361131 -134.450511 
L 657.246662 -134.407352 
L 658.061971 -134.364193 
L 658.793683 -134.321034 
L 659.430069 -134.277876 
L 659.961241 -134.234717 
L 660.379258 -134.191558 
L 660.678166 -134.148399 
L 660.854005 -134.10524 
L 660.904808 -134.062082 
L 660.830627 -134.018923 
L 660.633594 -133.975764 
L 660.318027 -133.932605 
L 659.890581 -133.889446 
L 659.3604 -133.846288 
L 658.739256 -133.803129 
L 658.041619 -133.75997 
L 657.284626 -133.716811 
L 656.487916 -133.673652 
L 655.673296 -133.630493 
L 654.864249 -133.587335 
L 654.085281 -133.544176 
L 653.361137 -133.501017 
L 652.715928 -133.457858 
L 652.172215 -133.414699 
L 651.750099 -133.371541 
L 651.466377 -133.328382 
L 651.333796 -133.285223 
L 651.360448 -133.242064 
L 651.549348 -133.198905 
L 651.898181 -133.155747 
L 652.399268 -133.112588 
L 653.039715 -133.069429 
L 653.801768 -133.02627 
L 654.663346 -132.983111 
L 655.598731 -132.939953 
L 656.5794 -132.896794 
L 657.574958 -132.853635 
L 658.554133 -132.810476 
L 659.485811 -132.767317 
L 660.340043 -132.724158 
L 661.089018 -132.681 
L 661.707939 -132.637841 
L 662.17579 -132.594682 
L 662.475966 -132.551523 
L 662.596751 -132.508364 
L 662.531626 -132.465206 
L 662.279406 -132.422047 
L 661.844206 -132.378888 
L 661.235224 -132.335729 
L 660.466353 -132.29257 
L 659.555631 -132.249412 
L 658.524539 -132.206253 
L 657.397168 -132.163094 
L 656.199299 -132.119935 
L 654.95742 -132.076776 
L 653.697736 -132.033618 
L 652.44522 -131.990459 
L 651.222758 -131.9473 
L 650.050434 -131.904141 
L 648.944983 -131.860982 
L 647.919454 -131.817823 
L 646.98307 -131.774665 
L 646.141299 -131.731506 
L 645.396099 -131.688347 
L 644.746309 -131.645188 
L 644.188151 -131.602029 
L 643.71579 -131.558871 
L 643.32191 -131.515712 
L 642.998276 -131.472553 
L 642.736232 -131.429394 
L 642.52714 -131.386235 
L 642.362718 -131.343077 
z
" style="stroke: #7f7f7f; stroke-width: 1.5"/>
    </defs>
    <g clip-path="url(#pd743a7213c)">
     <use xlink:href="#mfddfd8b9fc" x="0" y="432" style="fill: #d3d3d3; stroke: #7f7f7f; stroke-width: 1.5"/>
    </g>
   </g>
   <g id="matplotlib.axis_3">
    <g id="xtick_3">
     <g id="line2d_19">
      <g>
       <use xlink:href="#m7cea424356" x="507.23475" y="396.92" style="stroke: #000000; stroke-width: 0.8"/>
      </g>
     </g>
     <g id="text_11">
      <!-- Sparse -->
      <g transform="translate(472.338656 417.597188) scale(0.18 -0.18)">
       <use xlink:href="#DejaVuSans-Bold-53"/>
       <use xlink:href="#DejaVuSans-Bold-70" x="72.021484"/>
       <use xlink:href="#DejaVuSans-Bold-61" x="143.603516"/>
       <use xlink:href="#DejaVuSans-Bold-72" x="211.083984"/>
       <use xlink:href="#DejaVuSans-Bold-73" x="260.400391"/>
       <use xlink:href="#DejaVuSans-Bold-65" x="319.921875"/>
      </g>
     </g>
    </g>
    <g id="xtick_4">
     <g id="line2d_20">
      <g>
       <use xlink:href="#m7cea424356" x="641.87825" y="396.92" style="stroke: #000000; stroke-width: 0.8"/>
      </g>
     </g>
     <g id="text_12">
      <!-- Dense -->
      <g transform="translate(610.4345 417.597188) scale(0.18 -0.18)">
       <use xlink:href="#DejaVuSans-Bold-44"/>
       <use xlink:href="#DejaVuSans-Bold-65" x="83.007812"/>
       <use xlink:href="#DejaVuSans-Bold-6e" x="150.830078"/>
       <use xlink:href="#DejaVuSans-Bold-73" x="222.021484"/>
       <use xlink:href="#DejaVuSans-Bold-65" x="281.542969"/>
      </g>
     </g>
    </g>
   </g>
   <g id="matplotlib.axis_4">
    <g id="ytick_8">
     <g id="line2d_21">
      <path d="M 439.913 393.196151 
L 709.2 393.196151 
" clip-path="url(#pd743a7213c)" style="fill: none; stroke-dasharray: 2.59,1.12; stroke-dashoffset: 0; stroke: #b0b0b0; stroke-opacity: 0.7; stroke-width: 0.7"/>
     </g>
     <g id="line2d_22">
      <g>
       <use xlink:href="#md323920acd" x="439.913" y="393.196151" style="stroke: #000000; stroke-width: 0.8"/>
      </g>
     </g>
     <g id="text_13">
      <!-- 0.0 -->
      <g transform="translate(404.287375 400.034745) scale(0.18 -0.18)">
       <defs>
        <path id="DejaVuSans-2e" d="M 684 794 
L 1344 794 
L 1344 0 
L 684 0 
L 684 794 
z
" transform="scale(0.015625)"/>
       </defs>
       <use xlink:href="#DejaVuSans-30"/>
       <use xlink:href="#DejaVuSans-2e" x="63.623047"/>
       <use xlink:href="#DejaVuSans-30" x="95.410156"/>
      </g>
     </g>
    </g>
    <g id="ytick_9">
     <g id="line2d_23">
      <path d="M 439.913 318.719179 
L 709.2 318.719179 
" clip-path="url(#pd743a7213c)" style="fill: none; stroke-dasharray: 2.59,1.12; stroke-dashoffset: 0; stroke: #b0b0b0; stroke-opacity: 0.7; stroke-width: 0.7"/>
     </g>
     <g id="line2d_24">
      <g>
       <use xlink:href="#md323920acd" x="439.913" y="318.719179" style="stroke: #000000; stroke-width: 0.8"/>
      </g>
     </g>
     <g id="text_14">
      <!-- 0.2 -->
      <g transform="translate(404.287375 325.557773) scale(0.18 -0.18)">
       <use xlink:href="#DejaVuSans-30"/>
       <use xlink:href="#DejaVuSans-2e" x="63.623047"/>
       <use xlink:href="#DejaVuSans-32" x="95.410156"/>
      </g>
     </g>
    </g>
    <g id="ytick_10">
     <g id="line2d_25">
      <path d="M 439.913 244.242207 
L 709.2 244.242207 
" clip-path="url(#pd743a7213c)" style="fill: none; stroke-dasharray: 2.59,1.12; stroke-dashoffset: 0; stroke: #b0b0b0; stroke-opacity: 0.7; stroke-width: 0.7"/>
     </g>
     <g id="line2d_26">
      <g>
       <use xlink:href="#md323920acd" x="439.913" y="244.242207" style="stroke: #000000; stroke-width: 0.8"/>
      </g>
     </g>
     <g id="text_15">
      <!-- 0.4 -->
      <g transform="translate(404.287375 251.080801) scale(0.18 -0.18)">
       <use xlink:href="#DejaVuSans-30"/>
       <use xlink:href="#DejaVuSans-2e" x="63.623047"/>
       <use xlink:href="#DejaVuSans-34" x="95.410156"/>
      </g>
     </g>
    </g>
    <g id="ytick_11">
     <g id="line2d_27">
      <path d="M 439.913 169.765235 
L 709.2 169.765235 
" clip-path="url(#pd743a7213c)" style="fill: none; stroke-dasharray: 2.59,1.12; stroke-dashoffset: 0; stroke: #b0b0b0; stroke-opacity: 0.7; stroke-width: 0.7"/>
     </g>
     <g id="line2d_28">
      <g>
       <use xlink:href="#md323920acd" x="439.913" y="169.765235" style="stroke: #000000; stroke-width: 0.8"/>
      </g>
     </g>
     <g id="text_16">
      <!-- 0.6 -->
      <g transform="translate(404.287375 176.603829) scale(0.18 -0.18)">
       <use xlink:href="#DejaVuSans-30"/>
       <use xlink:href="#DejaVuSans-2e" x="63.623047"/>
       <use xlink:href="#DejaVuSans-36" x="95.410156"/>
      </g>
     </g>
    </g>
    <g id="ytick_12">
     <g id="line2d_29">
      <path d="M 439.913 95.288263 
L 709.2 95.288263 
" clip-path="url(#pd743a7213c)" style="fill: none; stroke-dasharray: 2.59,1.12; stroke-dashoffset: 0; stroke: #b0b0b0; stroke-opacity: 0.7; stroke-width: 0.7"/>
     </g>
     <g id="line2d_30">
      <g>
       <use xlink:href="#md323920acd" x="439.913" y="95.288263" style="stroke: #000000; stroke-width: 0.8"/>
      </g>
     </g>
     <g id="text_17">
      <!-- 0.8 -->
      <g transform="translate(404.287375 102.126856) scale(0.18 -0.18)">
       <defs>
        <path id="DejaVuSans-38" d="M 2034 2216 
Q 1584 2216 1326 1975 
Q 1069 1734 1069 1313 
Q 1069 891 1326 650 
Q 1584 409 2034 409 
Q 2484 409 2743 651 
Q 3003 894 3003 1313 
Q 3003 1734 2745 1975 
Q 2488 2216 2034 2216 
z
M 1403 2484 
Q 997 2584 770 2862 
Q 544 3141 544 3541 
Q 544 4100 942 4425 
Q 1341 4750 2034 4750 
Q 2731 4750 3128 4425 
Q 3525 4100 3525 3541 
Q 3525 3141 3298 2862 
Q 3072 2584 2669 2484 
Q 3125 2378 3379 2068 
Q 3634 1759 3634 1313 
Q 3634 634 3220 271 
Q 2806 -91 2034 -91 
Q 1263 -91 848 271 
Q 434 634 434 1313 
Q 434 1759 690 2068 
Q 947 2378 1403 2484 
z
M 1172 3481 
Q 1172 3119 1398 2916 
Q 1625 2713 2034 2713 
Q 2441 2713 2670 2916 
Q 2900 3119 2900 3481 
Q 2900 3844 2670 4047 
Q 2441 4250 2034 4250 
Q 1625 4250 1398 4047 
Q 1172 3844 1172 3481 
z
" transform="scale(0.015625)"/>
       </defs>
       <use xlink:href="#DejaVuSans-30"/>
       <use xlink:href="#DejaVuSans-2e" x="63.623047"/>
       <use xlink:href="#DejaVuSans-38" x="95.410156"/>
      </g>
     </g>
    </g>
    <g id="ytick_13">
     <g id="line2d_31">
      <path d="M 439.913 20.81129 
L 709.2 20.81129 
" clip-path="url(#pd743a7213c)" style="fill: none; stroke-dasharray: 2.59,1.12; stroke-dashoffset: 0; stroke: #b0b0b0; stroke-opacity: 0.7; stroke-width: 0.7"/>
     </g>
     <g id="line2d_32">
      <g>
       <use xlink:href="#md323920acd" x="439.913" y="20.81129" style="stroke: #000000; stroke-width: 0.8"/>
      </g>
     </g>
     <g id="text_18">
      <!-- 1.0 -->
      <g transform="translate(404.287375 27.649884) scale(0.18 -0.18)">
       <use xlink:href="#DejaVuSans-31"/>
       <use xlink:href="#DejaVuSans-2e" x="63.623047"/>
       <use xlink:href="#DejaVuSans-30" x="95.410156"/>
      </g>
     </g>
    </g>
    <g id="text_19">
     <!-- mean position error -->
     <g transform="translate(373.732375 319.088096) rotate(-90) scale(0.2 -0.2)">
      <use xlink:href="#DejaVuSans-Bold-6d"/>
      <use xlink:href="#DejaVuSans-Bold-65" x="104.199219"/>
      <use xlink:href="#DejaVuSans-Bold-61" x="172.021484"/>
      <use xlink:href="#DejaVuSans-Bold-6e" x="239.501953"/>
      <use xlink:href="#DejaVuSans-Bold-20" x="310.693359"/>
      <use xlink:href="#DejaVuSans-Bold-70" x="345.507812"/>
      <use xlink:href="#DejaVuSans-Bold-6f" x="417.089844"/>
      <use xlink:href="#DejaVuSans-Bold-73" x="485.791016"/>
      <use xlink:href="#DejaVuSans-Bold-69" x="545.3125"/>
      <use xlink:href="#DejaVuSans-Bold-74" x="579.589844"/>
      <use xlink:href="#DejaVuSans-Bold-69" x="627.392578"/>
      <use xlink:href="#DejaVuSans-Bold-6f" x="661.669922"/>
      <use xlink:href="#DejaVuSans-Bold-6e" x="730.371094"/>
      <use xlink:href="#DejaVuSans-Bold-20" x="801.5625"/>
      <use xlink:href="#DejaVuSans-Bold-65" x="836.376953"/>
      <use xlink:href="#DejaVuSans-Bold-72" x="904.199219"/>
      <use xlink:href="#DejaVuSans-Bold-72" x="953.515625"/>
      <use xlink:href="#DejaVuSans-Bold-6f" x="1002.832031"/>
      <use xlink:href="#DejaVuSans-Bold-72" x="1071.533203"/>
     </g>
     <!-- (% of max. distance) -->
     <g transform="translate(396.128 323.141221) rotate(-90) scale(0.2 -0.2)">
      <defs>
       <path id="DejaVuSans-Bold-25" d="M 4959 1925 
Q 4738 1925 4616 1733 
Q 4494 1541 4494 1184 
Q 4494 825 4614 633 
Q 4734 441 4959 441 
Q 5184 441 5303 633 
Q 5422 825 5422 1184 
Q 5422 1541 5301 1733 
Q 5181 1925 4959 1925 
z
M 4959 2450 
Q 5541 2450 5875 2112 
Q 6209 1775 6209 1184 
Q 6209 594 5875 251 
Q 5541 -91 4959 -91 
Q 4378 -91 4042 251 
Q 3706 594 3706 1184 
Q 3706 1772 4042 2111 
Q 4378 2450 4959 2450 
z
M 2094 -91 
L 1403 -91 
L 4319 4750 
L 5013 4750 
L 2094 -91 
z
M 1453 4750 
Q 2034 4750 2367 4411 
Q 2700 4072 2700 3481 
Q 2700 2891 2367 2550 
Q 2034 2209 1453 2209 
Q 872 2209 539 2550 
Q 206 2891 206 3481 
Q 206 4072 539 4411 
Q 872 4750 1453 4750 
z
M 1453 4225 
Q 1228 4225 1106 4031 
Q 984 3838 984 3481 
Q 984 3122 1106 2926 
Q 1228 2731 1453 2731 
Q 1678 2731 1798 2926 
Q 1919 3122 1919 3481 
Q 1919 3838 1797 4031 
Q 1675 4225 1453 4225 
z
" transform="scale(0.015625)"/>
       <path id="DejaVuSans-Bold-78" d="M 1422 1791 
L 159 3500 
L 1344 3500 
L 2059 2463 
L 2784 3500 
L 3969 3500 
L 2706 1797 
L 4031 0 
L 2847 0 
L 2059 1106 
L 1281 0 
L 97 0 
L 1422 1791 
z
" transform="scale(0.015625)"/>
       <path id="DejaVuSans-Bold-64" d="M 2919 2988 
L 2919 4863 
L 4044 4863 
L 4044 0 
L 2919 0 
L 2919 506 
Q 2688 197 2409 53 
Q 2131 -91 1766 -91 
Q 1119 -91 703 423 
Q 288 938 288 1747 
Q 288 2556 703 3070 
Q 1119 3584 1766 3584 
Q 2128 3584 2408 3439 
Q 2688 3294 2919 2988 
z
M 2181 722 
Q 2541 722 2730 984 
Q 2919 1247 2919 1747 
Q 2919 2247 2730 2509 
Q 2541 2772 2181 2772 
Q 1825 2772 1636 2509 
Q 1447 2247 1447 1747 
Q 1447 1247 1636 984 
Q 1825 722 2181 722 
z
" transform="scale(0.015625)"/>
       <path id="DejaVuSans-Bold-63" d="M 3366 3391 
L 3366 2478 
Q 3138 2634 2908 2709 
Q 2678 2784 2431 2784 
Q 1963 2784 1702 2511 
Q 1441 2238 1441 1747 
Q 1441 1256 1702 982 
Q 1963 709 2431 709 
Q 2694 709 2930 787 
Q 3166 866 3366 1019 
L 3366 103 
Q 3103 6 2833 -42 
Q 2563 -91 2291 -91 
Q 1344 -91 809 395 
Q 275 881 275 1747 
Q 275 2613 809 3098 
Q 1344 3584 2291 3584 
Q 2566 3584 2833 3536 
Q 3100 3488 3366 3391 
z
" transform="scale(0.015625)"/>
      </defs>
      <use xlink:href="#DejaVuSans-Bold-28"/>
      <use xlink:href="#DejaVuSans-Bold-25" x="45.703125"/>
      <use xlink:href="#DejaVuSans-Bold-20" x="145.898438"/>
      <use xlink:href="#DejaVuSans-Bold-6f" x="180.712891"/>
      <use xlink:href="#DejaVuSans-Bold-66" x="249.414062"/>
      <use xlink:href="#DejaVuSans-Bold-20" x="292.919922"/>
      <use xlink:href="#DejaVuSans-Bold-6d" x="327.734375"/>
      <use xlink:href="#DejaVuSans-Bold-61" x="431.933594"/>
      <use xlink:href="#DejaVuSans-Bold-78" x="499.414062"/>
      <use xlink:href="#DejaVuSans-Bold-2e" x="563.916016"/>
      <use xlink:href="#DejaVuSans-Bold-20" x="601.904297"/>
      <use xlink:href="#DejaVuSans-Bold-64" x="636.71875"/>
      <use xlink:href="#DejaVuSans-Bold-69" x="708.300781"/>
      <use xlink:href="#DejaVuSans-Bold-73" x="742.578125"/>
      <use xlink:href="#DejaVuSans-Bold-74" x="802.099609"/>
      <use xlink:href="#DejaVuSans-Bold-61" x="849.902344"/>
      <use xlink:href="#DejaVuSans-Bold-6e" x="917.382812"/>
      <use xlink:href="#DejaVuSans-Bold-63" x="988.574219"/>
      <use xlink:href="#DejaVuSans-Bold-65" x="1047.851562"/>
      <use xlink:href="#DejaVuSans-Bold-29" x="1115.673828"/>
     </g>
    </g>
   </g>
   <g id="LineCollection_2">
    <path d="M 507.23475 377.430876 
L 507.23475 377.381553 
" clip-path="url(#pd743a7213c)" style="fill: none; stroke: #000000; stroke-width: 1.5"/>
    <path d="M 641.87825 377.360999 
L 641.87825 376.5502 
" clip-path="url(#pd743a7213c)" style="fill: none; stroke: #000000; stroke-width: 1.5"/>
   </g>
   <g id="line2d_33">
    <g clip-path="url(#pd743a7213c)">
     <use xlink:href="#m86e1f8d40f" x="507.23475" y="377.430876" style="stroke: #000000"/>
     <use xlink:href="#m86e1f8d40f" x="641.87825" y="377.360999" style="stroke: #000000"/>
    </g>
   </g>
   <g id="line2d_34">
    <g clip-path="url(#pd743a7213c)">
     <use xlink:href="#m86e1f8d40f" x="507.23475" y="377.381553" style="stroke: #000000"/>
     <use xlink:href="#m86e1f8d40f" x="641.87825" y="376.5502" style="stroke: #000000"/>
    </g>
   </g>
  </g>
 </g>
 <defs>
  <clipPath id="pe7bc70a3b6">
   <rect x="76.718" y="17.087442" width="269.287" height="379.832558"/>
  </clipPath>
  <clipPath id="pd743a7213c">
   <rect x="439.913" y="17.087442" width="269.287" height="379.832558"/>
  </clipPath>
 </defs>
</svg>
